<?xml version="1.0" encoding="UTF-8"?> <svg xmlns="http://www.w3.org/2000/svg" width="1245" height="403" viewBox="0 0 1245 403" fill="none"> <path fill-rule="evenodd" clip-rule="evenodd" d="M1042.08 230.302C1059.5 198.796 1093.73 177.231 1128.77 185.334C1162.28 193.083 1175.91 228.503 1181.28 262.495C1188.11 305.779 1199.19 361.023 1159.41 379.417C1118.99 398.109 1080.92 356.607 1053.4 321.632C1032.44 294.995 1025.66 259.994 1042.08 230.302Z" fill="url(#paint0_linear_189_576)"></path> <path opacity="0.1" d="M78 55V0H23V55V110H78H133V55H78Z" fill="#7FA785"></path> <path d="M112 133H0V21H57.1207V75.8793H112V133ZM2.24134 130.759H109.759V78.1207H54.8793V23.2413H2.24134V130.759Z" fill="#7FA785"></path> <g opacity="0.1"> <path d="M1035.49 57.9736C1034.67 57.9736 1034 57.3111 1034 56.4868C1034 55.6702 1034.66 55 1035.49 55C1036.31 55 1036.97 55.6625 1036.97 56.4868C1036.97 57.3034 1036.3 57.9736 1035.49 57.9736Z" fill="#735B5B"></path> <path d="M1049.46 57.9736C1048.64 57.9736 1047.97 57.3111 1047.97 56.4868C1047.97 55.6702 1048.63 55 1049.46 55C1050.27 55 1050.94 55.6625 1050.94 56.4868C1050.93 57.3034 1050.27 57.9736 1049.46 57.9736Z" fill="#735B5B"></path> <path d="M1063.42 57.9736C1062.6 57.9736 1061.93 57.3111 1061.93 56.4868C1061.93 55.6702 1062.59 55 1063.42 55C1064.23 55 1064.9 55.6625 1064.9 56.4868C1064.9 57.3034 1064.24 57.9736 1063.42 57.9736Z" fill="#735B5B"></path> <path d="M1077.39 57.9736C1076.57 57.9736 1075.9 57.3111 1075.9 56.4868C1075.9 55.6702 1076.56 55 1077.39 55C1078.2 55 1078.87 55.6625 1078.87 56.4868C1078.87 57.3034 1078.2 57.9736 1077.39 57.9736Z" fill="#735B5B"></path> <path d="M1091.35 57.9736C1090.53 57.9736 1089.86 57.3111 1089.86 56.4868C1089.86 55.6702 1090.53 55 1091.35 55C1092.17 55 1092.84 55.6625 1092.84 56.4868C1092.84 57.3034 1092.17 57.9736 1091.35 57.9736Z" fill="#735B5B"></path> <path d="M1105.32 57.9736C1104.5 57.9736 1103.83 57.3111 1103.83 56.4868C1103.83 55.6702 1104.5 55 1105.32 55C1106.14 55 1106.81 55.6625 1106.81 56.4868C1106.81 57.3034 1106.14 57.9736 1105.32 57.9736Z" fill="#735B5B"></path> <path d="M1035.49 70.7154C1034.67 70.7154 1034 70.0529 1034 69.2286C1034 68.412 1034.66 67.7418 1035.49 67.7418C1036.31 67.7418 1036.97 68.4043 1036.97 69.2286C1036.97 70.0452 1036.3 70.7154 1035.49 70.7154Z" fill="#735B5B"></path> <path d="M1049.46 70.7154C1048.64 70.7154 1047.97 70.0529 1047.97 69.2286C1047.97 68.412 1048.63 67.7418 1049.46 67.7418C1050.27 67.7418 1050.94 68.4043 1050.94 69.2286C1050.93 70.0452 1050.27 70.7154 1049.46 70.7154Z" fill="#735B5B"></path> <path d="M1063.42 70.7154C1062.6 70.7154 1061.93 70.0529 1061.93 69.2286C1061.93 68.412 1062.59 67.7418 1063.42 67.7418C1064.23 67.7418 1064.9 68.4043 1064.9 69.2286C1064.9 70.0452 1064.24 70.7154 1063.42 70.7154Z" fill="#735B5B"></path> <path d="M1077.39 70.7154C1076.57 70.7154 1075.9 70.0529 1075.9 69.2286C1075.9 68.412 1076.56 67.7418 1077.39 67.7418C1078.2 67.7418 1078.87 68.4043 1078.87 69.2286C1078.87 70.0452 1078.2 70.7154 1077.39 70.7154Z" fill="#735B5B"></path> <path d="M1091.35 70.7154C1090.53 70.7154 1089.86 70.0529 1089.86 69.2286C1089.86 68.412 1090.53 67.7418 1091.35 67.7418C1092.17 67.7418 1092.84 68.4043 1092.84 69.2286C1092.84 70.0452 1092.17 70.7154 1091.35 70.7154Z" fill="#735B5B"></path> <path d="M1105.32 70.7154C1104.5 70.7154 1103.83 70.0529 1103.83 69.2286C1103.83 68.412 1104.5 67.7418 1105.32 67.7418C1106.14 67.7418 1106.81 68.4043 1106.81 69.2286C1106.81 70.0452 1106.14 70.7154 1105.32 70.7154Z" fill="#735B5B"></path> <path d="M1035.49 83.4496C1034.67 83.4496 1034 82.787 1034 81.9628C1034 81.1462 1034.66 80.476 1035.49 80.476C1036.31 80.476 1036.97 81.1385 1036.97 81.9628C1036.97 82.787 1036.3 83.4496 1035.49 83.4496Z" fill="#735B5B"></path> <path d="M1049.46 83.4496C1048.64 83.4496 1047.97 82.787 1047.97 81.9628C1047.97 81.1462 1048.63 80.476 1049.46 80.476C1050.27 80.476 1050.94 81.1385 1050.94 81.9628C1050.93 82.787 1050.27 83.4496 1049.46 83.4496Z" fill="#735B5B"></path> <path d="M1063.42 83.4496C1062.6 83.4496 1061.93 82.787 1061.93 81.9628C1061.93 81.1462 1062.59 80.476 1063.42 80.476C1064.23 80.476 1064.9 81.1385 1064.9 81.9628C1064.9 82.787 1064.24 83.4496 1063.42 83.4496Z" fill="#735B5B"></path> <path d="M1077.39 83.4496C1076.57 83.4496 1075.9 82.787 1075.9 81.9628C1075.9 81.1462 1076.56 80.476 1077.39 80.476C1078.2 80.476 1078.87 81.1385 1078.87 81.9628C1078.87 82.787 1078.2 83.4496 1077.39 83.4496Z" fill="#735B5B"></path> <path d="M1091.35 83.4496C1090.53 83.4496 1089.86 82.787 1089.86 81.9628C1089.86 81.1462 1090.53 80.476 1091.35 80.476C1092.17 80.476 1092.84 81.1385 1092.84 81.9628C1092.84 82.787 1092.17 83.4496 1091.35 83.4496Z" fill="#735B5B"></path> <path d="M1105.32 83.4496C1104.5 83.4496 1103.83 82.787 1103.83 81.9628C1103.83 81.1462 1104.5 80.476 1105.32 80.476C1106.14 80.476 1106.81 81.1385 1106.81 81.9628C1106.81 82.787 1106.14 83.4496 1105.32 83.4496Z" fill="#735B5B"></path> <path d="M1035.49 96.1914C1034.67 96.1914 1034 95.5289 1034 94.7046C1034 93.888 1034.66 93.2178 1035.49 93.2178C1036.31 93.2178 1036.97 93.8803 1036.97 94.7046C1036.97 95.5212 1036.3 96.1914 1035.49 96.1914Z" fill="#735B5B"></path> <path d="M1049.46 96.1914C1048.64 96.1914 1047.97 95.5289 1047.97 94.7046C1047.97 93.888 1048.63 93.2178 1049.46 93.2178C1050.27 93.2178 1050.94 93.8803 1050.94 94.7046C1050.93 95.5212 1050.27 96.1914 1049.46 96.1914Z" fill="#735B5B"></path> <path d="M1063.42 96.1914C1062.6 96.1914 1061.93 95.5289 1061.93 94.7046C1061.93 93.888 1062.59 93.2178 1063.42 93.2178C1064.23 93.2178 1064.9 93.8803 1064.9 94.7046C1064.9 95.5212 1064.24 96.1914 1063.42 96.1914Z" fill="#735B5B"></path> <path d="M1077.39 96.1914C1076.57 96.1914 1075.9 95.5289 1075.9 94.7046C1075.9 93.888 1076.56 93.2178 1077.39 93.2178C1078.2 93.2178 1078.87 93.8803 1078.87 94.7046C1078.87 95.5212 1078.2 96.1914 1077.39 96.1914Z" fill="#735B5B"></path> <path d="M1091.35 96.1914C1090.53 96.1914 1089.86 95.5289 1089.86 94.7046C1089.86 93.888 1090.53 93.2178 1091.35 93.2178C1092.17 93.2178 1092.84 93.8803 1092.84 94.7046C1092.84 95.5212 1092.17 96.1914 1091.35 96.1914Z" fill="#735B5B"></path> <path d="M1105.32 96.1914C1104.5 96.1914 1103.83 95.5289 1103.83 94.7046C1103.83 93.888 1104.5 93.2178 1105.32 93.2178C1106.14 93.2178 1106.81 93.8803 1106.81 94.7046C1106.81 95.5212 1106.14 96.1914 1105.32 96.1914Z" fill="#735B5B"></path> <path d="M1035.49 108.933C1034.67 108.933 1034 108.271 1034 107.446C1034 106.63 1034.66 105.96 1035.49 105.96C1036.31 105.96 1036.97 106.622 1036.97 107.446C1036.97 108.263 1036.3 108.933 1035.49 108.933Z" fill="#735B5B"></path> <path d="M1049.46 108.933C1048.64 108.933 1047.97 108.271 1047.97 107.446C1047.97 106.63 1048.63 105.96 1049.46 105.96C1050.27 105.96 1050.94 106.622 1050.94 107.446C1050.93 108.263 1050.27 108.933 1049.46 108.933Z" fill="#735B5B"></path> <path d="M1063.42 108.933C1062.6 108.933 1061.93 108.271 1061.93 107.446C1061.93 106.63 1062.59 105.96 1063.42 105.96C1064.23 105.96 1064.9 106.622 1064.9 107.446C1064.9 108.263 1064.24 108.933 1063.42 108.933Z" fill="#735B5B"></path> <path d="M1077.39 108.933C1076.57 108.933 1075.9 108.271 1075.9 107.446C1075.9 106.63 1076.56 105.96 1077.39 105.96C1078.2 105.96 1078.87 106.622 1078.87 107.446C1078.87 108.263 1078.2 108.933 1077.39 108.933Z" fill="#735B5B"></path> <path d="M1091.35 108.933C1090.53 108.933 1089.86 108.271 1089.86 107.446C1089.86 106.63 1090.53 105.96 1091.35 105.96C1092.17 105.96 1092.84 106.622 1092.84 107.446C1092.84 108.263 1092.17 108.933 1091.35 108.933Z" fill="#735B5B"></path> <path d="M1105.32 108.933C1104.5 108.933 1103.83 108.271 1103.83 107.446C1103.83 106.63 1104.5 105.96 1105.32 105.96C1106.14 105.96 1106.81 106.622 1106.81 107.446C1106.81 108.263 1106.14 108.933 1105.32 108.933Z" fill="#735B5B"></path> <path d="M1035.49 121.667C1034.67 121.667 1034 121.005 1034 120.181C1034 119.364 1034.66 118.694 1035.49 118.694C1036.31 118.694 1036.97 119.356 1036.97 120.181C1036.97 121.005 1036.3 121.667 1035.49 121.667Z" fill="#735B5B"></path> <path d="M1049.46 121.667C1048.64 121.667 1047.97 121.005 1047.97 120.181C1047.97 119.364 1048.63 118.694 1049.46 118.694C1050.27 118.694 1050.94 119.356 1050.94 120.181C1050.93 121.005 1050.27 121.667 1049.46 121.667Z" fill="#735B5B"></path> <path d="M1063.42 121.667C1062.6 121.667 1061.93 121.005 1061.93 120.181C1061.93 119.364 1062.59 118.694 1063.42 118.694C1064.23 118.694 1064.9 119.356 1064.9 120.181C1064.9 121.005 1064.24 121.667 1063.42 121.667Z" fill="#735B5B"></path> <path d="M1077.39 121.667C1076.57 121.667 1075.9 121.005 1075.9 120.181C1075.9 119.364 1076.56 118.694 1077.39 118.694C1078.2 118.694 1078.87 119.356 1078.87 120.181C1078.87 121.005 1078.2 121.667 1077.39 121.667Z" fill="#735B5B"></path> <path d="M1091.35 121.667C1090.53 121.667 1089.86 121.005 1089.86 120.181C1089.86 119.364 1090.53 118.694 1091.35 118.694C1092.17 118.694 1092.84 119.356 1092.84 120.181C1092.84 121.005 1092.17 121.667 1091.35 121.667Z" fill="#735B5B"></path> <path d="M1105.32 121.667C1104.5 121.667 1103.83 121.005 1103.83 120.181C1103.83 119.364 1104.5 118.694 1105.32 118.694C1106.14 118.694 1106.81 119.356 1106.81 120.181C1106.81 121.005 1106.14 121.667 1105.32 121.667Z" fill="#735B5B"></path> <path d="M1035.49 131.929C1034.67 131.929 1034 131.266 1034 130.442C1034 129.625 1034.66 128.955 1035.49 128.955C1036.31 128.955 1036.97 129.618 1036.97 130.442C1036.97 131.258 1036.3 131.929 1035.49 131.929Z" fill="#735B5B"></path> <path d="M1049.46 131.929C1048.64 131.929 1047.97 131.266 1047.97 130.442C1047.97 129.625 1048.63 128.955 1049.46 128.955C1050.27 128.955 1050.94 129.618 1050.94 130.442C1050.93 131.258 1050.27 131.929 1049.46 131.929Z" fill="#735B5B"></path> <path d="M1063.42 131.929C1062.6 131.929 1061.93 131.266 1061.93 130.442C1061.93 129.625 1062.59 128.955 1063.42 128.955C1064.23 128.955 1064.9 129.618 1064.9 130.442C1064.9 131.258 1064.24 131.929 1063.42 131.929Z" fill="#735B5B"></path> <path d="M1077.39 131.929C1076.57 131.929 1075.9 131.266 1075.9 130.442C1075.9 129.625 1076.56 128.955 1077.39 128.955C1078.2 128.955 1078.87 129.618 1078.87 130.442C1078.87 131.258 1078.2 131.929 1077.39 131.929Z" fill="#735B5B"></path> <path d="M1091.35 131.929C1090.53 131.929 1089.86 131.266 1089.86 130.442C1089.86 129.625 1090.53 128.955 1091.35 128.955C1092.17 128.955 1092.84 129.618 1092.84 130.442C1092.84 131.258 1092.17 131.929 1091.35 131.929Z" fill="#735B5B"></path> <path d="M1105.32 131.929C1104.5 131.929 1103.83 131.266 1103.83 130.442C1103.83 129.625 1104.5 128.955 1105.32 128.955C1106.14 128.955 1106.81 129.618 1106.81 130.442C1106.81 131.258 1106.14 131.929 1105.32 131.929Z" fill="#735B5B"></path> <path d="M1035.49 144.67C1034.67 144.67 1034 144.008 1034 143.184C1034 142.367 1034.66 141.697 1035.49 141.697C1036.31 141.697 1036.97 142.359 1036.97 143.184C1036.97 144 1036.3 144.67 1035.49 144.67Z" fill="#735B5B"></path> <path d="M1049.46 144.67C1048.64 144.67 1047.97 144.008 1047.97 143.184C1047.97 142.367 1048.63 141.697 1049.46 141.697C1050.27 141.697 1050.94 142.359 1050.94 143.184C1050.93 144 1050.27 144.67 1049.46 144.67Z" fill="#735B5B"></path> <path d="M1063.42 144.67C1062.6 144.67 1061.93 144.008 1061.93 143.184C1061.93 142.367 1062.59 141.697 1063.42 141.697C1064.23 141.697 1064.9 142.359 1064.9 143.184C1064.9 144 1064.24 144.67 1063.42 144.67Z" fill="#735B5B"></path> <path d="M1077.39 144.67C1076.57 144.67 1075.9 144.008 1075.9 143.184C1075.9 142.367 1076.56 141.697 1077.39 141.697C1078.2 141.697 1078.87 142.359 1078.87 143.184C1078.87 144 1078.2 144.67 1077.39 144.67Z" fill="#735B5B"></path> <path d="M1091.35 144.67C1090.53 144.67 1089.86 144.008 1089.86 143.184C1089.86 142.367 1090.53 141.697 1091.35 141.697C1092.17 141.697 1092.84 142.359 1092.84 143.184C1092.84 144 1092.17 144.67 1091.35 144.67Z" fill="#735B5B"></path> <path d="M1105.32 144.67C1104.5 144.67 1103.83 144.008 1103.83 143.184C1103.83 142.367 1104.5 141.697 1105.32 141.697C1106.14 141.697 1106.81 142.359 1106.81 143.184C1106.81 144 1106.14 144.67 1105.32 144.67Z" fill="#735B5B"></path> <path d="M1035.49 157.405C1034.67 157.405 1034 156.742 1034 155.918C1034 155.101 1034.66 154.431 1035.49 154.431C1036.31 154.431 1036.97 155.093 1036.97 155.918C1036.97 156.742 1036.3 157.405 1035.49 157.405Z" fill="#735B5B"></path> <path d="M1049.46 157.405C1048.64 157.405 1047.97 156.742 1047.97 155.918C1047.97 155.101 1048.63 154.431 1049.46 154.431C1050.27 154.431 1050.94 155.093 1050.94 155.918C1050.93 156.742 1050.27 157.405 1049.46 157.405Z" fill="#735B5B"></path> <path d="M1063.42 157.405C1062.6 157.405 1061.93 156.742 1061.93 155.918C1061.93 155.101 1062.59 154.431 1063.42 154.431C1064.23 154.431 1064.9 155.093 1064.9 155.918C1064.9 156.742 1064.24 157.405 1063.42 157.405Z" fill="#735B5B"></path> <path d="M1077.39 157.405C1076.57 157.405 1075.9 156.742 1075.9 155.918C1075.9 155.101 1076.56 154.431 1077.39 154.431C1078.2 154.431 1078.87 155.093 1078.87 155.918C1078.87 156.742 1078.2 157.405 1077.39 157.405Z" fill="#735B5B"></path> <path d="M1091.35 157.405C1090.53 157.405 1089.86 156.742 1089.86 155.918C1089.86 155.101 1090.53 154.431 1091.35 154.431C1092.17 154.431 1092.84 155.093 1092.84 155.918C1092.84 156.742 1092.17 157.405 1091.35 157.405Z" fill="#735B5B"></path> <path d="M1105.32 157.405C1104.5 157.405 1103.83 156.742 1103.83 155.918C1103.83 155.101 1104.5 154.431 1105.32 154.431C1106.14 154.431 1106.81 155.093 1106.81 155.918C1106.81 156.742 1106.14 157.405 1105.32 157.405Z" fill="#735B5B"></path> <path d="M1035.49 170.146C1034.67 170.146 1034 169.484 1034 168.66C1034 167.843 1034.66 167.173 1035.49 167.173C1036.31 167.173 1036.97 167.835 1036.97 168.66C1036.97 169.476 1036.3 170.146 1035.49 170.146Z" fill="#735B5B"></path> <path d="M1049.46 170.146C1048.64 170.146 1047.97 169.484 1047.97 168.66C1047.97 167.843 1048.63 167.173 1049.46 167.173C1050.27 167.173 1050.94 167.835 1050.94 168.66C1050.93 169.476 1050.27 170.146 1049.46 170.146Z" fill="#735B5B"></path> <path d="M1063.42 170.146C1062.6 170.146 1061.93 169.484 1061.93 168.66C1061.93 167.843 1062.59 167.173 1063.42 167.173C1064.23 167.173 1064.9 167.835 1064.9 168.66C1064.9 169.476 1064.24 170.146 1063.42 170.146Z" fill="#735B5B"></path> <path d="M1077.39 170.146C1076.57 170.146 1075.9 169.484 1075.9 168.66C1075.9 167.843 1076.56 167.173 1077.39 167.173C1078.2 167.173 1078.87 167.835 1078.87 168.66C1078.87 169.476 1078.2 170.146 1077.39 170.146Z" fill="#735B5B"></path> <path d="M1091.35 170.146C1090.53 170.146 1089.86 169.484 1089.86 168.66C1089.86 167.843 1090.53 167.173 1091.35 167.173C1092.17 167.173 1092.84 167.835 1092.84 168.66C1092.84 169.476 1092.17 170.146 1091.35 170.146Z" fill="#735B5B"></path> <path d="M1105.32 170.146C1104.5 170.146 1103.83 169.484 1103.83 168.66C1103.83 167.843 1104.5 167.173 1105.32 167.173C1106.14 167.173 1106.81 167.835 1106.81 168.66C1106.81 169.476 1106.14 170.146 1105.32 170.146Z" fill="#735B5B"></path> <path d="M1035.49 182.888C1034.67 182.888 1034 182.226 1034 181.401C1034 180.585 1034.66 179.915 1035.49 179.915C1036.31 179.915 1036.97 180.577 1036.97 181.401C1036.97 182.218 1036.3 182.888 1035.49 182.888Z" fill="#735B5B"></path> <path d="M1049.46 182.888C1048.64 182.888 1047.97 182.226 1047.97 181.401C1047.97 180.585 1048.63 179.915 1049.46 179.915C1050.27 179.915 1050.94 180.577 1050.94 181.401C1050.93 182.218 1050.27 182.888 1049.46 182.888Z" fill="#735B5B"></path> <path d="M1063.42 182.888C1062.6 182.888 1061.93 182.226 1061.93 181.401C1061.93 180.585 1062.59 179.915 1063.42 179.915C1064.23 179.915 1064.9 180.577 1064.9 181.401C1064.9 182.218 1064.24 182.888 1063.42 182.888Z" fill="#735B5B"></path> <path d="M1077.39 182.888C1076.57 182.888 1075.9 182.226 1075.9 181.401C1075.9 180.585 1076.56 179.915 1077.39 179.915C1078.2 179.915 1078.87 180.577 1078.87 181.401C1078.87 182.218 1078.2 182.888 1077.39 182.888Z" fill="#735B5B"></path> <path d="M1091.35 182.888C1090.53 182.888 1089.86 182.226 1089.86 181.401C1089.86 180.585 1090.53 179.915 1091.35 179.915C1092.17 179.915 1092.84 180.577 1092.84 181.401C1092.84 182.218 1092.17 182.888 1091.35 182.888Z" fill="#735B5B"></path> <path d="M1105.32 182.888C1104.5 182.888 1103.83 182.226 1103.83 181.401C1103.83 180.585 1104.5 179.915 1105.32 179.915C1106.14 179.915 1106.81 180.577 1106.81 181.401C1106.81 182.218 1106.14 182.888 1105.32 182.888Z" fill="#735B5B"></path> <path d="M1035.49 195.622C1034.67 195.622 1034 194.96 1034 194.136C1034 193.319 1034.66 192.649 1035.49 192.649C1036.31 192.649 1036.97 193.311 1036.97 194.136C1036.97 194.96 1036.3 195.622 1035.49 195.622Z" fill="#735B5B"></path> <path d="M1049.46 195.622C1048.64 195.622 1047.97 194.96 1047.97 194.136C1047.97 193.319 1048.63 192.649 1049.46 192.649C1050.27 192.649 1050.94 193.311 1050.94 194.136C1050.93 194.96 1050.27 195.622 1049.46 195.622Z" fill="#735B5B"></path> <path d="M1063.42 195.622C1062.6 195.622 1061.93 194.96 1061.93 194.136C1061.93 193.319 1062.59 192.649 1063.42 192.649C1064.23 192.649 1064.9 193.311 1064.9 194.136C1064.9 194.96 1064.24 195.622 1063.42 195.622Z" fill="#735B5B"></path> <path d="M1077.39 195.622C1076.57 195.622 1075.9 194.96 1075.9 194.136C1075.9 193.319 1076.56 192.649 1077.39 192.649C1078.2 192.649 1078.87 193.311 1078.87 194.136C1078.87 194.96 1078.2 195.622 1077.39 195.622Z" fill="#735B5B"></path> <path d="M1091.35 195.622C1090.53 195.622 1089.86 194.96 1089.86 194.136C1089.86 193.319 1090.53 192.649 1091.35 192.649C1092.17 192.649 1092.84 193.311 1092.84 194.136C1092.84 194.96 1092.17 195.622 1091.35 195.622Z" fill="#735B5B"></path> <path d="M1105.32 195.622C1104.5 195.622 1103.83 194.96 1103.83 194.136C1103.83 193.319 1104.5 192.649 1105.32 192.649C1106.14 192.649 1106.81 193.311 1106.81 194.136C1106.81 194.96 1106.14 195.622 1105.32 195.622Z" fill="#735B5B"></path> <path d="M1119.43 57.9736C1118.61 57.9736 1117.94 57.3111 1117.94 56.4868C1117.94 55.6702 1118.6 55 1119.43 55C1120.25 55 1120.91 55.6625 1120.91 56.4868C1120.91 57.3034 1120.24 57.9736 1119.43 57.9736Z" fill="#735B5B"></path> <path d="M1133.4 57.9736C1132.58 57.9736 1131.91 57.3111 1131.91 56.4868C1131.91 55.6702 1132.57 55 1133.4 55C1134.21 55 1134.88 55.6625 1134.88 56.4868C1134.88 57.3034 1134.21 57.9736 1133.4 57.9736Z" fill="#735B5B"></path> <path d="M1147.36 57.9736C1146.54 57.9736 1145.87 57.3111 1145.87 56.4868C1145.87 55.6702 1146.54 55 1147.36 55C1148.18 55 1148.85 55.6625 1148.85 56.4868C1148.85 57.3034 1148.18 57.9736 1147.36 57.9736Z" fill="#735B5B"></path> <path d="M1161.33 57.9736C1160.51 57.9736 1159.84 57.3111 1159.84 56.4868C1159.84 55.6702 1160.51 55 1161.33 55C1162.15 55 1162.82 55.6625 1162.82 56.4868C1162.82 57.3034 1162.15 57.9736 1161.33 57.9736Z" fill="#735B5B"></path> <path d="M1175.29 57.9736C1174.47 57.9736 1173.8 57.3111 1173.8 56.4868C1173.8 55.6702 1174.47 55 1175.29 55C1176.11 55 1176.78 55.6625 1176.78 56.4868C1176.78 57.3034 1176.12 57.9736 1175.29 57.9736Z" fill="#735B5B"></path> <path d="M1189.26 57.9736C1188.44 57.9736 1187.77 57.3111 1187.77 56.4868C1187.77 55.6702 1188.44 55 1189.26 55C1190.08 55 1190.75 55.6625 1190.75 56.4868C1190.75 57.3034 1190.08 57.9736 1189.26 57.9736Z" fill="#735B5B"></path> <path d="M1119.43 70.7154C1118.61 70.7154 1117.94 70.0529 1117.94 69.2286C1117.94 68.412 1118.6 67.7418 1119.43 67.7418C1120.25 67.7418 1120.91 68.4043 1120.91 69.2286C1120.91 70.0452 1120.24 70.7154 1119.43 70.7154Z" fill="#735B5B"></path> <path d="M1133.4 70.7154C1132.58 70.7154 1131.91 70.0529 1131.91 69.2286C1131.91 68.412 1132.57 67.7418 1133.4 67.7418C1134.21 67.7418 1134.88 68.4043 1134.88 69.2286C1134.88 70.0452 1134.21 70.7154 1133.4 70.7154Z" fill="#735B5B"></path> <path d="M1147.36 70.7154C1146.54 70.7154 1145.87 70.0529 1145.87 69.2286C1145.87 68.412 1146.54 67.7418 1147.36 67.7418C1148.18 67.7418 1148.85 68.4043 1148.85 69.2286C1148.85 70.0452 1148.18 70.7154 1147.36 70.7154Z" fill="#735B5B"></path> <path d="M1161.33 70.7154C1160.51 70.7154 1159.84 70.0529 1159.84 69.2286C1159.84 68.412 1160.51 67.7418 1161.33 67.7418C1162.15 67.7418 1162.82 68.4043 1162.82 69.2286C1162.82 70.0452 1162.15 70.7154 1161.33 70.7154Z" fill="#735B5B"></path> <path d="M1175.29 70.7154C1174.47 70.7154 1173.8 70.0529 1173.8 69.2286C1173.8 68.412 1174.47 67.7418 1175.29 67.7418C1176.11 67.7418 1176.78 68.4043 1176.78 69.2286C1176.78 70.0452 1176.12 70.7154 1175.29 70.7154Z" fill="#735B5B"></path> <path d="M1189.26 70.7154C1188.44 70.7154 1187.77 70.0529 1187.77 69.2286C1187.77 68.412 1188.44 67.7418 1189.26 67.7418C1190.08 67.7418 1190.75 68.4043 1190.75 69.2286C1190.75 70.0452 1190.08 70.7154 1189.26 70.7154Z" fill="#735B5B"></path> <path d="M1119.43 83.4496C1118.61 83.4496 1117.94 82.787 1117.94 81.9628C1117.94 81.1462 1118.6 80.476 1119.43 80.476C1120.25 80.476 1120.91 81.1385 1120.91 81.9628C1120.91 82.787 1120.24 83.4496 1119.43 83.4496Z" fill="#735B5B"></path> <path d="M1133.4 83.4496C1132.58 83.4496 1131.91 82.787 1131.91 81.9628C1131.91 81.1462 1132.57 80.476 1133.4 80.476C1134.21 80.476 1134.88 81.1385 1134.88 81.9628C1134.88 82.787 1134.21 83.4496 1133.4 83.4496Z" fill="#735B5B"></path> <path d="M1147.36 83.4496C1146.54 83.4496 1145.87 82.787 1145.87 81.9628C1145.87 81.1462 1146.54 80.476 1147.36 80.476C1148.18 80.476 1148.85 81.1385 1148.85 81.9628C1148.85 82.787 1148.18 83.4496 1147.36 83.4496Z" fill="#735B5B"></path> <path d="M1161.33 83.4496C1160.51 83.4496 1159.84 82.787 1159.84 81.9628C1159.84 81.1462 1160.51 80.476 1161.33 80.476C1162.15 80.476 1162.82 81.1385 1162.82 81.9628C1162.82 82.787 1162.15 83.4496 1161.33 83.4496Z" fill="#735B5B"></path> <path d="M1175.29 83.4496C1174.47 83.4496 1173.8 82.787 1173.8 81.9628C1173.8 81.1462 1174.47 80.476 1175.29 80.476C1176.11 80.476 1176.78 81.1385 1176.78 81.9628C1176.78 82.787 1176.12 83.4496 1175.29 83.4496Z" fill="#735B5B"></path> <path d="M1189.26 83.4496C1188.44 83.4496 1187.77 82.787 1187.77 81.9628C1187.77 81.1462 1188.44 80.476 1189.26 80.476C1190.08 80.476 1190.75 81.1385 1190.75 81.9628C1190.75 82.787 1190.08 83.4496 1189.26 83.4496Z" fill="#735B5B"></path> <path d="M1119.43 96.1914C1118.61 96.1914 1117.94 95.5289 1117.94 94.7046C1117.94 93.888 1118.6 93.2178 1119.43 93.2178C1120.25 93.2178 1120.91 93.8803 1120.91 94.7046C1120.91 95.5212 1120.24 96.1914 1119.43 96.1914Z" fill="#735B5B"></path> <path d="M1133.4 96.1914C1132.58 96.1914 1131.91 95.5289 1131.91 94.7046C1131.91 93.888 1132.57 93.2178 1133.4 93.2178C1134.21 93.2178 1134.88 93.8803 1134.88 94.7046C1134.88 95.5212 1134.21 96.1914 1133.4 96.1914Z" fill="#735B5B"></path> <path d="M1147.36 96.1914C1146.54 96.1914 1145.87 95.5289 1145.87 94.7046C1145.87 93.888 1146.54 93.2178 1147.36 93.2178C1148.18 93.2178 1148.85 93.8803 1148.85 94.7046C1148.85 95.5212 1148.18 96.1914 1147.36 96.1914Z" fill="#735B5B"></path> <path d="M1161.33 96.1914C1160.51 96.1914 1159.84 95.5289 1159.84 94.7046C1159.84 93.888 1160.51 93.2178 1161.33 93.2178C1162.15 93.2178 1162.82 93.8803 1162.82 94.7046C1162.82 95.5212 1162.15 96.1914 1161.33 96.1914Z" fill="#735B5B"></path> <path d="M1175.29 96.1914C1174.47 96.1914 1173.8 95.5289 1173.8 94.7046C1173.8 93.888 1174.47 93.2178 1175.29 93.2178C1176.11 93.2178 1176.78 93.8803 1176.78 94.7046C1176.78 95.5212 1176.12 96.1914 1175.29 96.1914Z" fill="#735B5B"></path> <path d="M1189.26 96.1914C1188.44 96.1914 1187.77 95.5289 1187.77 94.7046C1187.77 93.888 1188.44 93.2178 1189.26 93.2178C1190.08 93.2178 1190.75 93.8803 1190.75 94.7046C1190.75 95.5212 1190.08 96.1914 1189.26 96.1914Z" fill="#735B5B"></path> <path d="M1119.43 108.933C1118.61 108.933 1117.94 108.271 1117.94 107.446C1117.94 106.63 1118.6 105.96 1119.43 105.96C1120.25 105.96 1120.91 106.622 1120.91 107.446C1120.91 108.263 1120.24 108.933 1119.43 108.933Z" fill="#735B5B"></path> <path d="M1133.4 108.933C1132.58 108.933 1131.91 108.271 1131.91 107.446C1131.91 106.63 1132.57 105.96 1133.4 105.96C1134.21 105.96 1134.88 106.622 1134.88 107.446C1134.88 108.263 1134.21 108.933 1133.4 108.933Z" fill="#735B5B"></path> <path d="M1147.36 108.933C1146.54 108.933 1145.87 108.271 1145.87 107.446C1145.87 106.63 1146.54 105.96 1147.36 105.96C1148.18 105.96 1148.85 106.622 1148.85 107.446C1148.85 108.263 1148.18 108.933 1147.36 108.933Z" fill="#735B5B"></path> <path d="M1161.33 108.933C1160.51 108.933 1159.84 108.271 1159.84 107.446C1159.84 106.63 1160.51 105.96 1161.33 105.96C1162.15 105.96 1162.82 106.622 1162.82 107.446C1162.82 108.263 1162.15 108.933 1161.33 108.933Z" fill="#735B5B"></path> <path d="M1175.29 108.933C1174.47 108.933 1173.8 108.271 1173.8 107.446C1173.8 106.63 1174.47 105.96 1175.29 105.96C1176.11 105.96 1176.78 106.622 1176.78 107.446C1176.78 108.263 1176.12 108.933 1175.29 108.933Z" fill="#735B5B"></path> <path d="M1189.26 108.933C1188.44 108.933 1187.77 108.271 1187.77 107.446C1187.77 106.63 1188.44 105.96 1189.26 105.96C1190.08 105.96 1190.75 106.622 1190.75 107.446C1190.75 108.263 1190.08 108.933 1189.26 108.933Z" fill="#735B5B"></path> <path d="M1119.43 121.667C1118.61 121.667 1117.94 121.005 1117.94 120.181C1117.94 119.364 1118.6 118.694 1119.43 118.694C1120.25 118.694 1120.91 119.356 1120.91 120.181C1120.91 121.005 1120.24 121.667 1119.43 121.667Z" fill="#735B5B"></path> <path d="M1133.4 121.667C1132.58 121.667 1131.91 121.005 1131.91 120.181C1131.91 119.364 1132.57 118.694 1133.4 118.694C1134.21 118.694 1134.88 119.356 1134.88 120.181C1134.88 121.005 1134.21 121.667 1133.4 121.667Z" fill="#735B5B"></path> <path d="M1147.36 121.667C1146.54 121.667 1145.87 121.005 1145.87 120.181C1145.87 119.364 1146.54 118.694 1147.36 118.694C1148.18 118.694 1148.85 119.356 1148.85 120.181C1148.85 121.005 1148.18 121.667 1147.36 121.667Z" fill="#735B5B"></path> <path d="M1161.33 121.667C1160.51 121.667 1159.84 121.005 1159.84 120.181C1159.84 119.364 1160.51 118.694 1161.33 118.694C1162.15 118.694 1162.82 119.356 1162.82 120.181C1162.82 121.005 1162.15 121.667 1161.33 121.667Z" fill="#735B5B"></path> <path d="M1175.29 121.667C1174.47 121.667 1173.8 121.005 1173.8 120.181C1173.8 119.364 1174.47 118.694 1175.29 118.694C1176.11 118.694 1176.78 119.356 1176.78 120.181C1176.78 121.005 1176.12 121.667 1175.29 121.667Z" fill="#735B5B"></path> <path d="M1189.26 121.667C1188.44 121.667 1187.77 121.005 1187.77 120.181C1187.77 119.364 1188.44 118.694 1189.26 118.694C1190.08 118.694 1190.75 119.356 1190.75 120.181C1190.75 121.005 1190.08 121.667 1189.26 121.667Z" fill="#735B5B"></path> <path d="M1119.43 131.929C1118.61 131.929 1117.94 131.266 1117.94 130.442C1117.94 129.625 1118.6 128.955 1119.43 128.955C1120.25 128.955 1120.91 129.618 1120.91 130.442C1120.91 131.258 1120.24 131.929 1119.43 131.929Z" fill="#735B5B"></path> <path d="M1133.4 131.929C1132.58 131.929 1131.91 131.266 1131.91 130.442C1131.91 129.625 1132.57 128.955 1133.4 128.955C1134.21 128.955 1134.88 129.618 1134.88 130.442C1134.88 131.258 1134.21 131.929 1133.4 131.929Z" fill="#735B5B"></path> <path d="M1147.36 131.929C1146.54 131.929 1145.87 131.266 1145.87 130.442C1145.87 129.625 1146.54 128.955 1147.36 128.955C1148.18 128.955 1148.85 129.618 1148.85 130.442C1148.85 131.258 1148.18 131.929 1147.36 131.929Z" fill="#735B5B"></path> <path d="M1161.33 131.929C1160.51 131.929 1159.84 131.266 1159.84 130.442C1159.84 129.625 1160.51 128.955 1161.33 128.955C1162.15 128.955 1162.82 129.618 1162.82 130.442C1162.82 131.258 1162.15 131.929 1161.33 131.929Z" fill="#735B5B"></path> <path d="M1175.29 131.929C1174.47 131.929 1173.8 131.266 1173.8 130.442C1173.8 129.625 1174.47 128.955 1175.29 128.955C1176.11 128.955 1176.78 129.618 1176.78 130.442C1176.78 131.258 1176.12 131.929 1175.29 131.929Z" fill="#735B5B"></path> <path d="M1189.26 131.929C1188.44 131.929 1187.77 131.266 1187.77 130.442C1187.77 129.625 1188.44 128.955 1189.26 128.955C1190.08 128.955 1190.75 129.618 1190.75 130.442C1190.75 131.258 1190.08 131.929 1189.26 131.929Z" fill="#735B5B"></path> <path d="M1119.43 144.67C1118.61 144.67 1117.94 144.008 1117.94 143.184C1117.94 142.367 1118.6 141.697 1119.43 141.697C1120.25 141.697 1120.91 142.359 1120.91 143.184C1120.91 144 1120.24 144.67 1119.43 144.67Z" fill="#735B5B"></path> <path d="M1133.4 144.67C1132.58 144.67 1131.91 144.008 1131.91 143.184C1131.91 142.367 1132.57 141.697 1133.4 141.697C1134.21 141.697 1134.88 142.359 1134.88 143.184C1134.88 144 1134.21 144.67 1133.4 144.67Z" fill="#735B5B"></path> <path d="M1147.36 144.67C1146.54 144.67 1145.87 144.008 1145.87 143.184C1145.87 142.367 1146.54 141.697 1147.36 141.697C1148.18 141.697 1148.85 142.359 1148.85 143.184C1148.85 144 1148.18 144.67 1147.36 144.67Z" fill="#735B5B"></path> <path d="M1161.33 144.67C1160.51 144.67 1159.84 144.008 1159.84 143.184C1159.84 142.367 1160.51 141.697 1161.33 141.697C1162.15 141.697 1162.82 142.359 1162.82 143.184C1162.82 144 1162.15 144.67 1161.33 144.67Z" fill="#735B5B"></path> <path d="M1175.29 144.67C1174.47 144.67 1173.8 144.008 1173.8 143.184C1173.8 142.367 1174.47 141.697 1175.29 141.697C1176.11 141.697 1176.78 142.359 1176.78 143.184C1176.78 144 1176.12 144.67 1175.29 144.67Z" fill="#735B5B"></path> <path d="M1189.26 144.67C1188.44 144.67 1187.77 144.008 1187.77 143.184C1187.77 142.367 1188.44 141.697 1189.26 141.697C1190.08 141.697 1190.75 142.359 1190.75 143.184C1190.75 144 1190.08 144.67 1189.26 144.67Z" fill="#735B5B"></path> <path d="M1119.43 157.405C1118.61 157.405 1117.94 156.742 1117.94 155.918C1117.94 155.101 1118.6 154.431 1119.43 154.431C1120.25 154.431 1120.91 155.093 1120.91 155.918C1120.91 156.742 1120.24 157.405 1119.43 157.405Z" fill="#735B5B"></path> <path d="M1133.4 157.405C1132.58 157.405 1131.91 156.742 1131.91 155.918C1131.91 155.101 1132.57 154.431 1133.4 154.431C1134.21 154.431 1134.88 155.093 1134.88 155.918C1134.88 156.742 1134.21 157.405 1133.4 157.405Z" fill="#735B5B"></path> <path d="M1147.36 157.405C1146.54 157.405 1145.87 156.742 1145.87 155.918C1145.87 155.101 1146.54 154.431 1147.36 154.431C1148.18 154.431 1148.85 155.093 1148.85 155.918C1148.85 156.742 1148.18 157.405 1147.36 157.405Z" fill="#735B5B"></path> <path d="M1161.33 157.405C1160.51 157.405 1159.84 156.742 1159.84 155.918C1159.84 155.101 1160.51 154.431 1161.33 154.431C1162.15 154.431 1162.82 155.093 1162.82 155.918C1162.82 156.742 1162.15 157.405 1161.33 157.405Z" fill="#735B5B"></path> <path d="M1175.29 157.405C1174.47 157.405 1173.8 156.742 1173.8 155.918C1173.8 155.101 1174.47 154.431 1175.29 154.431C1176.11 154.431 1176.78 155.093 1176.78 155.918C1176.78 156.742 1176.12 157.405 1175.29 157.405Z" fill="#735B5B"></path> <path d="M1189.26 157.405C1188.44 157.405 1187.77 156.742 1187.77 155.918C1187.77 155.101 1188.44 154.431 1189.26 154.431C1190.08 154.431 1190.75 155.093 1190.75 155.918C1190.75 156.742 1190.08 157.405 1189.26 157.405Z" fill="#735B5B"></path> <path d="M1119.43 170.146C1118.61 170.146 1117.94 169.484 1117.94 168.66C1117.94 167.843 1118.6 167.173 1119.43 167.173C1120.25 167.173 1120.91 167.835 1120.91 168.66C1120.91 169.476 1120.24 170.146 1119.43 170.146Z" fill="#735B5B"></path> <path d="M1133.4 170.146C1132.58 170.146 1131.91 169.484 1131.91 168.66C1131.91 167.843 1132.57 167.173 1133.4 167.173C1134.21 167.173 1134.88 167.835 1134.88 168.66C1134.88 169.476 1134.21 170.146 1133.4 170.146Z" fill="#735B5B"></path> <path d="M1147.36 170.146C1146.54 170.146 1145.87 169.484 1145.87 168.66C1145.87 167.843 1146.54 167.173 1147.36 167.173C1148.18 167.173 1148.85 167.835 1148.85 168.66C1148.85 169.476 1148.18 170.146 1147.36 170.146Z" fill="#735B5B"></path> <path d="M1161.33 170.146C1160.51 170.146 1159.84 169.484 1159.84 168.66C1159.84 167.843 1160.51 167.173 1161.33 167.173C1162.15 167.173 1162.82 167.835 1162.82 168.66C1162.82 169.476 1162.15 170.146 1161.33 170.146Z" fill="#735B5B"></path> <path d="M1175.29 170.146C1174.47 170.146 1173.8 169.484 1173.8 168.66C1173.8 167.843 1174.47 167.173 1175.29 167.173C1176.11 167.173 1176.78 167.835 1176.78 168.66C1176.78 169.476 1176.12 170.146 1175.29 170.146Z" fill="#735B5B"></path> <path d="M1189.26 170.146C1188.44 170.146 1187.77 169.484 1187.77 168.66C1187.77 167.843 1188.44 167.173 1189.26 167.173C1190.08 167.173 1190.75 167.835 1190.75 168.66C1190.75 169.476 1190.08 170.146 1189.26 170.146Z" fill="#735B5B"></path> <path d="M1119.43 182.888C1118.61 182.888 1117.94 182.226 1117.94 181.401C1117.94 180.585 1118.6 179.915 1119.43 179.915C1120.25 179.915 1120.91 180.577 1120.91 181.401C1120.91 182.218 1120.24 182.888 1119.43 182.888Z" fill="#735B5B"></path> <path d="M1133.4 182.888C1132.58 182.888 1131.91 182.226 1131.91 181.401C1131.91 180.585 1132.57 179.915 1133.4 179.915C1134.21 179.915 1134.88 180.577 1134.88 181.401C1134.88 182.218 1134.21 182.888 1133.4 182.888Z" fill="#735B5B"></path> <path d="M1147.36 182.888C1146.54 182.888 1145.87 182.226 1145.87 181.401C1145.87 180.585 1146.54 179.915 1147.36 179.915C1148.18 179.915 1148.85 180.577 1148.85 181.401C1148.85 182.218 1148.18 182.888 1147.36 182.888Z" fill="#735B5B"></path> <path d="M1161.33 182.888C1160.51 182.888 1159.84 182.226 1159.84 181.401C1159.84 180.585 1160.51 179.915 1161.33 179.915C1162.15 179.915 1162.82 180.577 1162.82 181.401C1162.82 182.218 1162.15 182.888 1161.33 182.888Z" fill="#735B5B"></path> <path d="M1175.29 182.888C1174.47 182.888 1173.8 182.226 1173.8 181.401C1173.8 180.585 1174.47 179.915 1175.29 179.915C1176.11 179.915 1176.78 180.577 1176.78 181.401C1176.78 182.218 1176.12 182.888 1175.29 182.888Z" fill="#735B5B"></path> <path d="M1189.26 182.888C1188.44 182.888 1187.77 182.226 1187.77 181.401C1187.77 180.585 1188.44 179.915 1189.26 179.915C1190.08 179.915 1190.75 180.577 1190.75 181.401C1190.75 182.218 1190.08 182.888 1189.26 182.888Z" fill="#735B5B"></path> <path d="M1119.43 195.622C1118.61 195.622 1117.94 194.96 1117.94 194.136C1117.94 193.319 1118.6 192.649 1119.43 192.649C1120.25 192.649 1120.91 193.311 1120.91 194.136C1120.91 194.96 1120.24 195.622 1119.43 195.622Z" fill="#735B5B"></path> <path d="M1133.4 195.622C1132.58 195.622 1131.91 194.96 1131.91 194.136C1131.91 193.319 1132.57 192.649 1133.4 192.649C1134.21 192.649 1134.88 193.311 1134.88 194.136C1134.88 194.96 1134.21 195.622 1133.4 195.622Z" fill="#735B5B"></path> <path d="M1147.36 195.622C1146.54 195.622 1145.87 194.96 1145.87 194.136C1145.87 193.319 1146.54 192.649 1147.36 192.649C1148.18 192.649 1148.85 193.311 1148.85 194.136C1148.85 194.96 1148.18 195.622 1147.36 195.622Z" fill="#735B5B"></path> <path d="M1161.33 195.622C1160.51 195.622 1159.84 194.96 1159.84 194.136C1159.84 193.319 1160.51 192.649 1161.33 192.649C1162.15 192.649 1162.82 193.311 1162.82 194.136C1162.82 194.96 1162.15 195.622 1161.33 195.622Z" fill="#735B5B"></path> <path d="M1175.29 195.622C1174.47 195.622 1173.8 194.96 1173.8 194.136C1173.8 193.319 1174.47 192.649 1175.29 192.649C1176.11 192.649 1176.78 193.311 1176.78 194.136C1176.78 194.96 1176.12 195.622 1175.29 195.622Z" fill="#735B5B"></path> <path d="M1189.26 195.622C1188.44 195.622 1187.77 194.96 1187.77 194.136C1187.77 193.319 1188.44 192.649 1189.26 192.649C1190.08 192.649 1190.75 193.311 1190.75 194.136C1190.75 194.96 1190.08 195.622 1189.26 195.622Z" fill="#735B5B"></path> </g> <defs> <linearGradient id="paint0_linear_189_576" x1="1043.24" y1="228.261" x2="1186.81" y2="356.732" gradientUnits="userSpaceOnUse"> <stop stop-color="#F4EAE4"></stop> <stop offset="0.412689" stop-color="#DDA2A1"></stop> <stop offset="0.74746" stop-color="#CA6B6B"></stop> </linearGradient> </defs> </svg> 