<?xml version="1.0" encoding="UTF-8"?> <svg xmlns="http://www.w3.org/2000/svg" width="228" height="252" viewBox="0 0 228 252" fill="none"> <g filter="url(#filter0_f_189_579)"> <path fill-rule="evenodd" clip-rule="evenodd" d="M111.394 193.132C93.8687 192.543 75.0168 197.042 61.356 184.703C46.6539 171.424 38.6612 149.67 39.8711 128.529C41.0242 108.382 54.129 92.7654 67.3979 79.1379C79.9106 66.2868 94.4494 55.8531 111.394 55.0725C129.026 54.2603 147.361 60.1756 159.156 74.9111C170.509 89.0952 169.291 109.487 170.192 128.529C171.175 149.283 177.747 173.629 164.517 188.165C151.315 202.67 129.858 193.751 111.394 193.132Z" fill="url(#paint0_linear_189_579)" fill-opacity="0.65"></path> </g> <defs> <filter id="filter0_f_189_579" x="-15.2489" y="-0.000488281" width="242.938" height="251.41" filterUnits="userSpaceOnUse" color-interpolation-filters="sRGB"> <feFlood flood-opacity="0" result="BackgroundImageFix"></feFlood> <feBlend mode="normal" in="SourceGraphic" in2="BackgroundImageFix" result="shape"></feBlend> <feGaussianBlur stdDeviation="27.5" result="effect1_foregroundBlur_189_579"></feGaussianBlur> </filter> <linearGradient id="paint0_linear_189_579" x1="162.811" y1="193.75" x2="62.5399" y2="77.0581" gradientUnits="userSpaceOnUse"> <stop stop-color="#6D9A74"></stop> <stop offset="0.510514" stop-color="#7EAA85"></stop> <stop offset="1" stop-color="#F7FEF8"></stop> </linearGradient> </defs> </svg> 