<?xml version="1.0" encoding="UTF-8"?> <svg xmlns="http://www.w3.org/2000/svg" width="260" height="69" viewBox="0 0 260 69" fill="none"> <path d="M78.322 33.588L75.726 35.458C76.078 36.1913 76.5693 36.866 77.2 37.482C77.8307 38.098 78.5713 38.5893 79.422 38.956C80.2873 39.308 81.2187 39.484 82.216 39.484C82.9347 39.484 83.6313 39.374 84.306 39.154C84.9953 38.9487 85.604 38.6407 86.132 38.23C86.6747 37.8193 87.1 37.3133 87.408 36.712C87.7307 36.096 87.892 35.3993 87.892 34.622C87.892 33.9767 87.7893 33.4047 87.584 32.906C87.3787 32.4073 87.0927 31.9673 86.726 31.586C86.374 31.2047 85.9633 30.882 85.494 30.618C85.0247 30.3393 84.5187 30.0973 83.976 29.892C83.2573 29.6427 82.6413 29.408 82.128 29.188C81.6293 28.968 81.2407 28.726 80.962 28.462C80.698 28.198 80.566 27.89 80.566 27.538C80.566 27.2007 80.7053 26.922 80.984 26.702C81.2627 26.4673 81.666 26.35 82.194 26.35C82.59 26.35 82.9567 26.4307 83.294 26.592C83.646 26.7387 83.9613 26.9513 84.24 27.23C84.5333 27.494 84.79 27.8093 85.01 28.176L87.848 26.592C87.584 26.064 87.2027 25.5433 86.704 25.03C86.2053 24.5167 85.5747 24.0913 84.812 23.754C84.064 23.4167 83.1767 23.248 82.15 23.248C81.1527 23.248 80.2433 23.424 79.422 23.776C78.6153 24.1133 77.97 24.612 77.486 25.272C77.0167 25.932 76.782 26.7167 76.782 27.626C76.782 28.3887 76.9213 29.0413 77.2 29.584C77.4787 30.112 77.8307 30.5667 78.256 30.948C78.6813 31.3147 79.1287 31.6153 79.598 31.85C80.082 32.0847 80.5073 32.268 80.874 32.4C81.622 32.6787 82.2233 32.928 82.678 33.148C83.1327 33.368 83.4627 33.6027 83.668 33.852C83.8733 34.0867 83.976 34.402 83.976 34.798C83.976 35.2673 83.8 35.6413 83.448 35.92C83.096 36.184 82.6487 36.316 82.106 36.316C81.5927 36.316 81.1013 36.206 80.632 35.986C80.1773 35.766 79.752 35.4507 79.356 35.04C78.9747 34.6293 78.63 34.1453 78.322 33.588ZM89.718 23.6V39H93.502V23.6H89.718ZM99.9549 32.026L104.267 39H108.623L103.805 32.026H99.9549ZM96.1049 23.6V39H99.8229V23.6H96.1049ZM98.4369 26.746H101.451C101.95 26.746 102.375 26.8267 102.727 26.988C103.094 27.1493 103.372 27.384 103.563 27.692C103.754 27.9853 103.849 28.3447 103.849 28.77C103.849 29.1953 103.754 29.562 103.563 29.87C103.372 30.1633 103.094 30.3907 102.727 30.552C102.375 30.6987 101.95 30.772 101.451 30.772H98.4369V33.654H101.715C103.035 33.654 104.135 33.4413 105.015 33.016C105.895 32.5907 106.562 32.004 107.017 31.256C107.472 30.4933 107.699 29.6207 107.699 28.638C107.699 27.6407 107.472 26.768 107.017 26.02C106.562 25.2573 105.895 24.6633 105.015 24.238C104.135 23.8127 103.035 23.6 101.715 23.6H98.4369V26.746ZM109.689 23.6V39H113.473V23.6H109.689ZM115.966 23.6V33.94C115.966 34.908 116.12 35.7513 116.428 36.47C116.751 37.1887 117.191 37.7827 117.748 38.252C118.32 38.7067 118.98 39.0513 119.728 39.286C120.476 39.5207 121.283 39.638 122.148 39.638C123.013 39.638 123.82 39.5207 124.568 39.286C125.331 39.0513 125.991 38.7067 126.548 38.252C127.12 37.7827 127.56 37.1887 127.868 36.47C128.191 35.7513 128.352 34.908 128.352 33.94V23.6H124.634V33.676C124.634 34.4533 124.429 35.084 124.018 35.568C123.607 36.052 122.984 36.294 122.148 36.294C121.327 36.294 120.711 36.052 120.3 35.568C119.889 35.084 119.684 34.4533 119.684 33.676V23.6H115.966ZM132.536 33.588L129.94 35.458C130.292 36.1913 130.783 36.866 131.414 37.482C132.044 38.098 132.785 38.5893 133.636 38.956C134.501 39.308 135.432 39.484 136.43 39.484C137.148 39.484 137.845 39.374 138.52 39.154C139.209 38.9487 139.818 38.6407 140.346 38.23C140.888 37.8193 141.314 37.3133 141.622 36.712C141.944 36.096 142.106 35.3993 142.106 34.622C142.106 33.9767 142.003 33.4047 141.798 32.906C141.592 32.4073 141.306 31.9673 140.94 31.586C140.588 31.2047 140.177 30.882 139.708 30.618C139.238 30.3393 138.732 30.0973 138.19 29.892C137.471 29.6427 136.855 29.408 136.342 29.188C135.843 28.968 135.454 28.726 135.176 28.462C134.912 28.198 134.78 27.89 134.78 27.538C134.78 27.2007 134.919 26.922 135.198 26.702C135.476 26.4673 135.88 26.35 136.408 26.35C136.804 26.35 137.17 26.4307 137.508 26.592C137.86 26.7387 138.175 26.9513 138.454 27.23C138.747 27.494 139.004 27.8093 139.224 28.176L142.062 26.592C141.798 26.064 141.416 25.5433 140.918 25.03C140.419 24.5167 139.788 24.0913 139.026 23.754C138.278 23.4167 137.39 23.248 136.364 23.248C135.366 23.248 134.457 23.424 133.636 23.776C132.829 24.1133 132.184 24.612 131.7 25.272C131.23 25.932 130.996 26.7167 130.996 27.626C130.996 28.3887 131.135 29.0413 131.414 29.584C131.692 30.112 132.044 30.5667 132.47 30.948C132.895 31.3147 133.342 31.6153 133.812 31.85C134.296 32.0847 134.721 32.268 135.088 32.4C135.836 32.6787 136.437 32.928 136.892 33.148C137.346 33.368 137.676 33.6027 137.882 33.852C138.087 34.0867 138.19 34.402 138.19 34.798C138.19 35.2673 138.014 35.6413 137.662 35.92C137.31 36.184 136.862 36.316 136.32 36.316C135.806 36.316 135.315 36.206 134.846 35.986C134.391 35.766 133.966 35.4507 133.57 35.04C133.188 34.6293 132.844 34.1453 132.536 33.588ZM153.035 31.3C153.035 30.3467 153.248 29.5327 153.673 28.858C154.099 28.1833 154.656 27.67 155.345 27.318C156.049 26.966 156.819 26.79 157.655 26.79C158.389 26.79 159.034 26.8853 159.591 27.076C160.149 27.252 160.647 27.5013 161.087 27.824C161.527 28.132 161.916 28.462 162.253 28.814V24.81C161.637 24.326 160.963 23.9447 160.229 23.666C159.496 23.3873 158.565 23.248 157.435 23.248C156.203 23.248 155.067 23.4387 154.025 23.82C152.984 24.2013 152.089 24.7513 151.341 25.47C150.593 26.1887 150.014 27.0393 149.603 28.022C149.193 29.0047 148.987 30.0973 148.987 31.3C148.987 32.5027 149.193 33.5953 149.603 34.578C150.014 35.5607 150.593 36.4113 151.341 37.13C152.089 37.8487 152.984 38.3987 154.025 38.78C155.067 39.1613 156.203 39.352 157.435 39.352C158.565 39.352 159.496 39.2127 160.229 38.934C160.963 38.6553 161.637 38.274 162.253 37.79V33.786C161.916 34.138 161.527 34.468 161.087 34.776C160.647 35.084 160.149 35.3333 159.591 35.524C159.034 35.7147 158.389 35.81 157.655 35.81C156.819 35.81 156.049 35.634 155.345 35.282C154.656 34.93 154.099 34.4167 153.673 33.742C153.248 33.0527 153.035 32.2387 153.035 31.3ZM164.633 23.6V39H174.533V35.81H168.351V23.6H164.633ZM178.06 39H185.826V35.942H178.06V39ZM178.06 26.658H185.826V23.6H178.06V26.658ZM178.06 32.4H185.386V29.408H178.06V32.4ZM175.596 23.6V39H179.16V23.6H175.596ZM190.612 36.03H198.752L198.51 33.192H190.876L190.612 36.03ZM194.638 29.254L196.816 34.248L196.684 35.194L198.532 39H202.756L194.638 22.632L186.542 39H190.744L192.658 35.04L192.482 34.226L194.638 29.254ZM214.336 23.6V32.268L203.71 22.83V39H207.274V30.332L217.922 39.77V23.6H214.336Z" fill="white"></path> <g clip-path="url(#clip0_189_1139)"> <path d="M18.7843 9.22188L17.7567 10.1113C16.6957 11.0301 16.0126 12.2995 15.8362 13.6802C15.6598 15.0609 16.0022 16.4575 16.799 17.6066L17.5716 18.7231L16.6686 17.7127C15.7368 16.6689 14.4498 15.9966 13.0499 15.8221C11.65 15.6477 10.2336 15.9832 9.06725 16.7655L7.93384 17.5247L8.95957 16.6353C10.0201 15.7165 10.7028 14.4473 10.8789 13.067C11.055 11.6866 10.7123 10.2905 9.91541 9.14187L9.1447 8.02539L10.0476 9.03766C10.9806 10.0825 12.2694 10.7551 13.671 10.9285C15.0726 11.1019 16.4903 10.7643 17.6566 9.97922L18.7843 9.22188Z" fill="#D79895"></path> <path d="M61.9831 41.8434L61.2089 42.5231C60.4034 43.2259 59.8847 44.1994 59.7513 45.2587C59.6178 46.3179 59.879 47.3892 60.4851 48.269L61.0696 49.1186L60.3884 48.3463C59.6847 47.5476 58.7123 47.0336 57.6548 46.9013C56.5972 46.769 55.5277 47.0275 54.6482 47.628L53.7966 48.2072L54.5824 47.4967C55.378 46.7937 55.8891 45.8251 56.0195 44.7728C56.1499 43.7205 55.8908 42.6568 55.2907 41.7817L54.7101 40.9321L55.3913 41.7044C56.095 42.5031 57.0674 43.0171 58.1249 43.1494C59.1825 43.2817 60.252 43.0232 61.1315 42.4227L61.9831 41.8434Z" fill="#91AE91"></path> <path d="M69 33.7046C60.6974 33.2117 52.8018 29.993 46.5736 24.5625C38.2922 33.712 32.0037 42.9062 28.3616 50.7997C31.7039 56.0205 33.6532 61.9885 34.0287 68.1497C34.5853 59.193 38.4486 50.7463 44.8904 44.4014C51.3321 38.0566 59.9074 34.252 69 33.7046Z" fill="url(#paint0_linear_189_1139)"></path> <path d="M69 33.7046C60.6974 33.2117 52.8018 29.993 46.5736 24.5625C38.2922 33.712 32.0037 42.9062 28.3616 50.7997C31.7039 56.0205 33.6532 61.9885 34.0287 68.1497C34.5853 59.193 38.4486 50.7463 44.8904 44.4014C51.3321 38.0566 59.9074 34.252 69 33.7046Z" fill="url(#paint1_linear_189_1139)"></path> <path d="M38.6832 26.3935C40.3783 24.7237 42.0828 23.1178 43.7968 21.5759C38.5551 15.5185 35.4572 7.94506 34.9713 0C34.4171 8.95786 30.5547 17.4064 24.1126 23.7523C17.6704 30.0982 9.09373 33.9029 0 34.4488C8.65221 34.962 16.8512 38.4343 23.182 44.2664C27.8467 37.9031 33.031 31.9256 38.6832 26.3935Z" fill="url(#paint2_linear_189_1139)"></path> <path d="M19.7799 65.4717C14.3679 60.1406 22.4509 43.5311 37.837 28.3769C44.8811 21.438 52.2331 16.0026 58.6558 12.6699C51.402 15.5932 42.3725 21.8027 33.8001 30.247C18.4141 45.4031 10.331 62.0107 15.7431 67.3437C18.6786 70.2335 24.9784 69.2156 32.5836 65.2633C26.824 67.5856 22.177 67.8331 19.7799 65.4717Z" fill="url(#paint3_linear_189_1139)"></path> <path d="M29.2306 62.0296C23.811 56.691 31.9073 40.0573 47.3141 24.8807C49.8879 22.3404 52.5894 19.9289 55.4086 17.6553C50.771 20.5134 45.7595 24.4546 40.9179 29.2238C27.6759 42.268 20.7168 56.5626 25.377 61.1513C26.4235 62.184 27.9706 62.6399 29.8861 62.5692C29.6525 62.4079 29.4332 62.2274 29.2306 62.0296Z" fill="url(#paint4_linear_189_1139)"></path> </g> <path d="M82.7 45.32V54H83.89V44.2H76.12V54H77.31V45.32H82.7ZM87.1078 57.08V47.56H85.9878V57.08H87.1078ZM92.4978 50.78C92.4978 50.08 92.3531 49.4827 92.0638 48.988C91.7745 48.484 91.3871 48.0967 90.9018 47.826C90.4258 47.5553 89.8938 47.42 89.3058 47.42C88.7738 47.42 88.3025 47.5553 87.8918 47.826C87.4905 48.0967 87.1731 48.484 86.9398 48.988C86.7158 49.4827 86.6038 50.08 86.6038 50.78C86.6038 51.4707 86.7158 52.068 86.9398 52.572C87.1731 53.076 87.4905 53.4633 87.8918 53.734C88.3025 54.0047 88.7738 54.14 89.3058 54.14C89.8938 54.14 90.4258 54.0047 90.9018 53.734C91.3871 53.4633 91.7745 53.076 92.0638 52.572C92.3531 52.068 92.4978 51.4707 92.4978 50.78ZM91.3638 50.78C91.3638 51.2747 91.2611 51.6947 91.0558 52.04C90.8598 52.3853 90.5938 52.6467 90.2578 52.824C89.9311 53.0013 89.5671 53.09 89.1658 53.09C88.8391 53.09 88.5171 53.0013 88.1998 52.824C87.8825 52.6467 87.6211 52.3853 87.4158 52.04C87.2105 51.6947 87.1078 51.2747 87.1078 50.78C87.1078 50.2853 87.2105 49.8653 87.4158 49.52C87.6211 49.1747 87.8825 48.9133 88.1998 48.736C88.5171 48.5587 88.8391 48.47 89.1658 48.47C89.5671 48.47 89.9311 48.5587 90.2578 48.736C90.5938 48.9133 90.8598 49.1747 91.0558 49.52C91.2611 49.8653 91.3638 50.2853 91.3638 50.78ZM93.4822 50.78C93.4822 51.424 93.6269 52.0027 93.9162 52.516C94.2149 53.02 94.6162 53.4167 95.1202 53.706C95.6242 53.9953 96.1889 54.14 96.8142 54.14C97.4489 54.14 98.0135 53.9953 98.5082 53.706C99.0122 53.4167 99.4089 53.02 99.6982 52.516C99.9969 52.0027 100.146 51.424 100.146 50.78C100.146 50.1267 99.9969 49.548 99.6982 49.044C99.4089 48.54 99.0122 48.1433 98.5082 47.854C98.0135 47.5647 97.4489 47.42 96.8142 47.42C96.1889 47.42 95.6242 47.5647 95.1202 47.854C94.6162 48.1433 94.2149 48.54 93.9162 49.044C93.6269 49.548 93.4822 50.1267 93.4822 50.78ZM94.6162 50.78C94.6162 50.332 94.7095 49.9353 94.8962 49.59C95.0922 49.2353 95.3535 48.96 95.6802 48.764C96.0162 48.568 96.3942 48.47 96.8142 48.47C97.2342 48.47 97.6075 48.568 97.9342 48.764C98.2702 48.96 98.5315 49.2353 98.7182 49.59C98.9142 49.9353 99.0122 50.332 99.0122 50.78C99.0122 51.228 98.9142 51.6247 98.7182 51.97C98.5315 52.3153 98.2702 52.5907 97.9342 52.796C97.6075 52.992 97.2342 53.09 96.8142 53.09C96.3942 53.09 96.0162 52.992 95.6802 52.796C95.3535 52.5907 95.0922 52.3153 94.8962 51.97C94.7095 51.6247 94.6162 51.228 94.6162 50.78ZM104.177 46.16V55.4H105.297V46.16H104.177ZM101.125 50.78C101.125 51.424 101.274 52.0027 101.573 52.516C101.871 53.02 102.291 53.4167 102.833 53.706C103.383 53.9953 104.018 54.14 104.737 54.14C105.465 54.14 106.099 53.9953 106.641 53.706C107.182 53.4167 107.602 53.02 107.901 52.516C108.199 52.0027 108.349 51.424 108.349 50.78C108.349 50.1267 108.199 49.548 107.901 49.044C107.602 48.54 107.182 48.1433 106.641 47.854C106.099 47.5647 105.465 47.42 104.737 47.42C104.018 47.42 103.383 47.5647 102.833 47.854C102.291 48.1433 101.871 48.54 101.573 49.044C101.274 49.548 101.125 50.1267 101.125 50.78ZM102.259 50.78C102.259 50.332 102.357 49.9353 102.553 49.59C102.758 49.2353 103.043 48.96 103.407 48.764C103.78 48.568 104.223 48.47 104.737 48.47C105.25 48.47 105.689 48.568 106.053 48.764C106.426 48.96 106.711 49.2353 106.907 49.59C107.112 49.9353 107.215 50.332 107.215 50.78C107.215 51.228 107.112 51.6247 106.907 51.97C106.711 52.3153 106.426 52.5907 106.053 52.796C105.689 52.992 105.25 53.09 104.737 53.09C104.223 53.09 103.78 52.992 103.407 52.796C103.043 52.5907 102.758 52.3153 102.553 51.97C102.357 51.6247 102.259 51.228 102.259 50.78ZM110.042 51.06H115.544C115.553 51.004 115.558 50.948 115.558 50.892C115.558 50.836 115.558 50.78 115.558 50.724C115.558 50.0427 115.432 49.4593 115.18 48.974C114.928 48.4793 114.573 48.0967 114.116 47.826C113.659 47.5553 113.127 47.42 112.52 47.42C111.969 47.42 111.47 47.532 111.022 47.756C110.583 47.98 110.224 48.2927 109.944 48.694C109.664 49.0953 109.477 49.562 109.384 50.094C109.365 50.206 109.351 50.318 109.342 50.43C109.333 50.542 109.328 50.6587 109.328 50.78C109.328 51.424 109.459 52.0027 109.72 52.516C109.991 53.02 110.355 53.4167 110.812 53.706C111.279 53.9953 111.801 54.14 112.38 54.14C112.94 54.14 113.407 54.0747 113.78 53.944C114.153 53.804 114.471 53.6127 114.732 53.37C114.993 53.118 115.231 52.8287 115.446 52.502L114.536 51.928C114.396 52.1613 114.228 52.3667 114.032 52.544C113.836 52.712 113.612 52.8473 113.36 52.95C113.117 53.0433 112.837 53.09 112.52 53.09C112.1 53.09 111.736 53.0013 111.428 52.824C111.12 52.6467 110.882 52.3853 110.714 52.04C110.546 51.6947 110.462 51.2747 110.462 50.78L110.49 50.36C110.49 49.9587 110.579 49.6133 110.756 49.324C110.943 49.0253 111.19 48.7967 111.498 48.638C111.806 48.4793 112.147 48.4 112.52 48.4C112.893 48.4 113.206 48.4747 113.458 48.624C113.719 48.764 113.92 48.9647 114.06 49.226C114.209 49.478 114.303 49.772 114.34 50.108H110.042V51.06ZM117.597 50.78C117.597 50.332 117.69 49.9353 117.877 49.59C118.073 49.2353 118.334 48.96 118.661 48.764C118.997 48.568 119.375 48.47 119.795 48.47C120.14 48.47 120.462 48.526 120.761 48.638C121.069 48.7407 121.335 48.8807 121.559 49.058C121.783 49.2353 121.942 49.4313 122.035 49.646V48.246C121.811 47.9847 121.489 47.784 121.069 47.644C120.658 47.4947 120.234 47.42 119.795 47.42C119.17 47.42 118.605 47.5647 118.101 47.854C117.597 48.1433 117.196 48.54 116.897 49.044C116.608 49.548 116.463 50.1267 116.463 50.78C116.463 51.424 116.608 52.0027 116.897 52.516C117.196 53.02 117.597 53.4167 118.101 53.706C118.605 53.9953 119.17 54.14 119.795 54.14C120.234 54.14 120.658 54.07 121.069 53.93C121.489 53.7807 121.811 53.5753 122.035 53.314V51.914C121.942 52.1193 121.783 52.3153 121.559 52.502C121.335 52.6793 121.069 52.824 120.761 52.936C120.462 53.0387 120.14 53.09 119.795 53.09C119.375 53.09 118.997 52.992 118.661 52.796C118.334 52.5907 118.073 52.3153 117.877 51.97C117.69 51.6247 117.597 51.228 117.597 50.78ZM124.283 50.78C124.283 50.332 124.376 49.9353 124.563 49.59C124.759 49.2353 125.02 48.96 125.347 48.764C125.683 48.568 126.061 48.47 126.481 48.47C126.826 48.47 127.148 48.526 127.447 48.638C127.755 48.7407 128.021 48.8807 128.245 49.058C128.469 49.2353 128.627 49.4313 128.721 49.646V48.246C128.497 47.9847 128.175 47.784 127.755 47.644C127.344 47.4947 126.919 47.42 126.481 47.42C125.855 47.42 125.291 47.5647 124.787 47.854C124.283 48.1433 123.881 48.54 123.583 49.044C123.293 49.548 123.149 50.1267 123.149 50.78C123.149 51.424 123.293 52.0027 123.583 52.516C123.881 53.02 124.283 53.4167 124.787 53.706C125.291 53.9953 125.855 54.14 126.481 54.14C126.919 54.14 127.344 54.07 127.755 53.93C128.175 53.7807 128.497 53.5753 128.721 53.314V51.914C128.627 52.1193 128.469 52.3153 128.245 52.502C128.021 52.6793 127.755 52.824 127.447 52.936C127.148 53.0387 126.826 53.09 126.481 53.09C126.061 53.09 125.683 52.992 125.347 52.796C125.02 52.5907 124.759 52.3153 124.563 51.97C124.376 51.6247 124.283 51.228 124.283 50.78ZM135.854 48.68L135.924 47.07L130.604 52.88L130.534 54.49L135.854 48.68ZM131.654 47.56H130.534V54.49L131.654 52.95V47.56ZM135.924 47.07L134.804 48.61V54H135.924V47.07ZM137.533 50.78C137.533 51.424 137.678 52.0027 137.967 52.516C138.266 53.02 138.667 53.4167 139.171 53.706C139.675 53.9953 140.24 54.14 140.865 54.14C141.5 54.14 142.064 53.9953 142.559 53.706C143.063 53.4167 143.46 53.02 143.749 52.516C144.048 52.0027 144.197 51.424 144.197 50.78C144.197 50.1267 144.048 49.548 143.749 49.044C143.46 48.54 143.063 48.1433 142.559 47.854C142.064 47.5647 141.5 47.42 140.865 47.42C140.24 47.42 139.675 47.5647 139.171 47.854C138.667 48.1433 138.266 48.54 137.967 49.044C137.678 49.548 137.533 50.1267 137.533 50.78ZM138.667 50.78C138.667 50.332 138.76 49.9353 138.947 49.59C139.143 49.2353 139.404 48.96 139.731 48.764C140.067 48.568 140.445 48.47 140.865 48.47C141.285 48.47 141.658 48.568 141.985 48.764C142.321 48.96 142.582 49.2353 142.769 49.59C142.965 49.9353 143.063 50.332 143.063 50.78C143.063 51.228 142.965 51.6247 142.769 51.97C142.582 52.3153 142.321 52.5907 141.985 52.796C141.658 52.992 141.285 53.09 140.865 53.09C140.445 53.09 140.067 52.992 139.731 52.796C139.404 52.5907 139.143 52.3153 138.947 51.97C138.76 51.6247 138.667 51.228 138.667 50.78ZM146.394 51.13H151.154V50.08H146.394V51.13ZM150.426 47.56V54H151.546V47.56H150.426ZM145.736 47.56V54H146.856V47.56H145.736ZM154.156 52.11C154.156 51.8487 154.216 51.6247 154.338 51.438C154.459 51.2513 154.641 51.1067 154.884 51.004C155.136 50.9013 155.448 50.85 155.822 50.85C156.232 50.85 156.601 50.906 156.928 51.018C157.254 51.1207 157.576 51.284 157.894 51.508V50.85C157.828 50.766 157.707 50.6587 157.53 50.528C157.352 50.388 157.114 50.2667 156.816 50.164C156.526 50.052 156.176 49.996 155.766 49.996C155.206 49.996 154.72 50.0847 154.31 50.262C153.899 50.43 153.582 50.6727 153.358 50.99C153.134 51.3073 153.022 51.6947 153.022 52.152C153.022 52.5907 153.12 52.9593 153.316 53.258C153.521 53.5473 153.792 53.7667 154.128 53.916C154.464 54.0653 154.832 54.14 155.234 54.14C155.682 54.14 156.088 54.0653 156.452 53.916C156.816 53.7573 157.105 53.5333 157.32 53.244C157.544 52.9453 157.656 52.5907 157.656 52.18L157.432 51.48C157.432 51.8813 157.348 52.2033 157.18 52.446C157.021 52.6887 156.797 52.866 156.508 52.978C156.218 53.09 155.887 53.146 155.514 53.146C155.262 53.146 155.033 53.1087 154.828 53.034C154.622 52.95 154.459 52.8333 154.338 52.684C154.216 52.5253 154.156 52.334 154.156 52.11ZM154.156 49.072C154.258 48.9973 154.398 48.9087 154.576 48.806C154.762 48.694 154.982 48.6007 155.234 48.526C155.486 48.442 155.766 48.4 156.074 48.4C156.428 48.4 156.741 48.484 157.012 48.652C157.292 48.8107 157.432 49.0533 157.432 49.38V54H158.552V49.38C158.552 48.96 158.444 48.6053 158.23 48.316C158.024 48.0267 157.735 47.8073 157.362 47.658C156.998 47.4993 156.568 47.42 156.074 47.42C155.495 47.42 155 47.5087 154.59 47.686C154.179 47.8633 153.852 48.0407 153.61 48.218L154.156 49.072ZM166.088 47.56H160.558V51.76C160.558 52.2173 160.456 52.5347 160.25 52.712C160.054 52.8893 159.816 52.978 159.536 52.978V54C160.022 54 160.423 53.9207 160.74 53.762C161.058 53.594 161.291 53.3467 161.44 53.02C161.599 52.684 161.678 52.264 161.678 51.76V48.61H164.968V54H166.088V47.56ZM168.253 47.56V54H169.373V47.56H168.253ZM168.911 50.976H170.913C171.324 50.976 171.632 51.0647 171.837 51.242C172.042 51.4193 172.145 51.6713 172.145 51.998C172.145 52.2127 172.098 52.3993 172.005 52.558C171.912 52.7073 171.772 52.824 171.585 52.908C171.408 52.9827 171.184 53.02 170.913 53.02H168.911V54H170.913C171.361 54 171.762 53.93 172.117 53.79C172.472 53.65 172.752 53.4307 172.957 53.132C173.162 52.8333 173.265 52.4553 173.265 51.998C173.265 51.3073 173.036 50.8033 172.579 50.486C172.131 50.1593 171.576 49.996 170.913 49.996H168.911V50.976ZM175.679 51.13H180.439V50.08H175.679V51.13ZM179.711 47.56V54H180.831V47.56H179.711ZM175.021 47.56V54H176.141V47.56H175.021ZM183.441 52.11C183.441 51.8487 183.501 51.6247 183.623 51.438C183.744 51.2513 183.926 51.1067 184.169 51.004C184.421 50.9013 184.733 50.85 185.107 50.85C185.517 50.85 185.886 50.906 186.213 51.018C186.539 51.1207 186.861 51.284 187.179 51.508V50.85C187.113 50.766 186.992 50.6587 186.815 50.528C186.637 50.388 186.399 50.2667 186.101 50.164C185.811 50.052 185.461 49.996 185.051 49.996C184.491 49.996 184.005 50.0847 183.595 50.262C183.184 50.43 182.867 50.6727 182.643 50.99C182.419 51.3073 182.307 51.6947 182.307 52.152C182.307 52.5907 182.405 52.9593 182.601 53.258C182.806 53.5473 183.077 53.7667 183.413 53.916C183.749 54.0653 184.117 54.14 184.519 54.14C184.967 54.14 185.373 54.0653 185.737 53.916C186.101 53.7573 186.39 53.5333 186.605 53.244C186.829 52.9453 186.941 52.5907 186.941 52.18L186.717 51.48C186.717 51.8813 186.633 52.2033 186.465 52.446C186.306 52.6887 186.082 52.866 185.793 52.978C185.503 53.09 185.172 53.146 184.799 53.146C184.547 53.146 184.318 53.1087 184.113 53.034C183.907 52.95 183.744 52.8333 183.623 52.684C183.501 52.5253 183.441 52.334 183.441 52.11ZM183.441 49.072C183.543 48.9973 183.683 48.9087 183.861 48.806C184.047 48.694 184.267 48.6007 184.519 48.526C184.771 48.442 185.051 48.4 185.359 48.4C185.713 48.4 186.026 48.484 186.297 48.652C186.577 48.8107 186.717 49.0533 186.717 49.38V54H187.837V49.38C187.837 48.96 187.729 48.6053 187.515 48.316C187.309 48.0267 187.02 47.8073 186.647 47.658C186.283 47.4993 185.853 47.42 185.359 47.42C184.78 47.42 184.285 47.5087 183.875 47.686C183.464 47.8633 183.137 48.0407 182.895 48.218L183.441 49.072ZM190.656 54L193.036 50.64H191.804L189.424 54H190.656ZM194.744 54V47.56H193.624V54H194.744ZM194.086 50.444H192.084C191.813 50.444 191.584 50.4113 191.398 50.346C191.22 50.2713 191.085 50.164 190.992 50.024C190.898 49.884 190.852 49.7067 190.852 49.492C190.852 49.2773 190.898 49.1 190.992 48.96C191.085 48.82 191.22 48.7173 191.398 48.652C191.584 48.5773 191.813 48.54 192.084 48.54H194.086V47.56H192.084C191.645 47.56 191.244 47.6253 190.88 47.756C190.525 47.8867 190.245 48.092 190.04 48.372C189.834 48.652 189.732 49.0253 189.732 49.492C189.732 49.9493 189.834 50.3227 190.04 50.612C190.245 50.892 190.525 51.0973 190.88 51.228C191.244 51.3587 191.645 51.424 192.084 51.424H194.086V50.444ZM204.126 47.56L202.586 49.8L201.046 47.56H199.786L201.984 50.682L199.646 54H200.906L202.586 51.564L204.266 54H205.526L203.188 50.682L205.386 47.56H204.126ZM211.965 48.68L212.035 47.07L206.715 52.88L206.645 54.49L211.965 48.68ZM207.765 47.56H206.645V54.49L207.765 52.95V47.56ZM212.035 47.07L210.915 48.61V54H212.035V47.07ZM220.322 54H221.582L219.902 47.07L219.272 48.89L220.322 54ZM216.962 53.034L217.382 54.434L220.042 49.31L219.902 47.07L216.962 53.034ZM217.382 54.434L217.802 53.034L214.904 47.07L214.764 49.31L217.382 54.434ZM213.224 54H214.484L215.534 48.89L214.904 47.07L213.224 54ZM224.878 52.04H227.076V50.99H224.878V52.04ZM226.278 47.56V54H227.398V47.56H226.278ZM223.478 47.56H222.358V49.408C222.358 50.0333 222.433 50.542 222.582 50.934C222.732 51.3167 222.988 51.5967 223.352 51.774C223.726 51.9513 224.234 52.04 224.878 52.04V50.99C224.524 50.99 224.244 50.9387 224.038 50.836C223.833 50.724 223.688 50.5513 223.604 50.318C223.52 50.0847 223.478 49.7813 223.478 49.408V47.56ZM234.893 48.68L234.963 47.07L229.643 52.88L229.573 54.49L234.893 48.68ZM230.693 47.56H229.573V54.49L230.693 52.95V47.56ZM234.963 47.07L233.843 48.61V54H234.963V47.07ZM237.636 50.78C237.636 50.332 237.729 49.9353 237.916 49.59C238.112 49.2353 238.373 48.96 238.7 48.764C239.036 48.568 239.414 48.47 239.834 48.47C240.179 48.47 240.501 48.526 240.8 48.638C241.108 48.7407 241.374 48.8807 241.598 49.058C241.822 49.2353 241.981 49.4313 242.074 49.646V48.246C241.85 47.9847 241.528 47.784 241.108 47.644C240.697 47.4947 240.273 47.42 239.834 47.42C239.209 47.42 238.644 47.5647 238.14 47.854C237.636 48.1433 237.235 48.54 236.936 49.044C236.647 49.548 236.502 50.1267 236.502 50.78C236.502 51.424 236.647 52.0027 236.936 52.516C237.235 53.02 237.636 53.4167 238.14 53.706C238.644 53.9953 239.209 54.14 239.834 54.14C240.273 54.14 240.697 54.07 241.108 53.93C241.528 53.7807 241.85 53.5753 242.074 53.314V51.914C241.981 52.1193 241.822 52.3153 241.598 52.502C241.374 52.6793 241.108 52.824 240.8 52.936C240.501 53.0387 240.179 53.09 239.834 53.09C239.414 53.09 239.036 52.992 238.7 52.796C238.373 52.5907 238.112 52.3153 237.916 51.97C237.729 51.6247 237.636 51.228 237.636 50.78ZM242.838 47.56V48.61H246.618V47.56H242.838ZM244.168 47.84V54H245.288V47.84H244.168ZM247.671 47.56V54H248.791V47.56H247.671ZM251.171 47.56L248.371 50.22L251.451 54H252.851L249.771 50.22L252.571 47.56H251.171ZM254.411 52.11C254.411 51.8487 254.472 51.6247 254.593 51.438C254.715 51.2513 254.897 51.1067 255.139 51.004C255.391 50.9013 255.704 50.85 256.077 50.85C256.488 50.85 256.857 50.906 257.183 51.018C257.51 51.1207 257.832 51.284 258.149 51.508V50.85C258.084 50.766 257.963 50.6587 257.785 50.528C257.608 50.388 257.37 50.2667 257.071 50.164C256.782 50.052 256.432 49.996 256.021 49.996C255.461 49.996 254.976 50.0847 254.565 50.262C254.155 50.43 253.837 50.6727 253.613 50.99C253.389 51.3073 253.277 51.6947 253.277 52.152C253.277 52.5907 253.375 52.9593 253.571 53.258C253.777 53.5473 254.047 53.7667 254.383 53.916C254.719 54.0653 255.088 54.14 255.489 54.14C255.937 54.14 256.343 54.0653 256.707 53.916C257.071 53.7573 257.361 53.5333 257.575 53.244C257.799 52.9453 257.911 52.5907 257.911 52.18L257.687 51.48C257.687 51.8813 257.603 52.2033 257.435 52.446C257.277 52.6887 257.053 52.866 256.763 52.978C256.474 53.09 256.143 53.146 255.769 53.146C255.517 53.146 255.289 53.1087 255.083 53.034C254.878 52.95 254.715 52.8333 254.593 52.684C254.472 52.5253 254.411 52.334 254.411 52.11ZM254.411 49.072C254.514 48.9973 254.654 48.9087 254.831 48.806C255.018 48.694 255.237 48.6007 255.489 48.526C255.741 48.442 256.021 48.4 256.329 48.4C256.684 48.4 256.997 48.484 257.267 48.652C257.547 48.8107 257.687 49.0533 257.687 49.38V54H258.807V49.38C258.807 48.96 258.7 48.6053 258.485 48.316C258.28 48.0267 257.991 47.8073 257.617 47.658C257.253 47.4993 256.824 47.42 256.329 47.42C255.751 47.42 255.256 47.5087 254.845 47.686C254.435 47.8633 254.108 48.0407 253.865 48.218L254.411 49.072Z" fill="#BAB0B0"></path> <path d="M234.85 16.1965L233.823 17.0859C232.762 18.0047 232.079 19.2741 231.902 20.6548C231.726 22.0355 232.068 23.4321 232.865 24.5812L233.638 25.6977L232.735 24.6873C231.803 23.6435 230.516 22.9712 229.116 22.7967C227.716 22.6223 226.3 22.9578 225.133 23.7401L224 24.4993L225.026 23.6099C226.086 22.6912 226.769 21.4219 226.945 20.0416C227.121 18.6612 226.778 17.2651 225.982 16.1165L225.211 15L226.114 16.0123C227.047 17.0571 228.336 17.7297 229.737 17.9031C231.139 18.0766 232.556 17.7389 233.723 16.9538L234.85 16.1965Z" fill="#D79895"></path> <defs> <linearGradient id="paint0_linear_189_1139" x1="-17.9663" y1="2.94939" x2="225.012" y2="2.94939" gradientUnits="userSpaceOnUse"> <stop stop-color="#709873"></stop> <stop offset="1" stop-color="#B3C5AF"></stop> </linearGradient> <linearGradient id="paint1_linear_189_1139" x1="63.0003" y1="52.5001" x2="37.2655" y2="34.8823" gradientUnits="userSpaceOnUse"> <stop offset="0.512653" stop-color="#E2B5B1"></stop> <stop offset="0.920764" stop-color="#C56E6C"></stop> </linearGradient> <linearGradient id="paint2_linear_189_1139" x1="25.5" y1="35.5" x2="40.5" y2="-4.5" gradientUnits="userSpaceOnUse"> <stop stop-color="#709873"></stop> <stop offset="0.70625" stop-color="#B3C5AF"></stop> </linearGradient> <linearGradient id="paint3_linear_189_1139" x1="58.6558" y1="40.8347" x2="14.6796" y2="40.9533" gradientUnits="userSpaceOnUse"> <stop stop-color="#E2B5B1"></stop> <stop offset="1" stop-color="#C56E6C"></stop> </linearGradient> <linearGradient id="paint4_linear_189_1139" x1="42.2574" y1="53.6803" x2="61.4037" y2="17.5174" gradientUnits="userSpaceOnUse"> <stop stop-color="#709873"></stop> <stop offset="0.70625" stop-color="#B3C5AF"></stop> </linearGradient> <clipPath id="clip0_189_1139"> <rect width="69" height="69" fill="white"></rect> </clipPath> </defs> </svg> 