<?xml version="1.0" encoding="UTF-8"?> <svg xmlns="http://www.w3.org/2000/svg" width="37" height="37" viewBox="0 0 37 37" fill="none"> <circle cx="18.5" cy="18.5" r="18.5" fill="white" fill-opacity="0.04"></circle> <path d="M25.2401 20.7129C24.7501 20.7012 24.1333 20.6724 23.7437 20.604C23.3221 20.5293 22.815 20.3847 22.458 20.2734C22.178 20.1863 21.8731 20.2633 21.6654 20.4702L19.9411 22.1844C18.7496 21.5568 17.7952 20.8257 16.9871 20.0129C16.1743 19.2048 15.4432 18.2504 14.8156 17.0589L16.5298 15.3338C16.7367 15.1261 16.8137 14.8212 16.7266 14.5412C16.6161 14.185 16.4707 13.6779 16.3968 13.2563C16.3276 12.8667 16.2996 12.2499 16.2871 11.7599C16.277 11.336 15.9317 11 15.5078 11H12.7778C12.4371 11 12 11.2551 12 11.7778C12 15.3081 13.4311 18.6798 15.8624 21.1376C18.3202 23.5689 21.6919 25 25.2222 25C25.7449 25 26 24.5629 26 24.2222V21.4922C26 21.0683 25.664 20.723 25.2401 20.7129Z" fill="#6D9A74"></path> </svg> 