<?xml version="1.0" encoding="UTF-8"?> <svg xmlns="http://www.w3.org/2000/svg" width="1920" height="730" viewBox="0 0 1920 730" fill="none"> <g clip-path="url(#clip0_203_1419)"> <rect width="1920" height="730" fill="#FCF8F4"></rect> <g filter="url(#filter0_f_203_1419)"> <ellipse cx="127.5" cy="134" rx="746.5" ry="746" fill="url(#paint0_radial_203_1419)" fill-opacity="0.3"></ellipse> </g> <g filter="url(#filter1_f_203_1419)"> <ellipse cx="1267" cy="455" rx="563" ry="435" fill="url(#paint1_radial_203_1419)"></ellipse> </g> <g filter="url(#filter2_f_203_1419)"> <circle cx="1078" cy="-70" r="542" fill="url(#paint2_radial_203_1419)" fill-opacity="0.2"></circle> </g> <rect width="1948" height="730" fill="url(#paint3_radial_203_1419)"></rect> <g opacity="0.3"> <path d="M188.124 158.252C185.859 158.252 184 156.413 184 154.126C184 151.86 185.838 150 188.124 150C190.41 150 192.248 151.838 192.248 154.126C192.248 156.392 190.389 158.252 188.124 158.252Z" fill="#C5A2A0" fill-opacity="0.54"></path> <path d="M226.884 158.252C224.619 158.252 222.761 156.413 222.761 154.126C222.761 151.86 224.598 150 226.884 150C229.149 150 231.008 151.838 231.008 154.126C230.987 156.392 229.149 158.252 226.884 158.252Z" fill="#C5A2A0" fill-opacity="0.54"></path> <path d="M265.62 158.252C263.355 158.252 261.496 156.413 261.496 154.126C261.496 151.86 263.334 150 265.62 150C267.885 150 269.743 151.838 269.743 154.126C269.743 156.392 267.906 158.252 265.62 158.252Z" fill="#C5A2A0" fill-opacity="0.54"></path> <path d="M304.38 158.252C302.116 158.252 300.257 156.413 300.257 154.126C300.257 151.86 302.094 150 304.38 150C306.645 150 308.504 151.838 308.504 154.126C308.504 156.392 306.645 158.252 304.38 158.252Z" fill="#C5A2A0" fill-opacity="0.54"></path> <path d="M343.116 158.252C340.851 158.252 338.992 156.413 338.992 154.126C338.992 151.86 340.83 150 343.116 150C345.381 150 347.24 151.838 347.24 154.126C347.24 156.392 345.402 158.252 343.116 158.252Z" fill="#C5A2A0" fill-opacity="0.54"></path> <path d="M381.876 158.252C379.611 158.252 377.752 156.413 377.752 154.126C377.752 151.86 379.59 150 381.876 150C384.162 150 386 151.838 386 154.126C386 156.392 384.141 158.252 381.876 158.252Z" fill="#C5A2A0" fill-opacity="0.54"></path> <path d="M188.124 193.61C185.859 193.61 184 191.772 184 189.484C184 187.218 185.838 185.358 188.124 185.358C190.41 185.358 192.248 187.197 192.248 189.484C192.248 191.75 190.389 193.61 188.124 193.61Z" fill="#C5A2A0" fill-opacity="0.54"></path> <path d="M226.884 193.61C224.619 193.61 222.761 191.772 222.761 189.484C222.761 187.218 224.598 185.358 226.884 185.358C229.149 185.358 231.008 187.197 231.008 189.484C230.987 191.75 229.149 193.61 226.884 193.61Z" fill="#C5A2A0" fill-opacity="0.54"></path> <path d="M265.62 193.61C263.355 193.61 261.496 191.772 261.496 189.484C261.496 187.218 263.334 185.358 265.62 185.358C267.885 185.358 269.743 187.197 269.743 189.484C269.743 191.75 267.906 193.61 265.62 193.61Z" fill="#C5A2A0" fill-opacity="0.54"></path> <path d="M304.38 193.61C302.116 193.61 300.257 191.772 300.257 189.484C300.257 187.218 302.094 185.358 304.38 185.358C306.645 185.358 308.504 187.197 308.504 189.484C308.504 191.75 306.645 193.61 304.38 193.61Z" fill="#C5A2A0" fill-opacity="0.54"></path> <path d="M343.116 193.61C340.851 193.61 338.992 191.772 338.992 189.484C338.992 187.218 340.83 185.358 343.116 185.358C345.381 185.358 347.24 187.197 347.24 189.484C347.24 191.75 345.402 193.61 343.116 193.61Z" fill="#C5A2A0" fill-opacity="0.54"></path> <path d="M381.876 193.61C379.611 193.61 377.752 191.772 377.752 189.484C377.752 187.218 379.59 185.358 381.876 185.358C384.162 185.358 386 187.197 386 189.484C386 191.75 384.141 193.61 381.876 193.61Z" fill="#C5A2A0" fill-opacity="0.54"></path> <path d="M188.124 228.947C185.859 228.947 184 227.108 184 224.821C184 222.555 185.838 220.695 188.124 220.695C190.41 220.695 192.248 222.534 192.248 224.821C192.248 227.108 190.389 228.947 188.124 228.947Z" fill="#C5A2A0" fill-opacity="0.54"></path> <path d="M226.884 228.947C224.619 228.947 222.761 227.108 222.761 224.821C222.761 222.555 224.598 220.695 226.884 220.695C229.149 220.695 231.008 222.534 231.008 224.821C230.987 227.108 229.149 228.947 226.884 228.947Z" fill="#C5A2A0" fill-opacity="0.54"></path> <path d="M265.62 228.947C263.355 228.947 261.496 227.108 261.496 224.821C261.496 222.555 263.334 220.695 265.62 220.695C267.885 220.695 269.743 222.534 269.743 224.821C269.743 227.108 267.906 228.947 265.62 228.947Z" fill="#C5A2A0" fill-opacity="0.54"></path> <path d="M304.38 228.947C302.116 228.947 300.257 227.108 300.257 224.821C300.257 222.555 302.094 220.695 304.38 220.695C306.645 220.695 308.504 222.534 308.504 224.821C308.504 227.108 306.645 228.947 304.38 228.947Z" fill="#C5A2A0" fill-opacity="0.54"></path> <path d="M343.116 228.947C340.851 228.947 338.992 227.108 338.992 224.821C338.992 222.555 340.83 220.695 343.116 220.695C345.381 220.695 347.24 222.534 347.24 224.821C347.24 227.108 345.402 228.947 343.116 228.947Z" fill="#C5A2A0" fill-opacity="0.54"></path> <path d="M381.876 228.947C379.611 228.947 377.752 227.108 377.752 224.821C377.752 222.555 379.59 220.695 381.876 220.695C384.162 220.695 386 222.534 386 224.821C386 227.108 384.141 228.947 381.876 228.947Z" fill="#C5A2A0" fill-opacity="0.54"></path> <path d="M188.124 264.305C185.859 264.305 184 262.467 184 260.179C184 257.913 185.838 256.054 188.124 256.054C190.41 256.054 192.248 257.892 192.248 260.179C192.248 262.445 190.389 264.305 188.124 264.305Z" fill="#C5A2A0" fill-opacity="0.54"></path> <path d="M226.884 264.305C224.619 264.305 222.761 262.467 222.761 260.179C222.761 257.913 224.598 256.054 226.884 256.054C229.149 256.054 231.008 257.892 231.008 260.179C230.987 262.445 229.149 264.305 226.884 264.305Z" fill="#C5A2A0" fill-opacity="0.54"></path> <path d="M265.62 264.305C263.355 264.305 261.496 262.467 261.496 260.179C261.496 257.913 263.334 256.054 265.62 256.054C267.885 256.054 269.743 257.892 269.743 260.179C269.743 262.445 267.906 264.305 265.62 264.305Z" fill="#C5A2A0" fill-opacity="0.54"></path> <path d="M304.38 264.305C302.116 264.305 300.257 262.467 300.257 260.179C300.257 257.913 302.094 256.054 304.38 256.054C306.645 256.054 308.504 257.892 308.504 260.179C308.504 262.445 306.645 264.305 304.38 264.305Z" fill="#C5A2A0" fill-opacity="0.54"></path> <path d="M343.116 264.305C340.851 264.305 338.992 262.467 338.992 260.179C338.992 257.913 340.83 256.054 343.116 256.054C345.381 256.054 347.24 257.892 347.24 260.179C347.24 262.445 345.402 264.305 343.116 264.305Z" fill="#C5A2A0" fill-opacity="0.54"></path> <path d="M381.876 264.305C379.611 264.305 377.752 262.467 377.752 260.179C377.752 257.913 379.59 256.054 381.876 256.054C384.162 256.054 386 257.892 386 260.179C386 262.445 384.141 264.305 381.876 264.305Z" fill="#C5A2A0" fill-opacity="0.54"></path> <path d="M188.124 299.663C185.859 299.663 184 297.825 184 295.537C184 293.271 185.838 291.411 188.124 291.411C190.41 291.411 192.248 293.25 192.248 295.537C192.248 297.803 190.389 299.663 188.124 299.663Z" fill="#C5A2A0" fill-opacity="0.54"></path> <path d="M226.884 299.663C224.619 299.663 222.761 297.825 222.761 295.537C222.761 293.271 224.598 291.411 226.884 291.411C229.149 291.411 231.008 293.25 231.008 295.537C230.987 297.803 229.149 299.663 226.884 299.663Z" fill="#C5A2A0" fill-opacity="0.54"></path> <path d="M265.62 299.663C263.355 299.663 261.496 297.825 261.496 295.537C261.496 293.271 263.334 291.411 265.62 291.411C267.885 291.411 269.743 293.25 269.743 295.537C269.743 297.803 267.906 299.663 265.62 299.663Z" fill="#C5A2A0" fill-opacity="0.54"></path> <path d="M304.38 299.663C302.116 299.663 300.257 297.825 300.257 295.537C300.257 293.271 302.094 291.411 304.38 291.411C306.645 291.411 308.504 293.25 308.504 295.537C308.504 297.803 306.645 299.663 304.38 299.663Z" fill="#C5A2A0" fill-opacity="0.54"></path> <path d="M343.116 299.663C340.851 299.663 338.992 297.825 338.992 295.537C338.992 293.271 340.83 291.411 343.116 291.411C345.381 291.411 347.24 293.25 347.24 295.537C347.24 297.803 345.402 299.663 343.116 299.663Z" fill="#C5A2A0" fill-opacity="0.54"></path> <path d="M381.876 299.663C379.611 299.663 377.752 297.825 377.752 295.537C377.752 293.271 379.59 291.411 381.876 291.411C384.162 291.411 386 293.25 386 295.537C386 297.803 384.141 299.663 381.876 299.663Z" fill="#C5A2A0" fill-opacity="0.54"></path> <path d="M188.124 335C185.859 335 184 333.162 184 330.874C184 328.608 185.838 326.748 188.124 326.748C190.41 326.748 192.248 328.587 192.248 330.874C192.248 333.162 190.389 335 188.124 335Z" fill="#C5A2A0" fill-opacity="0.54"></path> <path d="M226.884 335C224.619 335 222.761 333.162 222.761 330.874C222.761 328.608 224.598 326.748 226.884 326.748C229.149 326.748 231.008 328.587 231.008 330.874C230.987 333.162 229.149 335 226.884 335Z" fill="#C5A2A0" fill-opacity="0.54"></path> <path d="M265.62 335C263.355 335 261.496 333.162 261.496 330.874C261.496 328.608 263.334 326.748 265.62 326.748C267.885 326.748 269.743 328.587 269.743 330.874C269.743 333.162 267.906 335 265.62 335Z" fill="#C5A2A0" fill-opacity="0.54"></path> <path d="M304.38 335C302.116 335 300.257 333.162 300.257 330.874C300.257 328.608 302.094 326.748 304.38 326.748C306.645 326.748 308.504 328.587 308.504 330.874C308.504 333.162 306.645 335 304.38 335Z" fill="#C5A2A0" fill-opacity="0.54"></path> <path d="M343.116 335C340.851 335 338.992 333.162 338.992 330.874C338.992 328.608 340.83 326.748 343.116 326.748C345.381 326.748 347.24 328.587 347.24 330.874C347.24 333.162 345.402 335 343.116 335Z" fill="#C5A2A0" fill-opacity="0.54"></path> <path d="M381.876 335C379.611 335 377.752 333.162 377.752 330.874C377.752 328.608 379.59 326.748 381.876 326.748C384.162 326.748 386 328.587 386 330.874C386 333.162 384.141 335 381.876 335Z" fill="#C5A2A0" fill-opacity="0.54"></path> </g> <path d="M62.297 634.008L50.9248 645.6L54.2763 649L69 634.008L54.2763 619L50.9248 622.416L62.297 634.008Z" fill="#6D9A74"></path> <path d="M42.4485 634.008L31.0763 645.6L34.4278 649L49.1515 634.008L34.4278 619L31.0763 622.416L42.4485 634.008Z" fill="#6D9A74"></path> <path d="M22.3723 634.008L11 645.6L14.3352 649L29.0589 634.008L14.3352 619L11 622.416L22.3723 634.008Z" fill="#6D9A74"></path> </g> <defs> <filter id="filter0_f_203_1419" x="-783" y="-776" width="1821" height="1820" filterUnits="userSpaceOnUse" color-interpolation-filters="sRGB"> <feFlood flood-opacity="0" result="BackgroundImageFix"></feFlood> <feBlend mode="normal" in="SourceGraphic" in2="BackgroundImageFix" result="shape"></feBlend> <feGaussianBlur stdDeviation="82" result="effect1_foregroundBlur_203_1419"></feGaussianBlur> </filter> <filter id="filter1_f_203_1419" x="483" y="-201" width="1568" height="1312" filterUnits="userSpaceOnUse" color-interpolation-filters="sRGB"> <feFlood flood-opacity="0" result="BackgroundImageFix"></feFlood> <feBlend mode="normal" in="SourceGraphic" in2="BackgroundImageFix" result="shape"></feBlend> <feGaussianBlur stdDeviation="110.5" result="effect1_foregroundBlur_203_1419"></feGaussianBlur> </filter> <filter id="filter2_f_203_1419" x="372" y="-776" width="1412" height="1412" filterUnits="userSpaceOnUse" color-interpolation-filters="sRGB"> <feFlood flood-opacity="0" result="BackgroundImageFix"></feFlood> <feBlend mode="normal" in="SourceGraphic" in2="BackgroundImageFix" result="shape"></feBlend> <feGaussianBlur stdDeviation="82" result="effect1_foregroundBlur_203_1419"></feGaussianBlur> </filter> <radialGradient id="paint0_radial_203_1419" cx="0" cy="0" r="1" gradientUnits="userSpaceOnUse" gradientTransform="translate(127.5 134) rotate(90) scale(746 746.5)"> <stop stop-color="#E3B8B4"></stop> <stop offset="1" stop-color="#F1E2DC" stop-opacity="0.03"></stop> </radialGradient> <radialGradient id="paint1_radial_203_1419" cx="0" cy="0" r="1" gradientUnits="userSpaceOnUse" gradientTransform="translate(1267 455) rotate(90) scale(435 563)"> <stop stop-color="white"></stop> <stop offset="1" stop-color="white" stop-opacity="0"></stop> </radialGradient> <radialGradient id="paint2_radial_203_1419" cx="0" cy="0" r="1" gradientUnits="userSpaceOnUse" gradientTransform="translate(1078 -70) rotate(90) scale(542)"> <stop stop-color="#A4BCA3"></stop> <stop offset="1" stop-color="#7DA481" stop-opacity="0"></stop> </radialGradient> <radialGradient id="paint3_radial_203_1419" cx="0" cy="0" r="1" gradientUnits="userSpaceOnUse" gradientTransform="translate(381.483 135) rotate(45.1198) scale(839.703 916.104)"> <stop stop-color="white"></stop> <stop offset="0.74944" stop-color="white" stop-opacity="0"></stop> </radialGradient> <clipPath id="clip0_203_1419"> <rect width="1920" height="730" fill="white"></rect> </clipPath> </defs> </svg> 