<?xml version="1.0" encoding="UTF-8"?> <svg xmlns="http://www.w3.org/2000/svg" width="1920" height="837" viewBox="0 0 1920 837" fill="none"> <g clip-path="url(#clip0_208_1432)"> <rect width="1920" height="837" fill="#FCF8F4"></rect> <path fill-rule="evenodd" clip-rule="evenodd" d="M1550.05 774.36C1503.32 772.791 1453.04 784.788 1416.61 751.883C1377.41 716.47 1356.09 658.459 1359.32 602.083C1362.39 548.356 1397.34 506.711 1432.73 470.371C1466.09 436.1 1504.86 408.277 1550.05 406.195C1597.07 404.029 1645.96 419.803 1677.42 459.099C1707.69 496.924 1704.45 551.302 1706.85 602.083C1709.47 657.427 1727 722.35 1691.71 761.116C1656.51 799.795 1599.29 776.012 1550.05 774.36Z" fill="url(#paint0_linear_208_1432)" fill-opacity="0.65"></path> <g filter="url(#filter0_f_208_1432)"> <ellipse cx="1267" cy="-214" rx="563" ry="435" fill="url(#paint1_radial_208_1432)"></ellipse> </g> <g filter="url(#filter1_f_208_1432)"> <ellipse cx="127.5" cy="-535" rx="746.5" ry="746" fill="url(#paint2_radial_208_1432)" fill-opacity="0.3"></ellipse> </g> </g> <defs> <filter id="filter0_f_208_1432" x="483" y="-870" width="1568" height="1312" filterUnits="userSpaceOnUse" color-interpolation-filters="sRGB"> <feFlood flood-opacity="0" result="BackgroundImageFix"></feFlood> <feBlend mode="normal" in="SourceGraphic" in2="BackgroundImageFix" result="shape"></feBlend> <feGaussianBlur stdDeviation="110.5" result="effect1_foregroundBlur_208_1432"></feGaussianBlur> </filter> <filter id="filter1_f_208_1432" x="-783" y="-1445" width="1821" height="1820" filterUnits="userSpaceOnUse" color-interpolation-filters="sRGB"> <feFlood flood-opacity="0" result="BackgroundImageFix"></feFlood> <feBlend mode="normal" in="SourceGraphic" in2="BackgroundImageFix" result="shape"></feBlend> <feGaussianBlur stdDeviation="82" result="effect1_foregroundBlur_208_1432"></feGaussianBlur> </filter> <linearGradient id="paint0_linear_208_1432" x1="1687.16" y1="776.009" x2="1419.77" y2="464.824" gradientUnits="userSpaceOnUse"> <stop stop-color="#6D9A74"></stop> <stop offset="0.510514" stop-color="#7EAA85"></stop> <stop offset="1" stop-color="#F7FEF8"></stop> </linearGradient> <radialGradient id="paint1_radial_208_1432" cx="0" cy="0" r="1" gradientUnits="userSpaceOnUse" gradientTransform="translate(1267 -214) rotate(90) scale(435 563)"> <stop stop-color="white"></stop> <stop offset="1" stop-color="white" stop-opacity="0"></stop> </radialGradient> <radialGradient id="paint2_radial_208_1432" cx="0" cy="0" r="1" gradientUnits="userSpaceOnUse" gradientTransform="translate(127.5 -535) rotate(90) scale(746 746.5)"> <stop stop-color="#E3B8B4"></stop> <stop offset="1" stop-color="#F1E2DC" stop-opacity="0.03"></stop> </radialGradient> <clipPath id="clip0_208_1432"> <rect width="1920" height="837" fill="white"></rect> </clipPath> </defs> </svg> 