<?xml version="1.0" encoding="UTF-8"?> <svg xmlns="http://www.w3.org/2000/svg" width="945" height="176" viewBox="0 0 945 176" fill="none"> <path fill-rule="evenodd" clip-rule="evenodd" d="M102.256 52.9999C97.4624 51.2666 91.7372 50.3999 85.0801 50.3999C78.556 50.3999 72.5646 51.5999 67.1057 53.9999C61.78 56.3999 57.4528 60.0666 54.1242 64.9999C50.9288 69.7999 49.3311 75.7999 49.3311 82.9999C49.3311 90.1999 50.9288 96.2666 54.1242 101.2C57.4528 106 61.78 109.6 67.1057 112C72.5646 114.4 78.556 115.6 85.0801 115.6C91.7372 115.6 97.4624 114.733 102.256 113C107.049 111.267 111.243 109.133 114.838 106.6C118.148 104.232 121.143 101.812 123.823 99.3389C124.162 99.0268 124.495 98.7138 124.823 98.3999V143.6C119.365 147.333 113.373 150.467 106.849 153C100.458 155.667 92.1367 157 81.8846 157C69.7686 157 58.7177 155.267 48.7319 151.8C38.7462 148.333 30.225 143.333 23.1684 136.8C16.1118 130.267 10.6529 122.467 6.79174 113.4C2.93058 104.333 1 94.1999 1 82.9999C1 71.7999 2.93058 61.6666 6.79174 52.5999C10.6529 43.5333 16.1118 35.7333 23.1684 29.1999C30.225 22.6666 38.7462 17.6666 48.7319 14.1999C58.7177 10.7333 69.7686 8.99994 81.8846 8.99994C92.1367 8.99994 100.458 10.2666 106.849 12.7999C113.373 15.3333 119.365 18.5333 124.823 22.3999V67.5999C124.495 67.2861 124.162 66.9731 123.823 66.6609C121.143 64.188 118.148 61.7677 114.838 59.3999C111.243 56.7333 107.049 54.5999 102.256 52.9999ZM107.214 11.8691C100.664 9.27311 92.2051 7.99994 81.8846 7.99994C69.673 7.99994 58.5093 9.74704 48.404 13.2552C38.3008 16.7627 29.6566 21.8301 22.489 28.4661C15.3264 35.0976 9.78667 43.0151 5.87169 52.2081C1.95104 61.4145 0 71.6836 0 82.9999C0 94.3163 1.95104 104.585 5.87169 113.792C9.78667 122.985 15.3264 130.902 22.489 137.534C29.6566 144.17 38.3008 149.237 48.404 152.745C58.5093 156.253 69.673 158 81.8846 158C92.205 158 100.667 156.66 107.223 153.928C113.809 151.369 119.865 148.202 125.388 144.425L125.823 144.128V96.0606L124.132 97.6771C121.242 100.44 117.952 103.142 114.259 105.784C110.748 108.258 106.637 110.352 101.915 112.06C97.259 113.743 91.6549 114.6 85.0801 114.6C78.6832 114.6 72.8319 113.424 67.5125 111.086C62.3589 108.763 58.1781 105.286 54.955 100.643C51.8915 95.9071 50.3311 90.0441 50.3311 82.9999C50.3311 75.9494 51.8942 70.1555 54.9549 65.5567C58.1805 60.7769 62.3623 57.2352 67.5125 54.9135C72.8319 52.5756 78.6832 51.3999 85.0801 51.3999C91.6549 51.3999 97.259 52.2564 101.915 53.9403L101.927 53.9446L101.939 53.9485C106.645 55.5193 110.742 57.6068 114.242 60.2031L114.249 60.2082L114.256 60.2133C117.95 62.8559 121.242 65.5594 124.132 68.3228L125.823 69.9392V21.8828L125.401 21.5839C119.873 17.6683 113.81 14.4306 107.214 11.8691ZM147.781 11.9999H195.716V62.0425L237.185 11.9999H290.913L235.541 78.6226L293.814 154H238.163L195.716 99.1759V154H147.781V11.9999ZM194.716 96.2508L238.653 153H291.777L234.259 78.5999L288.782 12.9999H237.655L194.716 64.8165V12.9999H148.781V153H194.716V96.2508ZM435.622 153H393.682V89.6817L302.812 160V12.9999H344.752V76.3181L435.622 5.99994V153ZM345.752 74.2798L436.622 3.96167V154H392.682V91.72L301.812 162.038V11.9999H345.752V74.2798ZM540.41 80.5999L528.166 116H552.655L540.41 80.5999ZM551.251 115L540.41 83.6591L529.57 115H551.251ZM540.41 5.99994L598.837 116H625.289V175H580.353V153H500.467V175H455.531V116H481.983L540.41 5.99994ZM481.382 115L540.41 3.86816L599.439 115H626.289V176H579.353V154H501.467V176H454.531V115H481.382ZM645.173 11.9999H693.108V62.0424L734.577 11.9999H788.305L732.933 78.6226L786.661 148.121L864.113 0.851562L944.656 154H892.485L882.409 136H845.575L835.747 154H735.555L693.108 99.1759V154H645.173V11.9999ZM692.108 96.2509L736.045 153H835.154L844.982 135H882.995L893.071 153H943L864.113 2.99993L786.822 149.964L731.651 78.5999L786.174 12.9999H735.047L692.108 64.8164V12.9999H646.173V153H692.108V96.2509ZM852.188 103.4H876.037L864.113 76.5999L852.188 103.4ZM864.113 79.0598L853.727 102.4H874.498L864.113 79.0598Z" fill="#E7D0C7"></path> </svg> 