<?xml version="1.0" encoding="UTF-8"?> <svg xmlns="http://www.w3.org/2000/svg" width="106" height="106" viewBox="0 0 106 106" fill="none"> <path opacity="0.3" d="M49.8358 3.83221C51.589 2.09848 54.411 2.09848 56.1642 3.83221L59.111 6.74633C60.6769 8.29481 63.0154 8.75997 65.0547 7.9286L68.8924 6.36402C71.1756 5.43318 73.7827 6.51308 74.739 8.78576L76.3464 12.6058C77.2004 14.6356 79.183 15.9603 81.3851 15.9726L85.5295 15.9957C87.9951 16.0095 89.9905 18.0049 90.0043 20.4705L90.0274 24.6149C90.0397 26.817 91.3644 28.7996 93.3942 29.6537L97.2142 31.261C99.4869 32.2173 100.567 34.8244 99.636 37.1076L98.0714 40.9453C97.24 42.9846 97.7052 45.3231 99.2537 46.889L102.168 49.8358C103.902 51.589 103.902 54.411 102.168 56.1642L99.2537 59.111C97.7052 60.6769 97.24 63.0154 98.0714 65.0547L99.636 68.8924C100.567 71.1756 99.4869 73.7827 97.2142 74.739L93.3942 76.3464C91.3644 77.2004 90.0397 79.183 90.0274 81.3851L90.0043 85.5295C89.9905 87.9951 87.9951 89.9905 85.5295 90.0043L81.3851 90.0274C79.183 90.0397 77.2004 91.3644 76.3464 93.3942L74.739 97.2142C73.7827 99.4869 71.1756 100.567 68.8924 99.636L65.0547 98.0714C63.0154 97.24 60.6769 97.7052 59.111 99.2537L56.1642 102.168C54.411 103.902 51.589 103.902 49.8358 102.168L46.889 99.2537C45.3231 97.7052 42.9846 97.24 40.9453 98.0714L37.1076 99.636C34.8244 100.567 32.2173 99.4869 31.261 97.2142L29.6537 93.3942C28.7996 91.3644 26.817 90.0397 24.6149 90.0274L20.4705 90.0043C18.0049 89.9905 16.0095 87.9951 15.9957 85.5295L15.9726 81.3851C15.9603 79.183 14.6356 77.2004 12.6058 76.3464L8.78576 74.739C6.51308 73.7827 5.43318 71.1756 6.36401 68.8924L7.9286 65.0547C8.75997 63.0154 8.29481 60.6769 6.74633 59.111L3.83221 56.1642C2.09848 54.411 2.09848 51.589 3.83221 49.8358L6.74633 46.889C8.29481 45.3231 8.75997 42.9846 7.9286 40.9453L6.36401 37.1076C5.43318 34.8244 6.51308 32.2173 8.78576 31.261L12.6058 29.6537C14.6356 28.7996 15.9603 26.817 15.9726 24.6149L15.9957 20.4705C16.0095 18.0049 18.0049 16.0095 20.4705 15.9957L24.6149 15.9726C26.817 15.9603 28.7996 14.6356 29.6537 12.6058L31.261 8.78576C32.2173 6.51307 34.8244 5.43318 37.1076 6.36401L40.9453 7.9286C42.9846 8.75997 45.3231 8.2948 46.889 6.74633L49.8358 3.83221Z" stroke="#D18D8A"></path> <path d="M49.4843 8.47669C51.4323 6.55032 54.5677 6.55032 56.5157 8.47669L58.6315 10.569C60.055 11.9767 62.181 12.3995 64.0348 11.6437L66.7902 10.5204C69.3271 9.48615 72.2239 10.686 73.2864 13.2112L74.4405 15.9539C75.2169 17.7992 77.0192 19.0035 79.0212 19.0147L81.9967 19.0313C84.7363 19.0466 86.9534 21.2637 86.9687 24.0033L86.9854 26.9788C86.9965 28.9808 88.2008 30.7831 90.0461 31.5595L92.7888 32.7136C95.314 33.7761 96.5139 36.6729 95.4796 39.2098L94.3563 41.9652C93.6005 43.819 94.0233 45.945 95.431 47.3685L97.5233 49.4843C99.4497 51.4323 99.4497 54.5677 97.5233 56.5157L95.431 58.6315C94.0233 60.055 93.6005 62.181 94.3563 64.0348L95.4796 66.7902C96.5139 69.3271 95.314 72.2239 92.7888 73.2864L90.0461 74.4405C88.2008 75.2169 86.9965 77.0192 86.9854 79.0212L86.9687 81.9967C86.9534 84.7363 84.7363 86.9534 81.9967 86.9687L79.0212 86.9854C77.0192 86.9965 75.2169 88.2008 74.4405 90.0461L73.2864 92.7888C72.2239 95.314 69.3271 96.5139 66.7902 95.4796L64.0348 94.3563C62.181 93.6005 60.055 94.0233 58.6315 95.431L56.5157 97.5233C54.5677 99.4497 51.4323 99.4497 49.4843 97.5233L47.3685 95.431C45.945 94.0233 43.819 93.6005 41.9652 94.3563L39.2098 95.4796C36.6729 96.5139 33.7761 95.314 32.7136 92.7888L31.5595 90.0461C30.7831 88.2008 28.9808 86.9965 26.9788 86.9854L24.0033 86.9687C21.2637 86.9534 19.0466 84.7363 19.0313 81.9967L19.0147 79.0212C19.0035 77.0192 17.7992 75.2169 15.9539 74.4405L13.2112 73.2864C10.686 72.2239 9.48615 69.3271 10.5204 66.7902L11.6437 64.0348C12.3995 62.181 11.9767 60.055 10.569 58.6315L8.47669 56.5157C6.55032 54.5677 6.55032 51.4323 8.47669 49.4843L10.569 47.3685C11.9767 45.945 12.3995 43.819 11.6437 41.9652L10.5204 39.2098C9.48615 36.6729 10.686 33.7761 13.2112 32.7136L15.9539 31.5595C17.7992 30.7831 19.0035 28.9808 19.0147 26.9788L19.0313 24.0033C19.0466 21.2637 21.2637 19.0466 24.0033 19.0313L26.9788 19.0147C28.9808 19.0035 30.7831 17.7992 31.5595 15.9539L32.7136 13.2112C33.7761 10.686 36.6729 9.48615 39.2098 10.5204L41.9652 11.6437C43.819 12.3995 45.945 11.9767 47.3685 10.569L49.4843 8.47669Z" fill="#6D9A74"></path> <path d="M49.4843 8.47669C51.4323 6.55032 54.5677 6.55032 56.5157 8.47669L58.6315 10.569C60.055 11.9767 62.181 12.3995 64.0348 11.6437L66.7902 10.5204C69.3271 9.48615 72.2239 10.686 73.2864 13.2112L74.4405 15.9539C75.2169 17.7992 77.0192 19.0035 79.0212 19.0147L81.9967 19.0313C84.7363 19.0466 86.9534 21.2637 86.9687 24.0033L86.9854 26.9788C86.9965 28.9808 88.2008 30.7831 90.0461 31.5595L92.7888 32.7136C95.314 33.7761 96.5139 36.6729 95.4796 39.2098L94.3563 41.9652C93.6005 43.819 94.0233 45.945 95.431 47.3685L97.5233 49.4843C99.4497 51.4323 99.4497 54.5677 97.5233 56.5157L95.431 58.6315C94.0233 60.055 93.6005 62.181 94.3563 64.0348L95.4796 66.7902C96.5139 69.3271 95.314 72.2239 92.7888 73.2864L90.0461 74.4405C88.2008 75.2169 86.9965 77.0192 86.9854 79.0212L86.9687 81.9967C86.9534 84.7363 84.7363 86.9534 81.9967 86.9687L79.0212 86.9854C77.0192 86.9965 75.2169 88.2008 74.4405 90.0461L73.2864 92.7888C72.2239 95.314 69.3271 96.5139 66.7902 95.4796L64.0348 94.3563C62.181 93.6005 60.055 94.0233 58.6315 95.431L56.5157 97.5233C54.5677 99.4497 51.4323 99.4497 49.4843 97.5233L47.3685 95.431C45.945 94.0233 43.819 93.6005 41.9652 94.3563L39.2098 95.4796C36.6729 96.5139 33.7761 95.314 32.7136 92.7888L31.5595 90.0461C30.7831 88.2008 28.9808 86.9965 26.9788 86.9854L24.0033 86.9687C21.2637 86.9534 19.0466 84.7363 19.0313 81.9967L19.0147 79.0212C19.0035 77.0192 17.7992 75.2169 15.9539 74.4405L13.2112 73.2864C10.686 72.2239 9.48615 69.3271 10.5204 66.7902L11.6437 64.0348C12.3995 62.181 11.9767 60.055 10.569 58.6315L8.47669 56.5157C6.55032 54.5677 6.55032 51.4323 8.47669 49.4843L10.569 47.3685C11.9767 45.945 12.3995 43.819 11.6437 41.9652L10.5204 39.2098C9.48615 36.6729 10.686 33.7761 13.2112 32.7136L15.9539 31.5595C17.7992 30.7831 19.0035 28.9808 19.0147 26.9788L19.0313 24.0033C19.0466 21.2637 21.2637 19.0466 24.0033 19.0313L26.9788 19.0147C28.9808 19.0035 30.7831 17.7992 31.5595 15.9539L32.7136 13.2112C33.7761 10.686 36.6729 9.48615 39.2098 10.5204L41.9652 11.6437C43.819 12.3995 45.945 11.9767 47.3685 10.569L49.4843 8.47669Z" fill="#CC7F7D"></path> <path d="M49.4843 8.47669C51.4323 6.55032 54.5677 6.55032 56.5157 8.47669L58.6315 10.569C60.055 11.9767 62.181 12.3995 64.0348 11.6437L66.7902 10.5204C69.3271 9.48615 72.2239 10.686 73.2864 13.2112L74.4405 15.9539C75.2169 17.7992 77.0192 19.0035 79.0212 19.0147L81.9967 19.0313C84.7363 19.0466 86.9534 21.2637 86.9687 24.0033L86.9854 26.9788C86.9965 28.9808 88.2008 30.7831 90.0461 31.5595L92.7888 32.7136C95.314 33.7761 96.5139 36.6729 95.4796 39.2098L94.3563 41.9652C93.6005 43.819 94.0233 45.945 95.431 47.3685L97.5233 49.4843C99.4497 51.4323 99.4497 54.5677 97.5233 56.5157L95.431 58.6315C94.0233 60.055 93.6005 62.181 94.3563 64.0348L95.4796 66.7902C96.5139 69.3271 95.314 72.2239 92.7888 73.2864L90.0461 74.4405C88.2008 75.2169 86.9965 77.0192 86.9854 79.0212L86.9687 81.9967C86.9534 84.7363 84.7363 86.9534 81.9967 86.9687L79.0212 86.9854C77.0192 86.9965 75.2169 88.2008 74.4405 90.0461L73.2864 92.7888C72.2239 95.314 69.3271 96.5139 66.7902 95.4796L64.0348 94.3563C62.181 93.6005 60.055 94.0233 58.6315 95.431L56.5157 97.5233C54.5677 99.4497 51.4323 99.4497 49.4843 97.5233L47.3685 95.431C45.945 94.0233 43.819 93.6005 41.9652 94.3563L39.2098 95.4796C36.6729 96.5139 33.7761 95.314 32.7136 92.7888L31.5595 90.0461C30.7831 88.2008 28.9808 86.9965 26.9788 86.9854L24.0033 86.9687C21.2637 86.9534 19.0466 84.7363 19.0313 81.9967L19.0147 79.0212C19.0035 77.0192 17.7992 75.2169 15.9539 74.4405L13.2112 73.2864C10.686 72.2239 9.48615 69.3271 10.5204 66.7902L11.6437 64.0348C12.3995 62.181 11.9767 60.055 10.569 58.6315L8.47669 56.5157C6.55032 54.5677 6.55032 51.4323 8.47669 49.4843L10.569 47.3685C11.9767 45.945 12.3995 43.819 11.6437 41.9652L10.5204 39.2098C9.48615 36.6729 10.686 33.7761 13.2112 32.7136L15.9539 31.5595C17.7992 30.7831 19.0035 28.9808 19.0147 26.9788L19.0313 24.0033C19.0466 21.2637 21.2637 19.0466 24.0033 19.0313L26.9788 19.0147C28.9808 19.0035 30.7831 17.7992 31.5595 15.9539L32.7136 13.2112C33.7761 10.686 36.6729 9.48615 39.2098 10.5204L41.9652 11.6437C43.819 12.3995 45.945 11.9767 47.3685 10.569L49.4843 8.47669Z" fill="url(#paint0_linear_221_783)" fill-opacity="0.65"></path> <defs> <linearGradient id="paint0_linear_221_783" x1="75" y1="70" x2="69.4321" y2="9.27699" gradientUnits="userSpaceOnUse"> <stop stop-color="#BE716C"></stop> <stop offset="1" stop-color="#DA9D9A"></stop> </linearGradient> </defs> </svg> 