<?xml version="1.0" encoding="UTF-8"?> <svg xmlns="http://www.w3.org/2000/svg" width="38" height="38" viewBox="0 0 38 38" fill="none"> <path d="M19 0C18.4074 0 17.8146 0.132026 17.2747 0.396079L5.5128 6.15985C4.17979 6.81168 3.31746 8.19379 3.31746 9.68154V17.9291C3.31746 26.3697 9.79278 34.6532 18.7137 37.6287C18.8072 37.6588 18.9035 37.6741 19 37.6741C19.38 37.6741 19.7327 37.433 19.8594 37.0558C20.0162 36.582 19.7598 36.0687 19.2863 35.9117C11.0831 33.1746 5.12698 25.6122 5.12698 17.9291V9.68154C5.12698 8.88183 5.59141 8.13673 6.30918 7.78366L18.0711 2.01929C18.6532 1.73563 19.3468 1.73563 19.9289 2.01929L31.6908 7.78366C32.4086 8.13673 32.873 8.87882 32.873 9.68154V15.7412C32.873 16.2421 33.2771 16.6465 33.7778 16.6465C34.2784 16.6465 34.6825 16.2421 34.6825 15.7412V9.68154C34.6825 8.19379 33.8202 6.81168 32.4872 6.15985L20.7253 0.396079C20.1855 0.132026 19.5926 0 19 0ZM19 11.29C18.4994 11.29 18.0952 11.6944 18.0952 12.1953V18.3876C18.0952 18.8886 18.4994 19.2929 19 19.2929C19.5006 19.2929 19.9048 18.8886 19.9048 18.3876V12.1953C19.9048 11.6944 19.5006 11.29 19 11.29ZM28.0476 18.0829C22.5587 18.0829 18.0952 22.5491 18.0952 28.0414C18.0952 33.5337 22.5587 38 28.0476 38C33.5365 38 38 33.5337 38 28.0414C38 22.5491 33.5365 18.0829 28.0476 18.0829ZM28.0476 19.8935C32.5383 19.8935 36.1905 23.548 36.1905 28.0414C36.1905 32.5349 32.5383 36.1894 28.0476 36.1894C23.557 36.1894 19.9048 32.5349 19.9048 28.0414C19.9048 23.548 23.557 19.8935 28.0476 19.8935ZM2.13173 26.5597C1.84145 26.5468 1.54964 26.6743 1.36303 26.9251C0.473351 28.1262 0 29.5564 0 31.0592C0 34.8857 3.11238 38 6.93651 38C7.91667 38 8.86367 37.8006 9.75034 37.4053C10.2057 37.2031 10.4137 36.6662 10.2086 36.2106C10.0035 35.7549 9.47003 35.5468 9.01463 35.752C8.36019 36.0447 7.66039 36.1923 6.93356 36.1923C4.10769 36.1923 1.80658 33.8898 1.80658 31.0621C1.80658 29.9516 2.15637 28.8957 2.81383 28.0055C3.11542 27.6011 3.03116 27.0334 2.63005 26.7377C2.47964 26.6256 2.30589 26.5674 2.13173 26.5597Z" fill="#6D9A74"></path> </svg> 