<?xml version="1.0" encoding="UTF-8"?> <svg xmlns="http://www.w3.org/2000/svg" width="30" height="38" viewBox="0 0 30 38" fill="none"> <path d="M16.6536 1.05052e-05C16.6133 0.000877587 16.573 0.00465111 16.5332 0.0113013H0V38H30V0.0113013H23.4733C23.3833 -0.00343918 23.2915 -0.00343918 23.2015 0.0113013H16.7952C16.7485 0.00355069 16.7011 -0.000226611 16.6536 1.05052e-05ZM1.66667 1.66298H15.8333V11.5731C15.8333 11.7264 15.8763 11.8768 15.9576 12.0073C16.0389 12.1377 16.1553 12.2432 16.2937 12.3119C16.432 12.3805 16.587 12.4096 16.7411 12.3959C16.8952 12.3823 17.0425 12.3263 17.1663 12.2344L20 10.1279L22.8337 12.2344C22.9575 12.3263 23.1048 12.3823 23.2589 12.3959C23.413 12.4096 23.568 12.3805 23.7063 12.3119C23.8447 12.2432 23.9611 12.1377 24.0424 12.0073C24.1237 11.8768 24.1667 11.7264 24.1667 11.5731V1.66298H28.3333V36.3483H1.66667V1.66298ZM17.5 1.66298H22.5V9.9214L20.4997 8.43424C20.3555 8.32719 20.1802 8.26933 20 8.26933C19.8198 8.26933 19.6445 8.32719 19.5003 8.43424L17.5 9.9214V1.66298ZM6.66667 17.354C6.55624 17.3524 6.4466 17.3726 6.34413 17.4134C6.24166 17.4543 6.14839 17.5148 6.06975 17.5917C5.99111 17.6685 5.92866 17.7601 5.88604 17.861C5.84341 17.962 5.82146 18.0704 5.82146 18.1798C5.82146 18.2893 5.84341 18.3976 5.88604 18.4986C5.92866 18.5995 5.99111 18.6911 6.06975 18.7679C6.14839 18.8448 6.24166 18.9054 6.34413 18.9462C6.4466 18.987 6.55624 19.0072 6.66667 19.0057H23.3333C23.4438 19.0072 23.5534 18.987 23.6559 18.9462C23.7583 18.9054 23.8516 18.8448 23.9303 18.7679C24.0089 18.6911 24.0713 18.5995 24.114 18.4986C24.1566 18.3976 24.1785 18.2893 24.1785 18.1798C24.1785 18.0704 24.1566 17.962 24.114 17.861C24.0713 17.7601 24.0089 17.6685 23.9303 17.5917C23.8516 17.5148 23.7583 17.4543 23.6559 17.4134C23.5534 17.3726 23.4438 17.3524 23.3333 17.354H6.66667ZM6.66667 21.4832C6.55624 21.4816 6.4466 21.5018 6.34413 21.5427C6.24166 21.5835 6.14839 21.644 6.06975 21.7209C5.99111 21.7977 5.92866 21.8893 5.88604 21.9903C5.84341 22.0912 5.82146 22.1996 5.82146 22.309C5.82146 22.4185 5.84341 22.5268 5.88604 22.6278C5.92866 22.7287 5.99111 22.8203 6.06975 22.8971C6.14839 22.974 6.24166 23.0346 6.34413 23.0754C6.4466 23.1162 6.55624 23.1364 6.66667 23.1349H19.1667C19.2771 23.1364 19.3867 23.1162 19.4892 23.0754C19.5917 23.0346 19.6849 22.974 19.7636 22.8971C19.8422 22.8203 19.9047 22.7287 19.9473 22.6278C19.9899 22.5268 20.0119 22.4185 20.0119 22.309C20.0119 22.1996 19.9899 22.0912 19.9473 21.9903C19.9047 21.8893 19.8422 21.7977 19.7636 21.7209C19.6849 21.644 19.5917 21.5835 19.4892 21.5427C19.3867 21.5018 19.2771 21.4816 19.1667 21.4832H6.66667ZM6.66667 25.6124C6.55624 25.6108 6.4466 25.6311 6.34413 25.6719C6.24166 25.7127 6.14839 25.7733 6.06975 25.8501C5.99111 25.9269 5.92866 26.0185 5.88604 26.1195C5.84341 26.2204 5.82146 26.3288 5.82146 26.4382C5.82146 26.5477 5.84341 26.656 5.88604 26.757C5.92866 26.858 5.99111 26.9495 6.06975 27.0264C6.14839 27.1032 6.24166 27.1638 6.34413 27.2046C6.4466 27.2454 6.55624 27.2656 6.66667 27.2641H23.3333C23.4438 27.2656 23.5534 27.2454 23.6559 27.2046C23.7583 27.1638 23.8516 27.1032 23.9303 27.0264C24.0089 26.9495 24.0713 26.858 24.114 26.757C24.1566 26.656 24.1785 26.5477 24.1785 26.4382C24.1785 26.3288 24.1566 26.2204 24.114 26.1195C24.0713 26.0185 24.0089 25.9269 23.9303 25.8501C23.8516 25.7733 23.7583 25.7127 23.6559 25.6719C23.5534 25.6311 23.4438 25.6108 23.3333 25.6124H6.66667ZM6.66667 29.7416C6.55624 29.74 6.4466 29.7603 6.34413 29.8011C6.24166 29.8419 6.14839 29.9025 6.06975 29.9793C5.99111 30.0561 5.92866 30.1477 5.88604 30.2487C5.84341 30.3496 5.82146 30.458 5.82146 30.5674C5.82146 30.6769 5.84341 30.7852 5.88604 30.8862C5.92866 30.9872 5.99111 31.0787 6.06975 31.1556C6.14839 31.2324 6.24166 31.293 6.34413 31.3338C6.4466 31.3746 6.55624 31.3948 6.66667 31.3933H19.1667C19.2771 31.3948 19.3867 31.3746 19.4892 31.3338C19.5917 31.293 19.6849 31.2324 19.7636 31.1556C19.8422 31.0787 19.9047 30.9872 19.9473 30.8862C19.9899 30.7852 20.0119 30.6769 20.0119 30.5674C20.0119 30.458 19.9899 30.3496 19.9473 30.2487C19.9047 30.1477 19.8422 30.0561 19.7636 29.9793C19.6849 29.9025 19.5917 29.8419 19.4892 29.8011C19.3867 29.7603 19.2771 29.74 19.1667 29.7416H6.66667Z" fill="#6D9A74"></path> </svg> 