<?xml version="1.0" encoding="UTF-8"?> <svg xmlns="http://www.w3.org/2000/svg" width="69" height="69" viewBox="0 0 69 69" fill="none"> <g filter="url(#filter0_d_189_1352)"> <circle cx="31.5" cy="28.5" r="18.5" fill="white"></circle> </g> <path d="M38.2401 30.7129C37.7501 30.7012 37.1333 30.6724 36.7437 30.604C36.3221 30.5293 35.815 30.3847 35.458 30.2734C35.178 30.1863 34.8731 30.2633 34.6654 30.4702L32.9411 32.1844C31.7496 31.5568 30.7952 30.8257 29.9871 30.0129C29.1743 29.2048 28.4432 28.2504 27.8156 27.0589L29.5298 25.3338C29.7367 25.1261 29.8137 24.8212 29.7266 24.5412C29.6161 24.185 29.4707 23.6779 29.3968 23.2563C29.3276 22.8667 29.2996 22.2499 29.2871 21.7599C29.277 21.336 28.9317 21 28.5078 21H25.7778C25.4371 21 25 21.2551 25 21.7778C25 25.3081 26.4311 28.6798 28.8624 31.1376C31.3202 33.5689 34.6919 35 38.2222 35C38.7449 35 39 34.5629 39 34.2222V31.4922C39 31.0683 38.664 30.723 38.2401 30.7129Z" fill="#6D9A74"></path> <defs> <filter id="filter0_d_189_1352" x="0" y="0" width="69" height="69" filterUnits="userSpaceOnUse" color-interpolation-filters="sRGB"> <feFlood flood-opacity="0" result="BackgroundImageFix"></feFlood> <feColorMatrix in="SourceAlpha" type="matrix" values="0 0 0 0 0 0 0 0 0 0 0 0 0 0 0 0 0 0 127 0" result="hardAlpha"></feColorMatrix> <feOffset dx="3" dy="6"></feOffset> <feGaussianBlur stdDeviation="8"></feGaussianBlur> <feComposite in2="hardAlpha" operator="out"></feComposite> <feColorMatrix type="matrix" values="0 0 0 0 0.427451 0 0 0 0 0.603922 0 0 0 0 0.454902 0 0 0 0.21 0"></feColorMatrix> <feBlend mode="normal" in2="BackgroundImageFix" result="effect1_dropShadow_189_1352"></feBlend> <feBlend mode="normal" in="SourceGraphic" in2="effect1_dropShadow_189_1352" result="shape"></feBlend> </filter> </defs> </svg> 