<?xml version="1.0" encoding="UTF-8"?> <svg xmlns="http://www.w3.org/2000/svg" width="34" height="38" viewBox="0 0 34 38" fill="none"> <path d="M22.3598 14.0005C22.3375 13.9996 22.3153 13.9999 22.293 14.0014C22.1203 14.0131 21.9586 14.0959 21.8423 14.2325L15.6544 21.2699L12.1461 17.5289C12.0848 17.4608 12.0113 17.4064 11.93 17.3689C11.8487 17.3314 11.7612 17.3116 11.6726 17.3107C11.584 17.3097 11.4962 17.3276 11.4142 17.3633C11.3322 17.399 11.2577 17.4518 11.195 17.5186C11.1324 17.5854 11.0829 17.6648 11.0494 17.7523C11.0159 17.8397 10.9991 17.9334 11 18.0278C11.0009 18.1223 11.0195 18.2156 11.0546 18.3023C11.0898 18.389 11.1408 18.4674 11.2047 18.5328L15.1993 22.7924C15.2624 22.8596 15.3375 22.9126 15.4202 22.9482C15.5029 22.9839 15.5915 23.0015 15.6807 22.9999C15.7699 22.9984 15.8579 22.9777 15.9394 22.9392C16.021 22.9007 16.0945 22.8451 16.1555 22.7757L22.8132 15.2031C22.9024 15.1045 22.963 14.9805 22.9877 14.846C23.0123 14.7115 22.9999 14.5723 22.952 14.4451C22.904 14.318 22.8226 14.2084 22.7175 14.1295C22.6125 14.0506 22.4882 14.0058 22.3598 14.0005Z" fill="#6D9A74"></path> <path d="M17 0C15.1044 0 13.5046 1.03403 11.1321 2.2409C8.75959 3.44777 5.57511 4.90496 0.603693 5.98369L0 6.12673V6.72271C0 18.41 4.15039 26.2204 8.30682 31.0627C12.4632 35.9051 16.6861 37.8331 16.6861 37.8331L17.0241 38L17.3622 37.8331C17.3622 37.8331 34 29.3463 34 6.72271V6.12673L33.3963 5.98369C28.4249 4.90496 25.2404 3.44777 22.8679 2.2409C20.4954 1.03403 18.8956 0 17 0ZM17 1.52572C18.2708 1.52572 19.7438 2.36904 22.1676 3.59975C24.4707 4.76788 27.7095 6.20122 32.4062 7.29486C32.1225 27.9815 17.9689 35.7412 16.9759 36.2597C16.4959 36.0303 13.1515 34.3794 9.46591 30.0853C5.58114 25.5588 1.73562 18.2789 1.59375 7.29486C6.29048 6.20122 9.5293 4.76788 11.8324 3.59975C14.2562 2.36904 15.7292 1.52572 17 1.52572Z" fill="#6D9A74"></path> </svg> 