<?xml version="1.0" encoding="UTF-8"?> <svg xmlns="http://www.w3.org/2000/svg" width="40" height="38" viewBox="0 0 40 38" fill="none"> <path d="M20 0C8.98098 0 0 7.66815 0 17.2694C0 22.8391 3.07065 27.6903 7.79212 30.8581C7.78533 31.0437 7.79891 31.3473 7.55435 32.2514C7.24864 33.3748 6.63043 34.9537 5.38043 36.7349L4.49049 38H6.0462C11.4266 38 14.5414 34.5151 15.0238 33.9551C16.627 34.3295 18.2745 34.532 20 34.532C31.0156 34.532 40 26.8638 40 17.266C40 7.66815 31.019 0 20 0ZM20 1.72727C30.0679 1.72727 38.2609 8.69709 38.2609 17.2694C38.2609 25.8382 30.0679 32.8081 20 32.8081C18.4613 32.8081 16.9633 32.6326 15.4212 32.275L14.3886 32.0355L13.7024 32.8317C13.108 33.5233 11.1073 35.5542 7.8125 36.1243C8.44429 34.9975 8.91984 33.8505 9.22894 32.7001C9.47351 31.8095 9.51766 31.3406 9.52785 30.929L9.56861 29.9675L8.76359 29.4277C4.30027 26.4286 1.73913 21.9957 1.73913 17.2694C1.73913 8.69709 9.93207 1.72727 20 1.72727ZM19.9355 7.77273C19.5754 7.77273 19.2527 7.99201 19.1202 8.32599L17.1467 13.4167L11.6576 13.7102C11.2976 13.7305 10.9885 13.97 10.8764 14.3074C10.7677 14.6447 10.8764 15.0192 11.1549 15.2452L15.4212 18.6863L14.0082 23.9592C13.913 24.3033 14.0455 24.671 14.3342 24.8801C14.6264 25.0893 15.017 25.1028 15.3193 24.9071L19.9321 21.9418L24.5482 24.9071C24.8471 25.1028 25.2412 25.0893 25.5299 24.8801C25.822 24.671 25.9511 24.3033 25.8594 23.9592L24.4429 18.6863L28.7092 15.2452C28.9878 15.0192 29.0999 14.6447 28.9878 14.3074C28.8791 13.97 28.5666 13.7305 28.2099 13.7102L22.7208 13.4167L20.7439 8.32599C20.6148 7.99201 20.2955 7.77273 19.9355 7.77273ZM19.9321 11.0384L21.301 14.5604C21.4232 14.8775 21.7221 15.0934 22.0652 15.1136L25.8662 15.3161L22.911 17.6978C22.6461 17.9137 22.5306 18.2612 22.6189 18.5918L23.6005 22.2386L20.4076 20.1875C20.1189 20.002 19.7486 20.002 19.4599 20.1875L16.267 22.2386L17.2452 18.5918C17.3336 18.2612 17.2215 17.9137 16.9565 17.6978L14.0014 15.3161L17.7989 15.1136C18.142 15.0934 18.4409 14.8775 18.5632 14.5604L19.9321 11.0384Z" fill="#6D9A74"></path> </svg> 