<?xml version="1.0" encoding="UTF-8"?> <svg xmlns="http://www.w3.org/2000/svg" width="34" height="38" viewBox="0 0 34 38" fill="none"> <path d="M13.7619 0V2.47826H15.381V3.38502C6.75978 4.21919 0 11.6386 0 20.6522C0 30.2233 7.62075 38 17 38C26.3793 38 34 30.2233 34 20.6522C34 11.6386 27.2402 4.21919 18.619 3.38502V2.47826H20.2381V0H13.7619ZM29.3342 2.59927L27.7104 4.25628L31.4465 8.06887L33.0703 6.41185L29.3342 2.59927ZM17 4.95652C25.5043 4.95652 32.381 11.9739 32.381 20.6522C32.381 29.3304 25.5043 36.3478 17 36.3478C8.49575 36.3478 1.61905 29.3304 1.61905 20.6522C1.61905 11.9739 8.49575 4.95652 17 4.95652ZM8.89686 11.5571C8.73582 11.5572 8.57845 11.6062 8.44487 11.698C8.31129 11.7898 8.20757 11.9202 8.14697 12.0724C8.08637 12.2247 8.07165 12.3919 8.10468 12.5528C8.13771 12.7136 8.217 12.8608 8.3324 12.9754L15.4379 20.2262C15.4008 20.3651 15.3817 20.5083 15.381 20.6522C15.381 21.0904 15.5515 21.5106 15.8552 21.8204C16.1588 22.1303 16.5706 22.3043 17 22.3043C17.1415 22.3043 17.2823 22.2853 17.419 22.2479L18.8562 23.7145C18.9308 23.7938 19.0202 23.8571 19.119 23.9007C19.2179 23.9443 19.3243 23.9673 19.432 23.9685C19.5397 23.9696 19.6465 23.9487 19.7462 23.9072C19.846 23.8657 19.9365 23.8042 20.0127 23.7265C20.0889 23.6488 20.1491 23.5564 20.1898 23.4546C20.2305 23.3528 20.2509 23.2438 20.2498 23.1339C20.2487 23.024 20.2261 22.9154 20.1834 22.8145C20.1407 22.7137 20.0786 22.6225 20.0009 22.5464L18.5621 21.0781C18.5992 20.9393 18.6183 20.7961 18.619 20.6522C18.619 20.214 18.4485 19.7938 18.1448 19.4839C17.8412 19.1741 17.4294 19 17 19C16.8585 19.0001 16.7177 19.019 16.581 19.0565L9.47712 11.8072C9.40168 11.7281 9.31146 11.6652 9.2118 11.6222C9.11214 11.5793 9.00505 11.5572 8.89686 11.5571Z" fill="#6D9A74"></path> </svg> 