<?xml version="1.0" encoding="UTF-8"?> <svg xmlns="http://www.w3.org/2000/svg" width="259" height="69" viewBox="0 0 259 69" fill="none"> <path d="M78.322 33.5878L75.726 35.4578C76.078 36.1912 76.5693 36.8658 77.2 37.4818C77.8307 38.0978 78.5713 38.5892 79.422 38.9558C80.2873 39.3078 81.2187 39.4838 82.216 39.4838C82.9347 39.4838 83.6313 39.3738 84.306 39.1538C84.9953 38.9485 85.604 38.6405 86.132 38.2298C86.6747 37.8192 87.1 37.3132 87.408 36.7118C87.7307 36.0958 87.892 35.3992 87.892 34.6218C87.892 33.9765 87.7893 33.4045 87.584 32.9058C87.3787 32.4072 87.0927 31.9672 86.726 31.5858C86.374 31.2045 85.9633 30.8818 85.494 30.6178C85.0247 30.3392 84.5187 30.0972 83.976 29.8918C83.2573 29.6425 82.6413 29.4078 82.128 29.1878C81.6293 28.9678 81.2407 28.7258 80.962 28.4618C80.698 28.1978 80.566 27.8898 80.566 27.5378C80.566 27.2005 80.7053 26.9218 80.984 26.7018C81.2627 26.4672 81.666 26.3498 82.194 26.3498C82.59 26.3498 82.9567 26.4305 83.294 26.5918C83.646 26.7385 83.9613 26.9512 84.24 27.2298C84.5333 27.4938 84.79 27.8092 85.01 28.1758L87.848 26.5918C87.584 26.0638 87.2027 25.5432 86.704 25.0298C86.2053 24.5165 85.5747 24.0912 84.812 23.7538C84.064 23.4165 83.1767 23.2478 82.15 23.2478C81.1527 23.2478 80.2433 23.4238 79.422 23.7758C78.6153 24.1132 77.97 24.6118 77.486 25.2718C77.0167 25.9318 76.782 26.7165 76.782 27.6258C76.782 28.3885 76.9213 29.0412 77.2 29.5838C77.4787 30.1118 77.8307 30.5665 78.256 30.9478C78.6813 31.3145 79.1287 31.6152 79.598 31.8498C80.082 32.0845 80.5073 32.2678 80.874 32.3998C81.622 32.6785 82.2233 32.9278 82.678 33.1478C83.1327 33.3678 83.4627 33.6025 83.668 33.8518C83.8733 34.0865 83.976 34.4018 83.976 34.7978C83.976 35.2672 83.8 35.6412 83.448 35.9198C83.096 36.1838 82.6487 36.3158 82.106 36.3158C81.5927 36.3158 81.1013 36.2058 80.632 35.9858C80.1773 35.7658 79.752 35.4505 79.356 35.0398C78.9747 34.6292 78.63 34.1452 78.322 33.5878Z" fill="#2B2828"></path> <path d="M89.718 23.5998V38.9998H93.502V23.5998H89.718Z" fill="#2B2828"></path> <path d="M99.9549 32.0258L104.267 38.9998H108.623L103.805 32.0258H99.9549ZM96.1049 23.5998V38.9998H99.8229V23.5998H96.1049ZM98.4369 26.7458H101.451C101.95 26.7458 102.375 26.8265 102.727 26.9878C103.094 27.1492 103.372 27.3838 103.563 27.6918C103.754 27.9852 103.849 28.3445 103.849 28.7698C103.849 29.1952 103.754 29.5618 103.563 29.8698C103.372 30.1632 103.094 30.3905 102.727 30.5518C102.375 30.6985 101.95 30.7718 101.451 30.7718H98.4369V33.6538H101.715C103.035 33.6538 104.135 33.4412 105.015 33.0158C105.895 32.5905 106.562 32.0038 107.017 31.2558C107.472 30.4932 107.699 29.6205 107.699 28.6378C107.699 27.6405 107.472 26.7678 107.017 26.0198C106.562 25.2572 105.895 24.6632 105.015 24.2378C104.135 23.8125 103.035 23.5998 101.715 23.5998H98.4369V26.7458Z" fill="#2B2828"></path> <path d="M109.689 23.5998V38.9998H113.473V23.5998H109.689Z" fill="#2B2828"></path> <path d="M115.966 23.5998V33.9398C115.966 34.9078 116.12 35.7512 116.428 36.4698C116.751 37.1885 117.191 37.7825 117.748 38.2518C118.32 38.7065 118.98 39.0512 119.728 39.2858C120.476 39.5205 121.283 39.6378 122.148 39.6378C123.013 39.6378 123.82 39.5205 124.568 39.2858C125.331 39.0512 125.991 38.7065 126.548 38.2518C127.12 37.7825 127.56 37.1885 127.868 36.4698C128.191 35.7512 128.352 34.9078 128.352 33.9398V23.5998H124.634V33.6758C124.634 34.4532 124.429 35.0838 124.018 35.5678C123.607 36.0518 122.984 36.2938 122.148 36.2938C121.327 36.2938 120.711 36.0518 120.3 35.5678C119.889 35.0838 119.684 34.4532 119.684 33.6758V23.5998H115.966Z" fill="#2B2828"></path> <path d="M132.536 33.5878L129.94 35.4578C130.292 36.1912 130.783 36.8658 131.414 37.4818C132.044 38.0978 132.785 38.5892 133.636 38.9558C134.501 39.3078 135.432 39.4838 136.43 39.4838C137.148 39.4838 137.845 39.3738 138.52 39.1538C139.209 38.9485 139.818 38.6405 140.346 38.2298C140.888 37.8192 141.314 37.3132 141.622 36.7118C141.944 36.0958 142.106 35.3992 142.106 34.6218C142.106 33.9765 142.003 33.4045 141.798 32.9058C141.592 32.4072 141.306 31.9672 140.94 31.5858C140.588 31.2045 140.177 30.8818 139.708 30.6178C139.238 30.3392 138.732 30.0972 138.19 29.8918C137.471 29.6425 136.855 29.4078 136.342 29.1878C135.843 28.9678 135.454 28.7258 135.176 28.4618C134.912 28.1978 134.78 27.8898 134.78 27.5378C134.78 27.2005 134.919 26.9218 135.198 26.7018C135.476 26.4672 135.88 26.3498 136.408 26.3498C136.804 26.3498 137.17 26.4305 137.508 26.5918C137.86 26.7385 138.175 26.9512 138.454 27.2298C138.747 27.4938 139.004 27.8092 139.224 28.1758L142.062 26.5918C141.798 26.0638 141.416 25.5432 140.918 25.0298C140.419 24.5165 139.788 24.0912 139.026 23.7538C138.278 23.4165 137.39 23.2478 136.364 23.2478C135.366 23.2478 134.457 23.4238 133.636 23.7758C132.829 24.1132 132.184 24.6118 131.7 25.2718C131.23 25.9318 130.996 26.7165 130.996 27.6258C130.996 28.3885 131.135 29.0412 131.414 29.5838C131.692 30.1118 132.044 30.5665 132.47 30.9478C132.895 31.3145 133.342 31.6152 133.812 31.8498C134.296 32.0845 134.721 32.2678 135.088 32.3998C135.836 32.6785 136.437 32.9278 136.892 33.1478C137.346 33.3678 137.676 33.6025 137.882 33.8518C138.087 34.0865 138.19 34.4018 138.19 34.7978C138.19 35.2672 138.014 35.6412 137.662 35.9198C137.31 36.1838 136.862 36.3158 136.32 36.3158C135.806 36.3158 135.315 36.2058 134.846 35.9858C134.391 35.7658 133.966 35.4505 133.57 35.0398C133.188 34.6292 132.844 34.1452 132.536 33.5878Z" fill="#2B2828"></path> <path d="M153.035 31.2998C153.035 30.3465 153.248 29.5325 153.673 28.8578C154.099 28.1832 154.656 27.6698 155.345 27.3178C156.049 26.9658 156.819 26.7898 157.655 26.7898C158.389 26.7898 159.034 26.8852 159.591 27.0758C160.149 27.2518 160.647 27.5012 161.087 27.8238C161.527 28.1318 161.916 28.4618 162.253 28.8138V24.8098C161.637 24.3258 160.963 23.9445 160.229 23.6658C159.496 23.3872 158.565 23.2478 157.435 23.2478C156.203 23.2478 155.067 23.4385 154.025 23.8198C152.984 24.2012 152.089 24.7512 151.341 25.4698C150.593 26.1885 150.014 27.0392 149.603 28.0218C149.193 29.0045 148.987 30.0972 148.987 31.2998C148.987 32.5025 149.193 33.5952 149.603 34.5778C150.014 35.5605 150.593 36.4112 151.341 37.1298C152.089 37.8485 152.984 38.3985 154.025 38.7798C155.067 39.1612 156.203 39.3518 157.435 39.3518C158.565 39.3518 159.496 39.2125 160.229 38.9338C160.963 38.6552 161.637 38.2738 162.253 37.7898V33.7858C161.916 34.1378 161.527 34.4678 161.087 34.7758C160.647 35.0838 160.149 35.3332 159.591 35.5238C159.034 35.7145 158.389 35.8098 157.655 35.8098C156.819 35.8098 156.049 35.6338 155.345 35.2818C154.656 34.9298 154.099 34.4165 153.673 33.7418C153.248 33.0525 153.035 32.2385 153.035 31.2998Z" fill="#2B2828"></path> <path d="M164.633 23.5998V38.9998H174.533V35.8098H168.351V23.5998H164.633Z" fill="#2B2828"></path> <path d="M178.06 38.9998H185.826V35.9418H178.06V38.9998ZM178.06 26.6578H185.826V23.5998H178.06V26.6578ZM178.06 32.3998H185.386V29.4078H178.06V32.3998ZM175.596 23.5998V38.9998H179.16V23.5998H175.596Z" fill="#2B2828"></path> <path d="M190.612 36.0298H198.752L198.51 33.1918H190.876L190.612 36.0298ZM194.638 29.2538L196.816 34.2478L196.684 35.1938L198.532 38.9998H202.756L194.638 22.6318L186.542 38.9998H190.744L192.658 35.0398L192.482 34.2258L194.638 29.2538Z" fill="#2B2828"></path> <path d="M214.336 23.5998V32.2678L203.71 22.8298V38.9998H207.274V30.3318L217.922 39.7698V23.5998H214.336Z" fill="#2B2828"></path> <g clip-path="url(#clip0_189_597)"> <path d="M18.7843 9.22188L17.7567 10.1113C16.6957 11.0301 16.0126 12.2995 15.8362 13.6802C15.6598 15.0609 16.0022 16.4575 16.799 17.6066L17.5716 18.7231L16.6686 17.7127C15.7368 16.6689 14.4498 15.9966 13.0499 15.8221C11.65 15.6477 10.2336 15.9832 9.06725 16.7655L7.93384 17.5247L8.95957 16.6353C10.0201 15.7165 10.7028 14.4473 10.8789 13.067C11.055 11.6866 10.7123 10.2905 9.91541 9.14187L9.1447 8.02539L10.0476 9.03766C10.9806 10.0825 12.2694 10.7551 13.671 10.9285C15.0726 11.1019 16.4903 10.7643 17.6566 9.97922L18.7843 9.22188Z" fill="#D79895"></path> <path d="M61.9831 41.8434L61.2089 42.5231C60.4034 43.2259 59.8847 44.1994 59.7513 45.2587C59.6178 46.3179 59.879 47.3892 60.4851 48.269L61.0696 49.1186L60.3884 48.3463C59.6847 47.5476 58.7123 47.0336 57.6548 46.9013C56.5972 46.769 55.5277 47.0275 54.6482 47.628L53.7966 48.2072L54.5824 47.4967C55.378 46.7937 55.8891 45.8251 56.0195 44.7728C56.1499 43.7205 55.8908 42.6568 55.2907 41.7817L54.7101 40.9321L55.3913 41.7044C56.095 42.5031 57.0674 43.0171 58.1249 43.1494C59.1825 43.2817 60.252 43.0232 61.1315 42.4227L61.9831 41.8434Z" fill="#91AE91"></path> <path d="M69 33.7046C60.6974 33.2117 52.8018 29.993 46.5736 24.5625C38.2922 33.712 32.0037 42.9062 28.3616 50.7997C31.7039 56.0205 33.6532 61.9885 34.0287 68.1497C34.5853 59.193 38.4486 50.7463 44.8904 44.4014C51.3321 38.0566 59.9074 34.252 69 33.7046Z" fill="url(#paint0_linear_189_597)"></path> <path d="M69 33.7046C60.6974 33.2117 52.8018 29.993 46.5736 24.5625C38.2922 33.712 32.0037 42.9062 28.3616 50.7997C31.7039 56.0205 33.6532 61.9885 34.0287 68.1497C34.5853 59.193 38.4486 50.7463 44.8904 44.4014C51.3321 38.0566 59.9074 34.252 69 33.7046Z" fill="url(#paint1_linear_189_597)"></path> <path d="M38.6832 26.3935C40.3783 24.7237 42.0828 23.1179 43.7968 21.5759C38.5551 15.5185 35.4572 7.94506 34.9713 0C34.4171 8.95786 30.5547 17.4064 24.1126 23.7523C17.6704 30.0982 9.09373 33.9029 0 34.4488C8.65221 34.962 16.8512 38.4343 23.182 44.2664C27.8467 37.9031 33.031 31.9256 38.6832 26.3935Z" fill="url(#paint2_linear_189_597)"></path> <path d="M19.7799 65.4717C14.3679 60.1406 22.4509 43.5311 37.837 28.3769C44.8811 21.438 52.2331 16.0026 58.6558 12.6699C51.402 15.5932 42.3725 21.8027 33.8001 30.247C18.4141 45.4031 10.331 62.0107 15.7431 67.3437C18.6786 70.2335 24.9784 69.2157 32.5836 65.2633C26.824 67.5856 22.177 67.8331 19.7799 65.4717Z" fill="url(#paint3_linear_189_597)"></path> <path d="M29.2306 62.0296C23.811 56.691 31.9073 40.0573 47.3141 24.8807C49.8879 22.3404 52.5894 19.9289 55.4086 17.6553C50.771 20.5134 45.7595 24.4546 40.9179 29.2238C27.6759 42.268 20.7168 56.5626 25.377 61.1513C26.4235 62.184 27.9706 62.6399 29.8861 62.5692C29.6525 62.4079 29.4332 62.2274 29.2306 62.0296Z" fill="url(#paint4_linear_189_597)"></path> </g> <path d="M82.7 45.3202V54.0002H83.89V44.2002H76.12V54.0002H77.31V45.3202H82.7Z" fill="#827B7B"></path> <path d="M87.1078 57.0802V47.5602H85.9878V57.0802H87.1078ZM92.4978 50.7802C92.4978 50.0802 92.3531 49.4829 92.0638 48.9882C91.7745 48.4842 91.3871 48.0969 90.9018 47.8262C90.4258 47.5555 89.8938 47.4202 89.3058 47.4202C88.7738 47.4202 88.3025 47.5555 87.8918 47.8262C87.4905 48.0969 87.1731 48.4842 86.9398 48.9882C86.7158 49.4829 86.6038 50.0802 86.6038 50.7802C86.6038 51.4709 86.7158 52.0682 86.9398 52.5722C87.1731 53.0762 87.4905 53.4635 87.8918 53.7342C88.3025 54.0049 88.7738 54.1402 89.3058 54.1402C89.8938 54.1402 90.4258 54.0049 90.9018 53.7342C91.3871 53.4635 91.7745 53.0762 92.0638 52.5722C92.3531 52.0682 92.4978 51.4709 92.4978 50.7802ZM91.3638 50.7802C91.3638 51.2749 91.2611 51.6949 91.0558 52.0402C90.8598 52.3855 90.5938 52.6469 90.2578 52.8242C89.9311 53.0015 89.5671 53.0902 89.1658 53.0902C88.8391 53.0902 88.5171 53.0015 88.1998 52.8242C87.8825 52.6469 87.6211 52.3855 87.4158 52.0402C87.2105 51.6949 87.1078 51.2749 87.1078 50.7802C87.1078 50.2855 87.2105 49.8655 87.4158 49.5202C87.6211 49.1749 87.8825 48.9135 88.1998 48.7362C88.5171 48.5589 88.8391 48.4702 89.1658 48.4702C89.5671 48.4702 89.9311 48.5589 90.2578 48.7362C90.5938 48.9135 90.8598 49.1749 91.0558 49.5202C91.2611 49.8655 91.3638 50.2855 91.3638 50.7802Z" fill="#827B7B"></path> <path d="M93.4822 50.7802C93.4822 51.4242 93.6269 52.0029 93.9162 52.5162C94.2149 53.0202 94.6162 53.4169 95.1202 53.7062C95.6242 53.9955 96.1888 54.1402 96.8142 54.1402C97.4488 54.1402 98.0135 53.9955 98.5082 53.7062C99.0122 53.4169 99.4088 53.0202 99.6982 52.5162C99.9968 52.0029 100.146 51.4242 100.146 50.7802C100.146 50.1269 99.9968 49.5482 99.6982 49.0442C99.4088 48.5402 99.0122 48.1435 98.5082 47.8542C98.0135 47.5649 97.4488 47.4202 96.8142 47.4202C96.1888 47.4202 95.6242 47.5649 95.1202 47.8542C94.6162 48.1435 94.2149 48.5402 93.9162 49.0442C93.6269 49.5482 93.4822 50.1269 93.4822 50.7802ZM94.6162 50.7802C94.6162 50.3322 94.7095 49.9355 94.8962 49.5902C95.0922 49.2355 95.3535 48.9602 95.6802 48.7642C96.0162 48.5682 96.3942 48.4702 96.8142 48.4702C97.2342 48.4702 97.6075 48.5682 97.9342 48.7642C98.2702 48.9602 98.5315 49.2355 98.7182 49.5902C98.9142 49.9355 99.0122 50.3322 99.0122 50.7802C99.0122 51.2282 98.9142 51.6249 98.7182 51.9702C98.5315 52.3155 98.2702 52.5909 97.9342 52.7962C97.6075 52.9922 97.2342 53.0902 96.8142 53.0902C96.3942 53.0902 96.0162 52.9922 95.6802 52.7962C95.3535 52.5909 95.0922 52.3155 94.8962 51.9702C94.7095 51.6249 94.6162 51.2282 94.6162 50.7802Z" fill="#827B7B"></path> <path d="M104.177 46.1602V55.4002H105.297V46.1602H104.177ZM101.125 50.7802C101.125 51.4242 101.274 52.0029 101.573 52.5162C101.871 53.0202 102.291 53.4169 102.833 53.7062C103.383 53.9955 104.018 54.1402 104.737 54.1402C105.465 54.1402 106.099 53.9955 106.641 53.7062C107.182 53.4169 107.602 53.0202 107.901 52.5162C108.199 52.0029 108.349 51.4242 108.349 50.7802C108.349 50.1269 108.199 49.5482 107.901 49.0442C107.602 48.5402 107.182 48.1435 106.641 47.8542C106.099 47.5649 105.465 47.4202 104.737 47.4202C104.018 47.4202 103.383 47.5649 102.833 47.8542C102.291 48.1435 101.871 48.5402 101.573 49.0442C101.274 49.5482 101.125 50.1269 101.125 50.7802ZM102.259 50.7802C102.259 50.3322 102.357 49.9355 102.553 49.5902C102.758 49.2355 103.043 48.9602 103.407 48.7642C103.78 48.5682 104.223 48.4702 104.737 48.4702C105.25 48.4702 105.689 48.5682 106.053 48.7642C106.426 48.9602 106.711 49.2355 106.907 49.5902C107.112 49.9355 107.215 50.3322 107.215 50.7802C107.215 51.2282 107.112 51.6249 106.907 51.9702C106.711 52.3155 106.426 52.5909 106.053 52.7962C105.689 52.9922 105.25 53.0902 104.737 53.0902C104.223 53.0902 103.78 52.9922 103.407 52.7962C103.043 52.5909 102.758 52.3155 102.553 51.9702C102.357 51.6249 102.259 51.2282 102.259 50.7802Z" fill="#827B7B"></path> <path d="M110.042 51.0602H115.544C115.553 51.0042 115.558 50.9482 115.558 50.8922C115.558 50.8362 115.558 50.7802 115.558 50.7242C115.558 50.0429 115.432 49.4595 115.18 48.9742C114.928 48.4795 114.573 48.0969 114.116 47.8262C113.659 47.5555 113.127 47.4202 112.52 47.4202C111.969 47.4202 111.47 47.5322 111.022 47.7562C110.583 47.9802 110.224 48.2929 109.944 48.6942C109.664 49.0955 109.477 49.5622 109.384 50.0942C109.365 50.2062 109.351 50.3182 109.342 50.4302C109.333 50.5422 109.328 50.6589 109.328 50.7802C109.328 51.4242 109.459 52.0029 109.72 52.5162C109.991 53.0202 110.355 53.4169 110.812 53.7062C111.279 53.9955 111.801 54.1402 112.38 54.1402C112.94 54.1402 113.407 54.0749 113.78 53.9442C114.153 53.8042 114.471 53.6129 114.732 53.3702C114.993 53.1182 115.231 52.8289 115.446 52.5022L114.536 51.9282C114.396 52.1615 114.228 52.3669 114.032 52.5442C113.836 52.7122 113.612 52.8475 113.36 52.9502C113.117 53.0435 112.837 53.0902 112.52 53.0902C112.1 53.0902 111.736 53.0015 111.428 52.8242C111.12 52.6469 110.882 52.3855 110.714 52.0402C110.546 51.6949 110.462 51.2749 110.462 50.7802L110.49 50.3602C110.49 49.9589 110.579 49.6135 110.756 49.3242C110.943 49.0255 111.19 48.7969 111.498 48.6382C111.806 48.4795 112.147 48.4002 112.52 48.4002C112.893 48.4002 113.206 48.4749 113.458 48.6242C113.719 48.7642 113.92 48.9649 114.06 49.2262C114.209 49.4782 114.303 49.7722 114.34 50.1082H110.042V51.0602Z" fill="#827B7B"></path> <path d="M117.597 50.7802C117.597 50.3322 117.69 49.9355 117.877 49.5902C118.073 49.2355 118.334 48.9602 118.661 48.7642C118.997 48.5682 119.375 48.4702 119.795 48.4702C120.14 48.4702 120.462 48.5262 120.761 48.6382C121.069 48.7409 121.335 48.8809 121.559 49.0582C121.783 49.2355 121.942 49.4315 122.035 49.6462V48.2462C121.811 47.9849 121.489 47.7842 121.069 47.6442C120.658 47.4949 120.234 47.4202 119.795 47.4202C119.17 47.4202 118.605 47.5649 118.101 47.8542C117.597 48.1435 117.196 48.5402 116.897 49.0442C116.608 49.5482 116.463 50.1269 116.463 50.7802C116.463 51.4242 116.608 52.0029 116.897 52.5162C117.196 53.0202 117.597 53.4169 118.101 53.7062C118.605 53.9955 119.17 54.1402 119.795 54.1402C120.234 54.1402 120.658 54.0702 121.069 53.9302C121.489 53.7809 121.811 53.5755 122.035 53.3142V51.9142C121.942 52.1195 121.783 52.3155 121.559 52.5022C121.335 52.6795 121.069 52.8242 120.761 52.9362C120.462 53.0389 120.14 53.0902 119.795 53.0902C119.375 53.0902 118.997 52.9922 118.661 52.7962C118.334 52.5909 118.073 52.3155 117.877 51.9702C117.69 51.6249 117.597 51.2282 117.597 50.7802Z" fill="#827B7B"></path> <path d="M124.283 50.7802C124.283 50.3322 124.376 49.9355 124.563 49.5902C124.759 49.2355 125.02 48.9602 125.347 48.7642C125.683 48.5682 126.061 48.4702 126.481 48.4702C126.826 48.4702 127.148 48.5262 127.447 48.6382C127.755 48.7409 128.021 48.8809 128.245 49.0582C128.469 49.2355 128.627 49.4315 128.721 49.6462V48.2462C128.497 47.9849 128.175 47.7842 127.755 47.6442C127.344 47.4949 126.919 47.4202 126.481 47.4202C125.855 47.4202 125.291 47.5649 124.787 47.8542C124.283 48.1435 123.881 48.5402 123.583 49.0442C123.293 49.5482 123.149 50.1269 123.149 50.7802C123.149 51.4242 123.293 52.0029 123.583 52.5162C123.881 53.0202 124.283 53.4169 124.787 53.7062C125.291 53.9955 125.855 54.1402 126.481 54.1402C126.919 54.1402 127.344 54.0702 127.755 53.9302C128.175 53.7809 128.497 53.5755 128.721 53.3142V51.9142C128.627 52.1195 128.469 52.3155 128.245 52.5022C128.021 52.6795 127.755 52.8242 127.447 52.9362C127.148 53.0389 126.826 53.0902 126.481 53.0902C126.061 53.0902 125.683 52.9922 125.347 52.7962C125.02 52.5909 124.759 52.3155 124.563 51.9702C124.376 51.6249 124.283 51.2282 124.283 50.7802Z" fill="#827B7B"></path> <path d="M135.854 48.6802L135.924 47.0702L130.604 52.8802L130.534 54.4902L135.854 48.6802ZM131.654 47.5602H130.534V54.4902L131.654 52.9502V47.5602ZM135.924 47.0702L134.804 48.6102V54.0002H135.924V47.0702Z" fill="#827B7B"></path> <path d="M137.533 50.7802C137.533 51.4242 137.678 52.0029 137.967 52.5162C138.266 53.0202 138.667 53.4169 139.171 53.7062C139.675 53.9955 140.24 54.1402 140.865 54.1402C141.5 54.1402 142.064 53.9955 142.559 53.7062C143.063 53.4169 143.46 53.0202 143.749 52.5162C144.048 52.0029 144.197 51.4242 144.197 50.7802C144.197 50.1269 144.048 49.5482 143.749 49.0442C143.46 48.5402 143.063 48.1435 142.559 47.8542C142.064 47.5649 141.5 47.4202 140.865 47.4202C140.24 47.4202 139.675 47.5649 139.171 47.8542C138.667 48.1435 138.266 48.5402 137.967 49.0442C137.678 49.5482 137.533 50.1269 137.533 50.7802ZM138.667 50.7802C138.667 50.3322 138.76 49.9355 138.947 49.5902C139.143 49.2355 139.404 48.9602 139.731 48.7642C140.067 48.5682 140.445 48.4702 140.865 48.4702C141.285 48.4702 141.658 48.5682 141.985 48.7642C142.321 48.9602 142.582 49.2355 142.769 49.5902C142.965 49.9355 143.063 50.3322 143.063 50.7802C143.063 51.2282 142.965 51.6249 142.769 51.9702C142.582 52.3155 142.321 52.5909 141.985 52.7962C141.658 52.9922 141.285 53.0902 140.865 53.0902C140.445 53.0902 140.067 52.9922 139.731 52.7962C139.404 52.5909 139.143 52.3155 138.947 51.9702C138.76 51.6249 138.667 51.2282 138.667 50.7802Z" fill="#827B7B"></path> <path d="M146.394 51.1302H151.154V50.0802H146.394V51.1302ZM150.426 47.5602V54.0002H151.546V47.5602H150.426ZM145.736 47.5602V54.0002H146.856V47.5602H145.736Z" fill="#827B7B"></path> <path d="M154.156 52.1102C154.156 51.8489 154.216 51.6249 154.338 51.4382C154.459 51.2515 154.641 51.1069 154.884 51.0042C155.136 50.9015 155.448 50.8502 155.822 50.8502C156.232 50.8502 156.601 50.9062 156.928 51.0182C157.254 51.1209 157.576 51.2842 157.894 51.5082V50.8502C157.828 50.7662 157.707 50.6589 157.53 50.5282C157.352 50.3882 157.114 50.2669 156.816 50.1642C156.526 50.0522 156.176 49.9962 155.766 49.9962C155.206 49.9962 154.72 50.0849 154.31 50.2622C153.899 50.4302 153.582 50.6729 153.358 50.9902C153.134 51.3075 153.022 51.6949 153.022 52.1522C153.022 52.5909 153.12 52.9595 153.316 53.2582C153.521 53.5475 153.792 53.7669 154.128 53.9162C154.464 54.0655 154.832 54.1402 155.234 54.1402C155.682 54.1402 156.088 54.0655 156.452 53.9162C156.816 53.7575 157.105 53.5335 157.32 53.2442C157.544 52.9455 157.656 52.5909 157.656 52.1802L157.432 51.4802C157.432 51.8815 157.348 52.2035 157.18 52.4462C157.021 52.6889 156.797 52.8662 156.508 52.9782C156.218 53.0902 155.887 53.1462 155.514 53.1462C155.262 53.1462 155.033 53.1089 154.828 53.0342C154.622 52.9502 154.459 52.8335 154.338 52.6842C154.216 52.5255 154.156 52.3342 154.156 52.1102ZM154.156 49.0722C154.258 48.9975 154.398 48.9089 154.576 48.8062C154.762 48.6942 154.982 48.6009 155.234 48.5262C155.486 48.4422 155.766 48.4002 156.074 48.4002C156.428 48.4002 156.741 48.4842 157.012 48.6522C157.292 48.8109 157.432 49.0535 157.432 49.3802V54.0002H158.552V49.3802C158.552 48.9602 158.444 48.6055 158.23 48.3162C158.024 48.0269 157.735 47.8075 157.362 47.6582C156.998 47.4995 156.568 47.4202 156.074 47.4202C155.495 47.4202 155 47.5089 154.59 47.6862C154.179 47.8635 153.852 48.0409 153.61 48.2182L154.156 49.0722Z" fill="#827B7B"></path> <path d="M166.088 47.5602H160.558V51.7602C160.558 52.2175 160.456 52.5349 160.25 52.7122C160.054 52.8895 159.816 52.9782 159.536 52.9782V54.0002C160.022 54.0002 160.423 53.9209 160.74 53.7622C161.058 53.5942 161.291 53.3469 161.44 53.0202C161.599 52.6842 161.678 52.2642 161.678 51.7602V48.6102H164.968V54.0002H166.088V47.5602Z" fill="#827B7B"></path> <path d="M168.253 47.5602V54.0002H169.373V47.5602H168.253ZM168.911 50.9762H170.913C171.324 50.9762 171.632 51.0649 171.837 51.2422C172.042 51.4195 172.145 51.6715 172.145 51.9982C172.145 52.2129 172.098 52.3995 172.005 52.5582C171.912 52.7075 171.772 52.8242 171.585 52.9082C171.408 52.9829 171.184 53.0202 170.913 53.0202H168.911V54.0002H170.913C171.361 54.0002 171.762 53.9302 172.117 53.7902C172.472 53.6502 172.752 53.4309 172.957 53.1322C173.162 52.8335 173.265 52.4555 173.265 51.9982C173.265 51.3075 173.036 50.8035 172.579 50.4862C172.131 50.1595 171.576 49.9962 170.913 49.9962H168.911V50.9762Z" fill="#827B7B"></path> <path d="M175.679 51.1302H180.439V50.0802H175.679V51.1302ZM179.711 47.5602V54.0002H180.831V47.5602H179.711ZM175.021 47.5602V54.0002H176.141V47.5602H175.021Z" fill="#827B7B"></path> <path d="M183.441 52.1102C183.441 51.8489 183.501 51.6249 183.623 51.4382C183.744 51.2515 183.926 51.1069 184.169 51.0042C184.421 50.9015 184.733 50.8502 185.107 50.8502C185.517 50.8502 185.886 50.9062 186.213 51.0182C186.539 51.1209 186.861 51.2842 187.179 51.5082V50.8502C187.113 50.7662 186.992 50.6589 186.815 50.5282C186.637 50.3882 186.399 50.2669 186.101 50.1642C185.811 50.0522 185.461 49.9962 185.051 49.9962C184.491 49.9962 184.005 50.0849 183.595 50.2622C183.184 50.4302 182.867 50.6729 182.643 50.9902C182.419 51.3075 182.307 51.6949 182.307 52.1522C182.307 52.5909 182.405 52.9595 182.601 53.2582C182.806 53.5475 183.077 53.7669 183.413 53.9162C183.749 54.0655 184.117 54.1402 184.519 54.1402C184.967 54.1402 185.373 54.0655 185.737 53.9162C186.101 53.7575 186.39 53.5335 186.605 53.2442C186.829 52.9455 186.941 52.5909 186.941 52.1802L186.717 51.4802C186.717 51.8815 186.633 52.2035 186.465 52.4462C186.306 52.6889 186.082 52.8662 185.793 52.9782C185.503 53.0902 185.172 53.1462 184.799 53.1462C184.547 53.1462 184.318 53.1089 184.113 53.0342C183.907 52.9502 183.744 52.8335 183.623 52.6842C183.501 52.5255 183.441 52.3342 183.441 52.1102ZM183.441 49.0722C183.543 48.9975 183.683 48.9089 183.861 48.8062C184.047 48.6942 184.267 48.6009 184.519 48.5262C184.771 48.4422 185.051 48.4002 185.359 48.4002C185.713 48.4002 186.026 48.4842 186.297 48.6522C186.577 48.8109 186.717 49.0535 186.717 49.3802V54.0002H187.837V49.3802C187.837 48.9602 187.729 48.6055 187.515 48.3162C187.309 48.0269 187.02 47.8075 186.647 47.6582C186.283 47.4995 185.853 47.4202 185.359 47.4202C184.78 47.4202 184.285 47.5089 183.875 47.6862C183.464 47.8635 183.137 48.0409 182.895 48.2182L183.441 49.0722Z" fill="#827B7B"></path> <path d="M190.656 54.0002L193.036 50.6402H191.804L189.424 54.0002H190.656ZM194.744 54.0002V47.5602H193.624V54.0002H194.744ZM194.086 50.4442H192.084C191.813 50.4442 191.584 50.4115 191.398 50.3462C191.22 50.2715 191.085 50.1642 190.992 50.0242C190.898 49.8842 190.852 49.7069 190.852 49.4922C190.852 49.2775 190.898 49.1002 190.992 48.9602C191.085 48.8202 191.22 48.7175 191.398 48.6522C191.584 48.5775 191.813 48.5402 192.084 48.5402H194.086V47.5602H192.084C191.645 47.5602 191.244 47.6255 190.88 47.7562C190.525 47.8869 190.245 48.0922 190.04 48.3722C189.834 48.6522 189.732 49.0255 189.732 49.4922C189.732 49.9495 189.834 50.3229 190.04 50.6122C190.245 50.8922 190.525 51.0975 190.88 51.2282C191.244 51.3589 191.645 51.4242 192.084 51.4242H194.086V50.4442Z" fill="#827B7B"></path> <path d="M204.126 47.5602L202.586 49.8002L201.046 47.5602H199.786L201.984 50.6822L199.646 54.0002H200.906L202.586 51.5642L204.266 54.0002H205.526L203.188 50.6822L205.386 47.5602H204.126Z" fill="#827B7B"></path> <path d="M211.965 48.6802L212.035 47.0702L206.715 52.8802L206.645 54.4902L211.965 48.6802ZM207.765 47.5602H206.645V54.4902L207.765 52.9502V47.5602ZM212.035 47.0702L210.915 48.6102V54.0002H212.035V47.0702Z" fill="#827B7B"></path> <path d="M220.322 54.0002H221.582L219.902 47.0702L219.272 48.8902L220.322 54.0002ZM216.962 53.0342L217.382 54.4342L220.042 49.3102L219.902 47.0702L216.962 53.0342ZM217.382 54.4342L217.802 53.0342L214.904 47.0702L214.764 49.3102L217.382 54.4342ZM213.224 54.0002H214.484L215.534 48.8902L214.904 47.0702L213.224 54.0002Z" fill="#827B7B"></path> <path d="M224.878 52.0402H227.076V50.9902H224.878V52.0402ZM226.278 47.5602V54.0002H227.398V47.5602H226.278ZM223.478 47.5602H222.358V49.4082C222.358 50.0335 222.433 50.5422 222.582 50.9342C222.732 51.3169 222.988 51.5969 223.352 51.7742C223.726 51.9515 224.234 52.0402 224.878 52.0402V50.9902C224.524 50.9902 224.244 50.9389 224.038 50.8362C223.833 50.7242 223.688 50.5515 223.604 50.3182C223.52 50.0849 223.478 49.7815 223.478 49.4082V47.5602Z" fill="#827B7B"></path> <path d="M234.893 48.6802L234.963 47.0702L229.643 52.8802L229.573 54.4902L234.893 48.6802ZM230.693 47.5602H229.573V54.4902L230.693 52.9502V47.5602ZM234.963 47.0702L233.843 48.6102V54.0002H234.963V47.0702Z" fill="#827B7B"></path> <path d="M237.636 50.7802C237.636 50.3322 237.729 49.9355 237.916 49.5902C238.112 49.2355 238.373 48.9602 238.7 48.7642C239.036 48.5682 239.414 48.4702 239.834 48.4702C240.179 48.4702 240.501 48.5262 240.8 48.6382C241.108 48.7409 241.374 48.8809 241.598 49.0582C241.822 49.2355 241.981 49.4315 242.074 49.6462V48.2462C241.85 47.9849 241.528 47.7842 241.108 47.6442C240.697 47.4949 240.273 47.4202 239.834 47.4202C239.209 47.4202 238.644 47.5649 238.14 47.8542C237.636 48.1435 237.235 48.5402 236.936 49.0442C236.647 49.5482 236.502 50.1269 236.502 50.7802C236.502 51.4242 236.647 52.0029 236.936 52.5162C237.235 53.0202 237.636 53.4169 238.14 53.7062C238.644 53.9955 239.209 54.1402 239.834 54.1402C240.273 54.1402 240.697 54.0702 241.108 53.9302C241.528 53.7809 241.85 53.5755 242.074 53.3142V51.9142C241.981 52.1195 241.822 52.3155 241.598 52.5022C241.374 52.6795 241.108 52.8242 240.8 52.9362C240.501 53.0389 240.179 53.0902 239.834 53.0902C239.414 53.0902 239.036 52.9922 238.7 52.7962C238.373 52.5909 238.112 52.3155 237.916 51.9702C237.729 51.6249 237.636 51.2282 237.636 50.7802Z" fill="#827B7B"></path> <path d="M242.838 47.5602V48.6102H246.618V47.5602H242.838ZM244.168 47.8402V54.0002H245.288V47.8402H244.168Z" fill="#827B7B"></path> <path d="M247.671 47.5602V54.0002H248.791V47.5602H247.671ZM251.171 47.5602L248.371 50.2202L251.451 54.0002H252.851L249.771 50.2202L252.571 47.5602H251.171Z" fill="#827B7B"></path> <path d="M254.411 52.1102C254.411 51.8489 254.472 51.6249 254.593 51.4382C254.715 51.2515 254.897 51.1069 255.139 51.0042C255.391 50.9015 255.704 50.8502 256.077 50.8502C256.488 50.8502 256.857 50.9062 257.183 51.0182C257.51 51.1209 257.832 51.2842 258.149 51.5082V50.8502C258.084 50.7662 257.963 50.6589 257.785 50.5282C257.608 50.3882 257.37 50.2669 257.071 50.1642C256.782 50.0522 256.432 49.9962 256.021 49.9962C255.461 49.9962 254.976 50.0849 254.565 50.2622C254.155 50.4302 253.837 50.6729 253.613 50.9902C253.389 51.3075 253.277 51.6949 253.277 52.1522C253.277 52.5909 253.375 52.9595 253.571 53.2582C253.777 53.5475 254.047 53.7669 254.383 53.9162C254.719 54.0655 255.088 54.1402 255.489 54.1402C255.937 54.1402 256.343 54.0655 256.707 53.9162C257.071 53.7575 257.361 53.5335 257.575 53.2442C257.799 52.9455 257.911 52.5909 257.911 52.1802L257.687 51.4802C257.687 51.8815 257.603 52.2035 257.435 52.4462C257.277 52.6889 257.053 52.8662 256.763 52.9782C256.474 53.0902 256.143 53.1462 255.769 53.1462C255.517 53.1462 255.289 53.1089 255.083 53.0342C254.878 52.9502 254.715 52.8335 254.593 52.6842C254.472 52.5255 254.411 52.3342 254.411 52.1102ZM254.411 49.0722C254.514 48.9975 254.654 48.9089 254.831 48.8062C255.018 48.6942 255.237 48.6009 255.489 48.5262C255.741 48.4422 256.021 48.4002 256.329 48.4002C256.684 48.4002 256.997 48.4842 257.267 48.6522C257.547 48.8109 257.687 49.0535 257.687 49.3802V54.0002H258.807V49.3802C258.807 48.9602 258.7 48.6055 258.485 48.3162C258.28 48.0269 257.991 47.8075 257.617 47.6582C257.253 47.4995 256.824 47.4202 256.329 47.4202C255.751 47.4202 255.256 47.5089 254.845 47.6862C254.435 47.8635 254.108 48.0409 253.865 48.2182L254.411 49.0722Z" fill="#827B7B"></path> <path d="M234.85 18.1965L233.823 19.0859C232.762 20.0047 232.079 21.2741 231.902 22.6548C231.726 24.0355 232.068 25.4321 232.865 26.5812L233.638 27.6977L232.735 26.6873C231.803 25.6435 230.516 24.9712 229.116 24.7967C227.716 24.6223 226.3 24.9578 225.133 25.7401L224 26.4993L225.026 25.6099C226.086 24.6912 226.769 23.4219 226.945 22.0416C227.121 20.6612 226.778 19.2651 225.982 18.1165L225.211 17L226.114 18.0123C227.047 19.0571 228.336 19.7297 229.737 19.9031C231.139 20.0766 232.556 19.7389 233.723 18.9538L234.85 18.1965Z" fill="#D79895"></path> <defs> <linearGradient id="paint0_linear_189_597" x1="-17.9663" y1="2.94939" x2="225.012" y2="2.94939" gradientUnits="userSpaceOnUse"> <stop stop-color="#709873"></stop> <stop offset="1" stop-color="#B3C5AF"></stop> </linearGradient> <linearGradient id="paint1_linear_189_597" x1="63.0003" y1="52.5001" x2="37.2655" y2="34.8823" gradientUnits="userSpaceOnUse"> <stop offset="0.512653" stop-color="#E2B5B1"></stop> <stop offset="0.920764" stop-color="#C56E6C"></stop> </linearGradient> <linearGradient id="paint2_linear_189_597" x1="25.5" y1="35.5" x2="40.5" y2="-4.5" gradientUnits="userSpaceOnUse"> <stop stop-color="#709873"></stop> <stop offset="0.70625" stop-color="#B3C5AF"></stop> </linearGradient> <linearGradient id="paint3_linear_189_597" x1="58.6558" y1="40.8347" x2="14.6796" y2="40.9533" gradientUnits="userSpaceOnUse"> <stop stop-color="#E2B5B1"></stop> <stop offset="1" stop-color="#C56E6C"></stop> </linearGradient> <linearGradient id="paint4_linear_189_597" x1="42.2574" y1="53.6803" x2="61.4037" y2="17.5174" gradientUnits="userSpaceOnUse"> <stop stop-color="#709873"></stop> <stop offset="0.70625" stop-color="#B3C5AF"></stop> </linearGradient> <clipPath id="clip0_189_597"> <rect width="69" height="69" fill="white"></rect> </clipPath> </defs> </svg> 