<?xml version="1.0" encoding="UTF-8"?> <svg xmlns="http://www.w3.org/2000/svg" width="18" height="18" viewBox="0 0 18 18" fill="none"> <path fill-rule="evenodd" clip-rule="evenodd" d="M14.043 0.5C14.043 0.223858 14.2668 7.45058e-09 14.543 7.45058e-09H17.4995C17.7756 7.45058e-09 17.9995 0.223858 17.9995 0.5C17.9995 0.776142 17.7756 1 17.4995 1H14.543C14.2668 1 14.043 0.776142 14.043 0.5Z" fill="#7A7E83"></path> <path fill-rule="evenodd" clip-rule="evenodd" d="M17.4995 7.45058e-09C17.7756 7.45058e-09 17.9995 0.223858 17.9995 0.5L18 3.45652C18 3.73266 17.7761 3.95652 17.5 3.95652C17.2239 3.95652 17 3.73266 17 3.45652V0.5C17 0.223858 17.2233 7.45058e-09 17.4995 7.45058e-09Z" fill="#7A7E83"></path> <path fill-rule="evenodd" clip-rule="evenodd" d="M17.5 14.0435C17.7761 14.0435 18 14.2673 18 14.5435V17.5C18 17.7761 17.7761 18 17.5 18C17.2239 18 17 17.7761 17 17.5V14.5435C17 14.2673 17.2239 14.0435 17.5 14.0435Z" fill="#7A7E83"></path> <path fill-rule="evenodd" clip-rule="evenodd" d="M14.043 17.5C14.043 17.2239 14.2668 17 14.543 17H17.4995C17.7757 17 18 17.2238 18 17.5C18 17.7761 17.7761 18 17.5 18L14.543 18C14.2668 18 14.043 17.7761 14.043 17.5Z" fill="#7A7E83"></path> <path fill-rule="evenodd" clip-rule="evenodd" d="M7.45058e-09 17.5C7.45058e-09 17.2239 0.223858 17 0.5 17H3.45652C3.73266 17 3.95652 17.2239 3.95652 17.5C3.95652 17.7762 3.73266 18 3.45652 18H0.5C0.223858 18 7.45058e-09 17.7762 7.45058e-09 17.5Z" fill="#7A7E83"></path> <path fill-rule="evenodd" clip-rule="evenodd" d="M0.5 14.0435C0.776142 14.0435 1 14.2673 1 14.5435V17.5C1 17.7761 0.776142 18 0.5 18C0.223858 18 7.45058e-09 17.7762 7.45058e-09 17.5V14.5435C7.45058e-09 14.2673 0.223858 14.0435 0.5 14.0435Z" fill="#7A7E83"></path> <path fill-rule="evenodd" clip-rule="evenodd" d="M0.5 7.45058e-09C0.776142 7.45058e-09 1 0.223858 1 0.5V3.45652C1 3.73266 0.776142 3.95652 0.5 3.95652C0.223858 3.95652 7.45058e-09 3.73266 7.45058e-09 3.45652V0.5C7.45058e-09 0.223858 0.223858 7.45058e-09 0.5 7.45058e-09Z" fill="#7A7E83"></path> <path fill-rule="evenodd" clip-rule="evenodd" d="M7.45058e-09 0.5C7.45058e-09 0.223858 0.223858 7.45058e-09 0.5 7.45058e-09H3.45652C3.73266 7.45058e-09 3.95652 0.223858 3.95652 0.5C3.95652 0.776142 3.73266 1 3.45652 1H0.5C0.223858 1 7.45058e-09 0.776142 7.45058e-09 0.5Z" fill="#7A7E83"></path> <path fill-rule="evenodd" clip-rule="evenodd" d="M12.0468 12.0465C12.2421 11.8513 12.5587 11.8513 12.7539 12.0465L17.8539 17.1465C18.0492 17.3418 18.0492 17.6584 17.8539 17.8536C17.6587 18.0489 17.3421 18.0489 17.1468 17.8536L12.0468 12.7536C11.8516 12.5584 11.8516 12.2418 12.0468 12.0465Z" fill="#838383"></path> <path fill-rule="evenodd" clip-rule="evenodd" d="M0.146447 0.146447C0.341709 -0.0488155 0.658291 -0.0488155 0.853553 0.146447L5.95355 5.24645C6.14882 5.44171 6.14882 5.75829 5.95355 5.95355C5.75829 6.14882 5.44171 6.14882 5.24645 5.95355L0.146447 0.853553C-0.0488155 0.658291 -0.0488155 0.341709 0.146447 0.146447Z" fill="#838383"></path> <path fill-rule="evenodd" clip-rule="evenodd" d="M5.95355 12.0465C6.14882 12.2418 6.14882 12.5584 5.95355 12.7536L0.853554 17.8536C0.658291 18.0489 0.341709 18.0489 0.146447 17.8536C-0.0488155 17.6584 -0.0488155 17.3418 0.146447 17.1465L5.24645 12.0465C5.44171 11.8513 5.75829 11.8513 5.95355 12.0465Z" fill="#838383"></path> <path fill-rule="evenodd" clip-rule="evenodd" d="M17.8539 0.146447C18.0492 0.341709 18.0492 0.658291 17.8539 0.853554L12.7539 5.95355C12.5587 6.14882 12.2421 6.14882 12.0468 5.95355C11.8516 5.75829 11.8516 5.44171 12.0468 5.24645L17.1468 0.146447C17.3421 -0.0488155 17.6587 -0.0488155 17.8539 0.146447Z" fill="#838383"></path> </svg> 