<?xml version="1.0" encoding="UTF-8"?> <svg xmlns="http://www.w3.org/2000/svg" width="353" height="349" viewBox="0 0 353 349" fill="none"> <path fill-rule="evenodd" clip-rule="evenodd" d="M138.765 307.604C96.344 291.262 46.7842 284.867 22.8131 246.237C-2.98531 204.662 -5.88312 150.384 13.2608 105.351C31.5056 62.4337 75.5181 39.6609 118.409 21.3635C158.856 4.10856 202.409 -6.13726 244.458 6.72233C288.211 20.1035 328.533 48.7497 346.105 90.9993C363.02 131.668 344.428 175.061 332.055 217.336C318.57 263.41 316.01 322.116 272.516 342.428C229.119 362.695 183.457 324.82 138.765 307.604Z" fill="#6D9A74"></path> <path fill-rule="evenodd" clip-rule="evenodd" d="M138.765 307.604C96.344 291.262 46.7842 284.867 22.8131 246.237C-2.98531 204.662 -5.88312 150.384 13.2608 105.351C31.5056 62.4337 75.5181 39.6609 118.409 21.3635C158.856 4.10856 202.409 -6.13726 244.458 6.72233C288.211 20.1035 328.533 48.7497 346.105 90.9993C363.02 131.668 344.428 175.061 332.055 217.336C318.57 263.41 316.01 322.116 272.516 342.428C229.119 362.695 183.457 324.82 138.765 307.604Z" fill="url(#paint0_linear_189_701)" fill-opacity="0.65"></path> <defs> <linearGradient id="paint0_linear_189_701" x1="125.696" y1="137.932" x2="340.326" y2="213.326" gradientUnits="userSpaceOnUse"> <stop stop-color="#6D9A74"></stop> <stop offset="1" stop-color="#A6CDAC"></stop> </linearGradient> </defs> </svg> 