<?xml version="1.0" encoding="UTF-8"?> <svg xmlns="http://www.w3.org/2000/svg" width="27" height="27" viewBox="0 0 27 27" fill="none"> <path opacity="0.1" fill-rule="evenodd" clip-rule="evenodd" d="M4.20711 4.20711C2.65011 5.7641 2 8.49285 2 13.5C2 18.5071 2.65011 21.2359 4.20711 22.7929C5.7641 24.3499 8.49285 25 13.5 25C18.5071 25 21.2359 24.3499 22.7929 22.7929C24.3499 21.2359 25 18.5071 25 13.5C25 8.49285 24.3499 5.7641 22.7929 4.20711C21.2359 2.65011 18.5071 2 13.5 2C8.49285 2 5.7641 2.65011 4.20711 4.20711ZM2.79289 2.79289C4.9859 0.599886 8.50715 0 13.5 0C18.4929 0 22.0141 0.599886 24.2071 2.79289C26.4001 4.9859 27 8.50715 27 13.5C27 18.4929 26.4001 22.0141 24.2071 24.2071C22.0141 26.4001 18.4929 27 13.5 27C8.50715 27 4.9859 26.4001 2.79289 24.2071C0.599886 22.0141 0 18.4929 0 13.5C0 8.50715 0.599886 4.9859 2.79289 2.79289ZM13.5 7.55556C13.0285 7.55556 12.5763 7.74286 12.2429 8.07625C11.9095 8.40965 11.7222 8.86184 11.7222 9.33333V11.1111H15.2778V9.33333C15.2778 8.86184 15.0905 8.40965 14.7571 8.07625C14.4237 7.74286 13.9715 7.55556 13.5 7.55556ZM17.2778 11.1111V9.33333C17.2778 8.3314 16.8798 7.37051 16.1713 6.66204C15.4628 5.95357 14.5019 5.55556 13.5 5.55556C12.4981 5.55556 11.5372 5.95357 10.8287 6.66204C10.1202 7.37051 9.72222 8.3314 9.72222 9.33333V11.1111H9.33333C8.69976 11.1111 8.09214 11.3628 7.64413 11.8108C7.19613 12.2588 6.94444 12.8664 6.94444 13.5V17.6667C6.94444 18.3002 7.19613 18.9079 7.64413 19.3559C8.09214 19.8039 8.69976 20.0556 9.33333 20.0556H17.6667C18.3002 20.0556 18.9079 19.8039 19.3559 19.3559C19.8039 18.9079 20.0556 18.3002 20.0556 17.6667V13.5C20.0556 12.8664 19.8039 12.2588 19.3559 11.8108C18.9079 11.3628 18.3002 11.1111 17.6667 11.1111H17.2778ZM9.33333 13.1111C9.23019 13.1111 9.13128 13.1521 9.05835 13.225C8.98542 13.2979 8.94444 13.3969 8.94444 13.5V17.6667C8.94444 17.7698 8.98542 17.8687 9.05835 17.9417C9.13128 18.0146 9.23019 18.0556 9.33333 18.0556H17.6667C17.7698 18.0556 17.8687 18.0146 17.9417 17.9417C18.0146 17.8687 18.0556 17.7698 18.0556 17.6667V13.5C18.0556 13.3969 18.0146 13.2979 17.9417 13.225C17.8687 13.1521 17.7698 13.1111 17.6667 13.1111H9.33333Z" fill="black"></path> </svg> 