<?xml version="1.0" encoding="UTF-8"?> <svg xmlns="http://www.w3.org/2000/svg" width="1920" height="1200" viewBox="0 0 1920 1200" fill="none"> <g clip-path="url(#clip0_220_777)"> <rect width="1920" height="1200" fill="white"></rect> <g opacity="0.1"> <path d="M-240 0H360V600H-240V0Z" fill="#E1EBFB"></path> <path d="M-240 0H60V600H-240V0Z" fill="#E1EBFB"></path> <path d="M60 0C60 165.685 194.315 300 360 300V0H60Z" fill="#EE8885"></path> <path d="M60 600C60 434.315 194.315 300 360 300V600H60Z" fill="#A6CDAC"></path> <path d="M960 0H360V600H960V0Z" fill="#A6CDAC"></path> <path d="M960 600H360L960 0V600Z" fill="#B1B1B1"></path> <path d="M-240 1200V600H360V1200H-240Z" fill="#A6CDAC"></path> <path d="M-240 1200V900H360V1200H-240Z" fill="#B1B1B1"></path> <path d="M360 900C194.315 900 60 765.685 60 600H360V900Z" fill="#EE8885"></path> <path d="M960 600V1200H360V600H960Z" fill="#A6CDAC"></path> <path d="M960 1200C960 1121.21 944.481 1043.19 914.328 970.39C884.175 897.595 839.979 831.451 784.264 775.736C728.549 720.021 662.405 675.825 589.61 645.672C516.815 615.519 438.793 600 360 600V1200H960Z" fill="#E1EBFB"></path> <path d="M660 1200C660 1160.6 652.24 1121.59 637.164 1085.19C622.087 1048.8 599.99 1015.73 572.132 987.868C544.274 960.01 511.203 937.913 474.805 922.836C438.407 907.76 399.397 900 360 900V1200H660Z" fill="#EE8885"></path> <path d="M2160 1200H1560V600H2160V1200Z" fill="#E1EBFB"></path> <path d="M2160 1200H1860V600H2160V1200Z" fill="#E1EBFB"></path> <path d="M1860 1200C1860 1034.31 1725.69 900 1560 900V1200H1860Z" fill="#EE8885"></path> <path d="M1860 600C1860 765.685 1725.69 900 1560 900V600H1860Z" fill="#A6CDAC"></path> <path d="M960 1200H1560V600H960V1200Z" fill="#A6CDAC"></path> <path d="M960 600H1560L960 1200V600Z" fill="#B1B1B1"></path> <path d="M2160 0V600H1560V0H2160Z" fill="#A6CDAC"></path> <path d="M2160 0V300H1560V0H2160Z" fill="#B1B1B1"></path> <path d="M1560 300C1725.69 300 1860 434.315 1860 600H1560V300Z" fill="#EE8885"></path> <path d="M960 600V0H1560V600H960Z" fill="#A6CDAC"></path> <path d="M960 0C960 78.7931 975.519 156.815 1005.67 229.61C1035.82 302.405 1080.02 368.549 1135.74 424.264C1191.45 479.979 1257.59 524.175 1330.39 554.328C1403.19 584.481 1481.21 600 1560 600V0H960Z" fill="#E1EBFB"></path> <path d="M1260 0C1260 39.3966 1267.76 78.4073 1282.84 114.805C1297.91 151.203 1320.01 184.274 1347.87 212.132C1375.73 239.99 1408.8 262.087 1445.19 277.164C1481.59 292.24 1520.6 300 1560 300V0H1260Z" fill="#EE8885"></path> </g> <circle cx="1455" cy="235" r="184.5" stroke="#BABABA" stroke-dasharray="3 7"></circle> <path opacity="0.1" d="M1616.68 315.104C1615.73 316.736 1613.79 317.836 1610.79 318.339C1607.79 318.841 1603.83 318.732 1598.99 318.03C1589.32 316.627 1576.28 312.878 1560.78 307.109C1529.8 295.573 1489.08 275.994 1445.97 251.104C1402.86 226.215 1365.55 200.739 1340.06 179.676C1327.32 169.142 1317.56 159.727 1311.5 152.052C1308.48 148.213 1306.4 144.834 1305.34 141.986C1304.27 139.133 1304.25 136.901 1305.19 135.269C1306.14 133.637 1308.08 132.537 1311.08 132.033C1314.08 131.531 1318.05 131.641 1322.88 132.343C1332.56 133.745 1345.59 137.495 1361.09 143.264C1392.07 154.8 1432.79 174.379 1475.9 199.268C1519.01 224.158 1556.33 249.634 1581.81 270.697C1594.55 281.231 1604.32 290.646 1610.37 298.321C1613.39 302.16 1615.47 305.539 1616.53 308.386C1617.6 311.24 1617.62 313.471 1616.68 315.104Z" stroke="black"></path> </g> <defs> <clipPath id="clip0_220_777"> <rect width="1920" height="1200" fill="white"></rect> </clipPath> </defs> </svg> 