<?xml version="1.0" encoding="UTF-8"?> <svg xmlns="http://www.w3.org/2000/svg" width="1920" height="808" viewBox="0 0 1920 808" fill="none"> <rect width="1920" height="808" fill="#FCF8F4"></rect> <g opacity="0.3"> <path d="M1356.17 707.6C1250 707.6 1143.83 667.183 1063 586.349L1067.73 581.624C1226.78 740.678 1485.57 740.678 1644.62 581.624C1803.68 422.569 1803.68 163.78 1644.62 4.72534L1649.35 0C1811.02 161.668 1811.02 424.714 1649.35 586.349C1568.51 667.183 1462.34 707.6 1356.17 707.6Z" fill="#EAE3DC"></path> <path d="M1356.18 671.674C1259.22 671.674 1162.23 634.776 1088.4 560.946L1093.13 556.221C1238.18 701.267 1474.14 701.267 1619.15 556.221C1764.2 411.175 1764.2 175.208 1619.15 30.196L1623.88 25.4706C1771.51 173.097 1771.51 413.354 1623.88 560.98C1550.12 634.776 1453.13 671.674 1356.18 671.674Z" fill="#EAE3DC"></path> <path d="M1356.17 635.748C1268.4 635.748 1180.63 602.336 1113.84 535.544L1118.57 530.818C1249.57 661.822 1462.75 661.822 1593.75 530.818C1657.22 467.344 1692.18 382.957 1692.18 293.209C1692.18 203.46 1657.22 119.074 1593.75 55.5994L1598.48 50.874C1663.22 115.588 1698.85 201.684 1698.85 293.209C1698.85 384.734 1663.19 470.829 1598.48 535.544C1531.68 602.336 1443.95 635.748 1356.17 635.748Z" fill="#EAE3DC"></path> <path d="M1356.17 599.821C1277.62 599.821 1199.06 569.927 1139.24 510.106L1143.97 505.381C1260.96 622.376 1451.32 622.376 1568.31 505.381C1685.31 388.386 1685.31 198.03 1568.31 81.0352L1573.04 76.3098C1692.65 195.919 1692.65 390.531 1573.04 510.14C1513.28 569.894 1434.73 599.821 1356.17 599.821Z" fill="#EAE3DC"></path> </g> <path opacity="0.3" d="M264.87 737.25L248.43 753.61L231.98 737.25L215.54 753.61L199.1 737.25L184.6 751.68L170.09 737.25L153.65 753.61L137.2 737.25L120.76 753.61L104.32 737.25L88 753.49L89.82 755.31L104.32 740.88L120.76 757.24L137.2 740.88L153.65 757.24L170.09 740.88L184.6 755.32L199.1 740.88L215.54 757.24L231.98 740.88L248.43 757.24L264.87 740.88L279.38 755.31L281.19 753.49L264.87 737.25Z" fill="#6D9A74"></path> <path opacity="0.3" d="M264.871 708L248.431 724.36L231.981 708L215.541 724.36L199.101 708L186.061 720.98L186.051 724.62L199.101 711.63L215.541 727.99L231.981 711.63L248.431 727.99L264.871 711.63L279.381 726.06L281.191 724.23L264.871 708Z" fill="#383535"></path> </svg> 