<?xml version="1.0" encoding="UTF-8"?> <svg xmlns="http://www.w3.org/2000/svg" width="92" height="92" viewBox="0 0 92 92" fill="none"> <path d="M42.4843 1.47669C44.4323 -0.449682 47.5677 -0.449681 49.5157 1.47669L51.6315 3.56896C53.055 4.97666 55.181 5.39954 57.0348 4.64375L59.7902 3.52041C62.3271 2.48615 65.2239 3.68603 66.2864 6.21124L67.4405 8.95391C68.2169 10.7992 70.0192 12.0035 72.0212 12.0147L74.9967 12.0313C77.7363 12.0466 79.9534 14.2637 79.9687 17.0033L79.9854 19.9788C79.9965 21.9808 81.2008 23.7831 83.0461 24.5595L85.7888 25.7136C88.314 26.7761 89.5139 29.6729 88.4796 32.2098L87.3563 34.9652C86.6005 36.819 87.0233 38.945 88.431 40.3685L90.5233 42.4843C92.4497 44.4323 92.4497 47.5677 90.5233 49.5157L88.431 51.6315C87.0233 53.055 86.6005 55.181 87.3563 57.0348L88.4796 59.7902C89.5139 62.3271 88.314 65.2239 85.7888 66.2864L83.0461 67.4405C81.2008 68.2169 79.9965 70.0192 79.9854 72.0212L79.9687 74.9967C79.9534 77.7363 77.7363 79.9534 74.9967 79.9687L72.0212 79.9854C70.0192 79.9965 68.2169 81.2008 67.4405 83.0461L66.2864 85.7888C65.2239 88.314 62.3271 89.5139 59.7902 88.4796L57.0348 87.3563C55.181 86.6005 53.055 87.0233 51.6315 88.431L49.5157 90.5233C47.5677 92.4497 44.4323 92.4497 42.4843 90.5233L40.3685 88.431C38.945 87.0233 36.819 86.6005 34.9652 87.3563L32.2098 88.4796C29.6729 89.5139 26.7761 88.314 25.7136 85.7888L24.5595 83.0461C23.7831 81.2008 21.9808 79.9965 19.9788 79.9854L17.0033 79.9687C14.2637 79.9534 12.0466 77.7363 12.0313 74.9967L12.0147 72.0212C12.0035 70.0192 10.7992 68.2169 8.95391 67.4405L6.21124 66.2864C3.68603 65.2239 2.48615 62.3271 3.52041 59.7902L4.64375 57.0348C5.39954 55.181 4.97666 53.055 3.56896 51.6315L1.47669 49.5157C-0.449682 47.5677 -0.449681 44.4323 1.47669 42.4843L3.56896 40.3685C4.97666 38.945 5.39954 36.819 4.64375 34.9652L3.52041 32.2098C2.48615 29.6729 3.68603 26.7761 6.21124 25.7136L8.95391 24.5595C10.7992 23.7831 12.0035 21.9808 12.0147 19.9788L12.0313 17.0033C12.0466 14.2637 14.2637 12.0466 17.0033 12.0313L19.9788 12.0147C21.9808 12.0035 23.7831 10.7992 24.5595 8.95391L25.7136 6.21124C26.7761 3.68603 29.6729 2.48615 32.2098 3.52041L34.9652 4.64375C36.819 5.39954 38.945 4.97666 40.3685 3.56896L42.4843 1.47669Z" fill="#6D9A74"></path> </svg> 