<?xml version="1.0" encoding="UTF-8"?> <svg xmlns="http://www.w3.org/2000/svg" width="73" height="50" viewBox="0 0 73 50" fill="none"> <path d="M14.21 19.8551C13.8633 21.4584 13.69 23.2568 13.69 25.2501C13.69 27.2434 13.8633 29.0418 14.21 30.6451C14.6 32.2484 15.12 33.6134 15.77 34.7401C16.42 35.8668 17.2 36.7334 18.11 37.3401C18.9919 37.886 19.9552 38.1674 21 38.1843V48.9099C17.1845 48.8943 13.8161 47.9843 10.895 46.1801C7.99164 44.3168 5.71664 41.6301 4.06998 38.1201C2.42331 34.6101 1.59998 30.3201 1.59998 25.2501C1.59998 20.1801 2.42331 15.8901 4.06998 12.3801C5.71664 8.87009 7.99164 6.20509 10.895 4.38509C13.8416 2.52176 17.2433 1.59009 21.1 1.59009C25.1733 1.59009 28.6616 2.52176 31.565 4.38509C33.107 5.35173 34.4595 6.55673 35.6226 8.00009H34C29.8349 8.00009 26.1273 9.95885 23.7481 13.0055C22.964 12.5452 22.0813 12.3151 21.1 12.3151C20.0166 12.3151 19.02 12.6184 18.11 13.2251C17.2 13.7884 16.42 14.6334 15.77 15.7601C15.12 16.8868 14.6 18.2518 14.21 19.8551Z" fill="#FCEFEE"></path> <path d="M71.1281 8.00009H47.4031V6.14009L71.1281 1.59009V8.00009Z" fill="#FCEFEE"></path> <path d="M18.3732 13.6502L18.3803 13.6458L18.3873 13.6411C19.216 13.0886 20.1164 12.8151 21.1 12.8151C22.1311 12.8151 23.0262 13.0908 23.8032 13.6347L23.8148 13.6428L23.8268 13.6502C24.6529 14.1616 25.3794 14.9396 25.9969 16.01L26.0004 16.0161L26.0041 16.0221C26.6617 17.0906 27.1638 18.4 27.5013 19.9608L27.5011 19.9608L27.5041 19.9733C27.883 21.5309 28.075 23.2886 28.075 25.2501C28.075 27.2115 27.883 28.9693 27.5041 30.5269L27.504 30.5269L27.5013 30.5394C27.1638 32.1002 26.6617 33.4096 26.0041 34.478L26.0004 34.4841L25.9969 34.4902C25.3787 35.5617 24.649 36.3659 23.8151 36.9225C23.0373 37.4273 22.1379 37.6851 21.1 37.6851C20.1112 37.6851 19.2082 37.4302 18.3803 36.9193C17.5482 36.3629 16.8201 35.5597 16.2031 34.4902C15.583 33.4155 15.0788 32.0993 14.6973 30.5332C14.3605 28.9726 14.19 27.2126 14.19 25.2501C14.19 23.2876 14.3605 21.5276 14.6973 19.967C15.0788 18.4008 15.583 17.0847 16.2031 16.01C16.8206 14.9396 17.547 14.1616 18.3732 13.6502ZM10.6249 46.6009L10.6249 46.6009L10.6322 46.6055C13.6666 48.4797 17.1614 49.4101 21.1 49.4101C25.2493 49.4101 28.8337 48.4824 31.8306 46.6038L31.835 46.6009C34.829 44.6794 37.1208 41.9133 38.7157 38.3258C40.356 34.7339 41.165 30.3693 41.165 25.2501C41.165 20.1309 40.356 15.7664 38.7158 12.1745C37.1209 8.58711 34.8286 5.84149 31.8328 3.96285C28.8357 2.04003 25.2504 1.09009 21.1 1.09009C17.1595 1.09009 13.6634 2.04314 10.6286 3.96197C7.63393 5.83945 5.29909 8.58289 3.61731 12.1677C1.93143 15.7613 1.09998 20.1283 1.09998 25.2501C1.09998 30.3718 1.93143 34.7388 3.61731 38.3325C5.29889 41.9169 7.63276 44.6805 10.6249 46.6009ZM46.9031 16.8651V17.496L47.5174 17.3519L58.5381 14.766V48.0001V48.5001H59.0381H71.1281H71.6281V48.0001V1.59009V0.985086L71.034 1.09904L47.309 5.64904L46.9031 5.72687V6.14009V16.8651Z" stroke="#FCEFEE"></path> </svg> 