<?xml version="1.0" encoding="UTF-8"?> <svg xmlns="http://www.w3.org/2000/svg" width="86" height="50" viewBox="0 0 86 50" fill="none"> <path fill-rule="evenodd" clip-rule="evenodd" d="M50.2446 7H79.6799C79.2854 6.54471 78.8565 6.10471 78.3932 5.68C76.8765 4.25 74.9915 3.12333 72.7382 2.3C70.4848 1.43333 67.9065 1 65.0032 1C60.8432 1 57.3332 1.845 54.4732 3.535C52.8267 4.49752 51.4172 5.65252 50.2446 7ZM34.6256 7C33.5549 5.76527 32.3347 4.71861 30.965 3.86C28.0617 1.99667 24.5733 1.065 20.5 1.065C16.6433 1.065 13.2417 1.99667 10.295 3.86C7.39167 5.68 5.11667 8.345 3.47 11.855C1.82333 15.365 1 19.655 1 24.725C1 29.795 1.82333 34.085 3.47 37.595C5.11667 41.105 7.39167 43.7917 10.295 45.655C13.2417 47.475 16.6433 48.385 20.5 48.385C20.6677 48.385 20.8343 48.3835 21 48.3804V37.6409C20.8363 37.6536 20.6696 37.66 20.5 37.66C19.4167 37.66 18.42 37.3783 17.51 36.815C16.6 36.2083 15.82 35.3417 15.17 34.215C14.52 33.0883 14 31.7233 13.61 30.12C13.2633 28.5167 13.09 26.7183 13.09 24.725C13.09 22.7317 13.2633 20.9333 13.61 19.33C14 17.7267 14.52 16.3617 15.17 15.235C15.82 14.1083 16.6 13.2633 17.51 12.7C18.42 12.0933 19.4167 11.79 20.5 11.79C21.5537 11.79 22.4937 12.0553 23.32 12.586C25.6681 9.20987 29.576 7 34 7H34.6256Z" fill="#FCEFEE"></path> <path d="M17.7732 13.1251L17.7803 13.1207L17.7873 13.116C18.6161 12.5636 19.5164 12.29 20.5 12.29C21.5311 12.29 22.4262 12.5657 23.2033 13.1096L23.2148 13.1177L23.2268 13.1251C24.053 13.6366 24.7794 14.4145 25.3969 15.4849L25.4005 15.491L25.4042 15.497C26.0617 16.5655 26.5638 17.8749 26.9013 19.4357L26.9011 19.4357L26.9042 19.4482C27.283 21.0058 27.475 22.7635 27.475 24.725C27.475 26.6865 27.283 28.4442 26.9042 30.0018L26.904 30.0018L26.9013 30.0143C26.5638 31.5751 26.0617 32.8845 25.4042 33.9529L25.4005 33.959L25.3969 33.9651C24.7787 35.0366 24.049 35.8408 23.2151 36.3974C22.4373 36.9022 21.5379 37.16 20.5 37.16C19.5113 37.16 18.6083 36.9051 17.7803 36.3943C16.9483 35.8378 16.2201 35.0347 15.6031 33.9651C14.983 32.8904 14.4788 31.5742 14.0974 30.0081C13.7605 28.4475 13.59 26.6875 13.59 24.725C13.59 22.7625 13.7605 21.0025 14.0974 19.4419C14.4788 17.8758 14.983 16.5596 15.6031 15.4849C16.2206 14.4145 16.947 13.6366 17.7732 13.1251ZM10.0249 46.0758L10.0249 46.0759L10.0323 46.0804C13.0666 47.9546 16.5614 48.885 20.5 48.885C24.6493 48.885 28.2337 47.9573 31.2306 46.0787L31.2351 46.0758C34.229 44.1543 36.5208 41.3882 38.1157 37.8007C39.756 34.2088 40.565 29.8442 40.565 24.725C40.565 19.6058 39.756 15.2413 38.1158 11.6494C36.5209 8.06202 34.2286 5.3164 31.2328 3.43777C28.2357 1.51494 24.6505 0.564999 20.5 0.564999C16.5595 0.564999 13.0634 1.51805 10.0286 3.43688C7.03396 5.31436 4.69911 8.0578 3.01734 11.6426C1.33145 15.2362 0.5 19.6032 0.5 24.725C0.5 29.8468 1.33145 34.2138 3.01734 37.8074C4.69892 41.3918 7.03279 44.1555 10.0249 46.0758ZM43.5856 47.1255L42.755 47.975H43.9432H84.4382H84.9382V47.475V35.97V35.47H84.4382H68.3241L76.6925 28.4288C76.6938 28.4278 76.6951 28.4267 76.6964 28.4257C78.7706 26.7481 80.4344 24.8868 81.6803 22.84C82.9441 20.7637 83.5732 18.4411 83.5732 15.885C83.5732 13.9502 83.1679 12.0828 82.3601 10.2869C81.5502 8.443 80.3383 6.78542 78.7338 5.31398C77.1622 3.83286 75.2184 2.67442 72.9138 1.83184C70.5938 0.940175 67.9541 0.5 65.0032 0.5C60.7765 0.5 57.1738 1.35866 54.2198 3.10394C51.3256 4.79616 49.1341 7.07454 47.6588 9.93585L47.6574 9.93857C46.2329 12.743 45.5232 15.8113 45.5232 19.135V19.635H46.0232H58.3732H58.8732V19.135C58.8732 17.764 59.101 16.556 59.5455 15.5022C60.0292 14.4574 60.7041 13.6707 61.5666 13.1218L61.5733 13.1176L61.5798 13.1131C62.4457 12.5227 63.4298 12.225 64.5482 12.225C65.4513 12.225 66.1759 12.3691 66.7417 12.6331L66.7594 12.6413L66.7776 12.6482C67.4108 12.8856 67.9332 13.2171 68.3546 13.6386L68.363 13.647L68.3718 13.655C68.7878 14.0331 69.0882 14.4838 69.2773 15.0132C69.4745 15.5654 69.5732 16.1368 69.5732 16.73C69.5732 17.823 69.3309 18.8759 68.8424 19.8936L68.8423 19.8936L68.8386 19.9017C68.3868 20.8876 67.7019 21.9088 66.7728 22.9647L66.7727 22.9646L66.7653 22.9734C65.8605 24.0506 64.7826 25.301 63.5314 26.725L43.5856 47.1255Z" stroke="#FCEFEE"></path> </svg> 