<?xml version="1.0" encoding="UTF-8"?> <svg xmlns="http://www.w3.org/2000/svg" width="85" height="51" viewBox="0 0 85 51" fill="none"> <path d="M14.21 19.8551C13.8633 21.4584 13.69 23.2568 13.69 25.2501C13.69 27.2434 13.8633 29.0418 14.21 30.6451C14.6 32.2484 15.12 33.6134 15.77 34.7401C16.42 35.8668 17.2 36.7334 18.11 37.3401C18.9919 37.886 19.9552 38.1674 21 38.1843V48.9099C17.1845 48.8943 13.8161 47.9843 10.895 46.1801C7.99164 44.3168 5.71664 41.6301 4.06998 38.1201C2.42331 34.6101 1.59998 30.3201 1.59998 25.2501C1.59998 20.1801 2.42331 15.8901 4.06998 12.3801C5.71664 8.87009 7.99164 6.20509 10.895 4.38509C13.8416 2.52176 17.2433 1.59009 21.1 1.59009C25.1733 1.59009 28.6616 2.52176 31.565 4.38509C33.107 5.35173 34.4595 6.55673 35.6226 8.00009H34C29.8349 8.00009 26.1273 9.95885 23.7481 13.0055C22.964 12.5452 22.0813 12.3151 21.1 12.3151C20.0166 12.3151 19.02 12.6184 18.11 13.2251C17.2 13.7884 16.42 14.6334 15.77 15.7601C15.12 16.8868 14.6 18.2518 14.21 19.8551Z" fill="#FCEFEE"></path> <path d="M80.1713 8.00009H50.7793C52.1432 6.18469 53.9211 4.71969 56.1131 3.60509C58.6698 2.26175 61.6598 1.59009 65.0831 1.59009C68.7231 1.59009 71.7998 2.15342 74.3131 3.28009C76.8698 4.40675 78.7981 5.94509 80.0981 7.89509C80.1227 7.93001 80.1471 7.96501 80.1713 8.00009Z" fill="#FCEFEE"></path> <path d="M18.3732 13.6502L18.3803 13.6458L18.3873 13.6411C19.216 13.0886 20.1164 12.8151 21.1 12.8151C22.1311 12.8151 23.0262 13.0908 23.8032 13.6347L23.8148 13.6428L23.8268 13.6502C24.6529 14.1616 25.3794 14.9396 25.9969 16.01L26.0004 16.0161L26.0041 16.0221C26.6617 17.0906 27.1638 18.4 27.5013 19.9608L27.5011 19.9608L27.5041 19.9733C27.883 21.5309 28.075 23.2886 28.075 25.2501C28.075 27.2115 27.883 28.9693 27.5041 30.5269L27.504 30.5269L27.5013 30.5394C27.1638 32.1002 26.6617 33.4096 26.0041 34.478L26.0004 34.4841L25.9969 34.4902C25.3787 35.5617 24.649 36.3659 23.8151 36.9225C23.0373 37.4273 22.1379 37.6851 21.1 37.6851C20.1112 37.6851 19.2082 37.4302 18.3803 36.9193C17.5482 36.3629 16.8201 35.5597 16.2031 34.4902C15.583 33.4155 15.0788 32.0993 14.6973 30.5332C14.3605 28.9726 14.19 27.2126 14.19 25.2501C14.19 23.2876 14.3605 21.5276 14.6973 19.967C15.0788 18.4008 15.583 17.0847 16.2031 16.01C16.8206 14.9396 17.547 14.1616 18.3732 13.6502ZM10.6249 46.6009L10.6249 46.6009L10.6322 46.6055C13.6666 48.4797 17.1614 49.4101 21.1 49.4101C25.2493 49.4101 28.8337 48.4824 31.8306 46.6038L31.835 46.6009C34.829 44.6794 37.1208 41.9133 38.7157 38.3258C40.356 34.7339 41.165 30.3693 41.165 25.2501C41.165 20.1309 40.356 15.7664 38.7158 12.1745C37.1209 8.58711 34.8286 5.84149 31.8328 3.96285C28.8357 2.04003 25.2504 1.09009 21.1 1.09009C17.1595 1.09009 13.6634 2.04314 10.6286 3.96197C7.63393 5.83945 5.29909 8.58289 3.61731 12.1677C1.93143 15.7613 1.09998 20.1283 1.09998 25.2501C1.09998 30.3718 1.93143 34.7388 3.61731 38.3325C5.29889 41.9169 7.63276 44.6805 10.6249 46.6009ZM61.0081 26.0951V26.5951V28.4351V28.9351H61.5081C63.2158 28.9351 64.6221 29.0849 65.7377 29.3741L65.7419 29.3752C66.9108 29.6674 67.8173 30.0771 68.4844 30.5873L68.4973 30.5971L68.5108 30.6061C69.2267 31.0834 69.7234 31.6455 70.0257 32.288L70.0256 32.288L70.0309 32.2987C70.3427 32.9222 70.4981 33.5822 70.4981 34.2851C70.4981 35.3779 70.2565 36.2484 69.8058 36.9271C69.3517 37.5681 68.7284 38.0246 67.915 38.2957L67.908 38.2982C67.1067 38.5786 66.1466 38.7251 65.0181 38.7251C64.0047 38.7251 63.0094 38.523 62.0289 38.115C61.1291 37.723 60.4046 37.0982 59.85 36.2267C59.3077 35.3745 59.0181 34.2617 59.0181 32.8551V32.3551H58.5181H46.1031H45.6031V32.8551C45.6031 35.0031 46.0287 37.0841 46.8775 39.0946C47.727 41.1065 48.9559 42.915 50.5596 44.5186L50.5596 44.5187L50.5645 44.5235C52.2182 46.1325 54.2027 47.4015 56.5109 48.3337L56.5109 48.3338L56.5216 48.3379C58.884 49.2293 61.5453 49.6701 64.4981 49.6701C68.5739 49.6701 72.0664 49.0788 74.9599 47.8768C77.8463 46.6779 80.0736 44.9998 81.6112 42.8291C83.1467 40.6613 83.9131 38.1979 83.9131 35.4551C83.9131 33.0378 83.3531 30.9459 82.2084 29.2041C81.1176 27.4786 79.5569 26.0602 77.546 24.943C76.9795 24.6283 76.384 24.3391 75.7596 24.0751C77.2718 23.3611 78.574 22.4888 79.6607 21.4543C81.6341 19.6176 82.6131 17.2274 82.6131 14.3301C82.6131 11.8482 81.9122 9.60386 80.5105 7.61223C79.1485 5.57187 77.14 3.9797 74.5162 2.82319C71.9217 1.66043 68.7714 1.09009 65.0831 1.09009C61.5951 1.09009 58.5235 1.77453 55.8836 3.16089C53.2546 4.49826 51.1921 6.33333 49.711 8.66717L49.7096 8.66934C48.2698 10.9641 47.5531 13.5489 47.5531 16.4101V16.9101H48.0531H59.6231H60.1231V16.4101C60.1231 15.0649 60.5712 14.0134 61.4514 13.2079C62.3853 12.3925 63.5825 11.9701 65.0831 11.9701C66.0804 11.9701 66.8458 12.1164 67.4067 12.3782L67.4066 12.3783L67.4177 12.3832C68.0316 12.6517 68.4665 13.0227 68.7523 13.4871C69.0451 13.9629 69.1981 14.5201 69.1981 15.1751C69.1981 15.817 69.0298 16.4462 68.6808 17.0688C68.3328 17.6467 67.8229 18.1809 67.1348 18.6666C66.4479 19.1515 65.631 19.5416 64.6776 19.8318C63.7351 20.1186 62.6801 20.2651 61.5081 20.2651H61.0081V20.7651V21.8251V22.3251V26.0951Z" stroke="#FCEFEE"></path> </svg> 