<?xml version="1.0" encoding="UTF-8"?> <svg xmlns="http://www.w3.org/2000/svg" width="86" height="50" viewBox="0 0 86 50" fill="none"> <path d="M14.21 19.8551C13.8633 21.4584 13.69 23.2568 13.69 25.2501C13.69 27.2434 13.8633 29.0418 14.21 30.6451C14.6 32.2484 15.12 33.6134 15.77 34.7401C16.42 35.8668 17.2 36.7334 18.11 37.3401C18.9919 37.886 19.9552 38.1674 21 38.1843V48.9099C17.1845 48.8943 13.8161 47.9843 10.895 46.1801C7.99164 44.3168 5.71664 41.6301 4.06998 38.1201C2.42331 34.6101 1.59998 30.3201 1.59998 25.2501C1.59998 20.1801 2.42331 15.8901 4.06998 12.3801C5.71664 8.87009 7.99164 6.20509 10.895 4.38509C13.8416 2.52176 17.2433 1.59009 21.1 1.59009C25.1733 1.59009 28.6616 2.52176 31.565 4.38509C33.107 5.35173 34.4595 6.55673 35.6226 8.00009H34C29.8349 8.00009 26.1273 9.95885 23.7481 13.0055C22.964 12.5452 22.0813 12.3151 21.1 12.3151C20.0166 12.3151 19.02 12.6184 18.11 13.2251C17.2 13.7884 16.42 14.6334 15.77 15.7601C15.12 16.8868 14.6 18.2518 14.21 19.8551Z" fill="#FCEFEE"></path> <path d="M82.9581 8.00009H53.8847L55.2031 2.50009H82.9581V8.00009Z" fill="#FCEFEE"></path> <path d="M18.3732 13.6502L18.3803 13.6458L18.3873 13.6411C19.216 13.0886 20.1164 12.8151 21.1 12.8151C22.1311 12.8151 23.0262 13.0908 23.8032 13.6347L23.8148 13.6428L23.8268 13.6502C24.6529 14.1616 25.3794 14.9396 25.9969 16.01L26.0004 16.0161L26.0041 16.0221C26.6617 17.0906 27.1638 18.4 27.5013 19.9608L27.5011 19.9608L27.5041 19.9733C27.883 21.5309 28.075 23.2886 28.075 25.2501C28.075 27.2115 27.883 28.9693 27.5041 30.5269L27.504 30.5269L27.5013 30.5394C27.1638 32.1002 26.6617 33.4096 26.0041 34.478L26.0004 34.4841L25.9969 34.4902C25.3787 35.5617 24.649 36.3659 23.8151 36.9225C23.0373 37.4273 22.1379 37.6851 21.1 37.6851C20.1112 37.6851 19.2082 37.4302 18.3803 36.9193C17.5482 36.3629 16.8201 35.5597 16.2031 34.4902C15.583 33.4155 15.0788 32.0993 14.6973 30.5332C14.3605 28.9726 14.19 27.2126 14.19 25.2501C14.19 23.2876 14.3605 21.5276 14.6973 19.967C15.0788 18.4008 15.583 17.0847 16.2031 16.01C16.8206 14.9396 17.547 14.1616 18.3732 13.6502ZM10.6249 46.6009L10.6249 46.6009L10.6322 46.6055C13.6666 48.4797 17.1614 49.4101 21.1 49.4101C25.2493 49.4101 28.8337 48.4824 31.8306 46.6038L31.835 46.6009C34.829 44.6794 37.1208 41.9133 38.7157 38.3258C40.356 34.7339 41.165 30.3693 41.165 25.2501C41.165 20.1309 40.356 15.7664 38.7158 12.1745C37.1209 8.58711 34.8286 5.84149 31.8328 3.96285C28.8357 2.04003 25.2504 1.09009 21.1 1.09009C17.1595 1.09009 13.6634 2.04314 10.6286 3.96197C7.63393 5.83945 5.29909 8.58289 3.61731 12.1677C1.93143 15.7613 1.09998 20.1283 1.09998 25.2501C1.09998 30.3718 1.93143 34.7388 3.61731 38.3325C5.29889 41.9169 7.63276 44.6805 10.6249 46.6009ZM51.0638 46.9737C52.9565 47.678 55.0629 48.248 57.3809 48.6856C59.7152 49.1697 62.2834 49.4101 65.0831 49.4101C67.3376 49.4101 69.5902 49.1008 71.8398 48.4838C74.1425 47.9075 76.2506 46.9981 78.161 45.7541L78.161 45.7541L78.1677 45.7496C80.0929 44.4513 81.6395 42.7929 82.8039 40.7791C84.027 38.739 84.6281 36.3293 84.6281 33.5701C84.6281 30.2952 83.9421 27.5122 82.5394 25.2487C81.1531 22.9687 79.3558 21.2352 77.1475 20.0634C74.954 18.8995 72.6421 18.3151 70.2181 18.3151C68.6777 18.3151 67.2001 18.4251 65.786 18.6461C64.7496 18.808 63.7581 19.0755 62.8125 19.4489L64.7243 13.9201H82.9581H83.4581V13.4201V2.50009V2.00009H82.9581H55.2031H54.8088L54.7169 2.38353L48.2819 29.2285L48.0459 30.2133L48.9712 29.802C50.5025 29.1214 52.0305 28.6124 53.5555 28.2734C55.14 27.9309 56.6571 27.6961 58.1071 27.5682C59.5707 27.439 60.8337 27.3751 61.8981 27.3751C63.1979 27.3751 64.4531 27.5427 65.6652 27.8771L65.6748 27.8797L65.6845 27.882C66.9198 28.1702 67.9007 28.6575 68.6497 29.3277L68.6496 29.3278L68.6593 29.3361C69.3975 29.9636 69.7831 30.8334 69.7831 32.0101C69.7831 33.1697 69.4657 34.0895 68.8607 34.808C68.2451 35.539 67.3653 36.0775 66.1852 36.4031L66.1808 36.4043C65.0253 36.7345 63.601 36.9051 61.8981 36.9051C60.9902 36.9051 59.9231 36.7813 58.6925 36.5271C57.4701 36.2315 56.1566 35.7871 54.751 35.1909C53.3972 34.5984 52.039 33.8348 50.6764 32.8981L50.1545 32.5392L49.9266 33.1302L45.7666 43.9202L45.6121 44.3211L45.9851 44.5342C47.5234 45.4133 49.2123 46.2245 51.0505 46.9686L51.0571 46.9712L51.0638 46.9737Z" stroke="#FCEFEE"></path> </svg> 