<?xml version="1.0" encoding="UTF-8"?> <svg xmlns="http://www.w3.org/2000/svg" width="59" height="64" viewBox="0 0 59 64" fill="none"> <path d="M29.5 5L37.7173 17.4366L52.564 16.107L47.9642 30.2857L58.2604 41.0644L44.3071 46.3083L42.2996 61.0786L29.5 53.439L16.7004 61.0786L14.6929 46.3083L0.739626 41.0644L11.0358 30.2857L6.43597 16.107L21.2827 17.4366L29.5 5Z" fill="#FCEFEE"></path> <path d="M53.9583 0L53.2815 0.335523L53.1478 1.07009L53.6645 1.61735L53.9583 1.66784L54.6352 1.33395L54.7689 0.597752L54.2505 0.0521201L53.9583 0ZM50.6353 0.615669L49.9584 0.949563L49.8247 1.68576L50.3414 2.23139L50.6353 2.28351L51.3121 1.94799L51.4458 1.21342L50.9275 0.667789L50.6353 0.615669ZM47.3122 1.22971L46.6353 1.56523L46.5016 2.2998L47.0183 2.84543L47.3122 2.89755L47.989 2.56366L48.1227 1.82746L47.6044 1.28183L47.3122 1.22971ZM43.9891 1.84538L43.3123 2.17927L43.1785 2.91547L43.6953 3.4611L43.9891 3.51322L44.6659 3.1777L44.7996 2.4415L44.2829 1.89587L43.9891 1.84538ZM28.3031 2.45942C26.7381 2.45942 25.4521 3.72822 25.4521 5.27227V10.7986C25.4522 11.0198 25.5412 11.2319 25.6997 11.3883C25.8582 11.5447 26.0732 11.6325 26.2974 11.6326H28.833V13.3004H22.0713C20.6809 13.3004 19.5356 14.4304 19.5356 15.8022C19.5356 16.5759 19.9078 17.2636 20.475 17.7241C18.3181 20.0882 17 23.2167 17 26.6431V59.0537C17 59.561 17.4449 60 17.9591 60H41.3973C41.9115 60 42.3564 59.561 42.3564 59.0537V26.6431C42.3564 23.2171 41.0395 20.0881 38.8831 17.7241C39.4497 17.2636 39.8208 16.5754 39.8208 15.8022C39.8208 14.4304 38.6755 13.3004 37.2852 13.3004H30.5234V11.6326H33.0591C33.2832 11.6325 33.4982 11.5447 33.6567 11.3883C33.8152 11.2319 33.9043 11.0198 33.9043 10.7986V5.27227C33.9043 3.72822 32.6178 2.45942 31.0533 2.45942H28.3031ZM40.666 2.45942L39.9892 2.79494L39.8555 3.52951L40.3722 4.07514L40.666 4.12726L41.3428 3.79174L41.4766 3.05717L40.9599 2.51154L40.666 2.45942ZM28.3031 4.12726H31.0533C31.7033 4.12726 32.2139 4.62978 32.2139 5.27227V9.96471H29.8202C29.7289 9.94983 29.6358 9.94983 29.5445 9.96471H27.1426V5.27227C27.1426 4.62978 27.6519 4.12726 28.3031 4.12726ZM37.2852 5.7951L36.6083 6.13063L36.4746 6.86519L36.9913 7.41083L37.2852 7.46295L37.962 7.12742L38.0957 6.39286L37.579 5.84722L37.2852 5.7951ZM40.666 5.7951L39.9892 6.13063L39.8555 6.86519L40.3722 7.41083L40.666 7.46295L41.3428 7.12742L41.4766 6.39286L40.9599 5.84722L40.666 5.7951ZM44.0469 5.7951L43.37 6.13063L43.2363 6.86519L43.753 7.41083L44.0469 7.46295L44.7237 7.12742L44.8574 6.39286L44.3407 5.84722L44.0469 5.7951ZM47.4277 5.7951L46.7509 6.13063L46.6172 6.86519L47.1339 7.41083L47.4277 7.46295L48.1046 7.12742L48.2383 6.39286L47.7216 5.84722L47.4277 5.7951ZM50.8086 5.7951L50.1318 6.13063L49.998 6.86519L50.5147 7.41083L50.8086 7.46295L51.4854 7.12742L51.6191 6.39286L51.1024 5.84722L50.8086 5.7951ZM54.1895 5.7951L53.5126 6.13063L53.3789 6.86519L53.8956 7.41083L54.1895 7.46295L54.8663 7.12742L55 6.39286L54.4833 5.84722L54.1895 5.7951ZM40.666 9.13079L39.9892 9.46631L39.8555 10.2009L40.3722 10.7465L40.666 10.7986L41.3428 10.4631L41.4766 9.72854L40.9599 9.18291L40.666 9.13079ZM43.8933 10.126L43.2165 10.4599L43.0828 11.196L43.5995 11.7417L43.8933 11.7938L44.5702 11.4583L44.7039 10.7237L44.1855 10.1781L43.8933 10.126ZM47.1207 11.1211L46.4422 11.455L46.3101 12.1912L46.8268 12.7368L47.1207 12.789L47.7975 12.4534L47.9312 11.7189L47.4129 11.1732L47.1207 11.1211ZM50.3464 12.1163L49.6695 12.4502L49.5358 13.1864L50.0542 13.732L50.3464 13.7841L51.0232 13.4486L51.1569 12.7124L50.6402 12.1668L50.3464 12.1163ZM53.5737 13.1098L52.8969 13.4454L52.7632 14.1816L53.2799 14.7272L53.5737 14.7777L54.2505 14.4438L54.3842 13.7076L53.8675 13.162L53.5737 13.1098ZM22.0713 14.9682H29.5363C29.6275 14.9831 29.7207 14.9831 29.8119 14.9682H37.2852C37.7627 14.9682 38.1304 15.331 38.1304 15.8022C38.1304 16.2267 37.8257 16.5492 37.4172 16.6117H37.4123C37.3465 16.6134 37.2811 16.6227 37.2175 16.6393C37.0174 16.6543 36.8293 16.7389 36.6867 16.8781C36.5441 17.0173 36.4563 17.202 36.439 17.3992C36.4218 17.5964 36.4761 17.7932 36.5924 17.9545C36.7087 18.1157 36.8794 18.2309 37.0739 18.2795C39.2857 20.4008 40.666 23.3553 40.666 26.6431V49.9522L40.151 50.2063L40.0172 50.9425L40.534 51.4881L40.666 51.5109V58.3322H18.6904V39.152L19.3673 38.8164L19.501 38.0819L18.9843 37.5362L18.6904 37.4841V26.6431C18.6904 23.3553 20.0707 20.4008 22.2826 18.2795C22.4836 18.2303 22.6593 18.11 22.7763 17.9414C22.8933 17.7729 22.9436 17.5678 22.9175 17.3651C22.8915 17.1624 22.7909 16.9762 22.6349 16.8418C22.4789 16.7074 22.2784 16.6342 22.0713 16.6361C21.5937 16.6361 21.2261 16.2734 21.2261 15.8022C21.2261 15.331 21.5937 14.9682 22.0713 14.9682ZM24.6069 16.6361L23.9301 16.9716L23.7964 17.7062L24.3131 18.2518L24.6069 18.3039L25.2838 17.9684L25.4175 17.2338L24.9008 16.6882L24.6069 16.6361ZM27.9878 16.6361L27.311 16.9716L27.1772 17.7062L27.6939 18.2518L27.9878 18.3039L28.6646 17.9684L28.7983 17.2338L28.2816 16.6882L27.9878 16.6361ZM31.3687 16.6361L30.6918 16.9716L30.5581 17.7062L31.0748 18.2518L31.3687 18.3039L32.0455 17.9684L32.1792 17.2338L31.6625 16.6882L31.3687 16.6361ZM34.7495 16.6361L34.0727 16.9716L33.939 17.7062L34.4557 18.2518L34.7495 18.3039L35.4263 17.9684L35.5601 17.2338L35.0434 16.6882L34.7495 16.6361ZM22.063 37.4011L21.3862 37.7349L21.2525 38.4711L21.7708 39.0168L22.063 39.0689L22.7399 38.7334L22.8736 37.9988L22.3569 37.4515L22.063 37.4011ZM25.3382 38.1617L24.6614 38.4972L24.5277 39.2318L25.0444 39.7774L25.3382 39.8295L26.0151 39.4956L26.1488 38.7594L25.6321 38.2138L25.3382 38.1617ZM28.1182 40.0119L27.4414 40.3458L27.3077 41.082L27.826 41.6277L28.1182 41.6798L28.795 41.3443L28.9288 40.6081L28.4121 40.0624L28.1182 40.0119ZM30.0133 42.7613L29.3349 43.0968L29.2028 43.8314L29.7195 44.377L30.0133 44.4291L30.6902 44.0952L30.8239 43.359L30.3055 42.8134L30.0133 42.7613ZM31.9299 45.4992L31.2514 45.8347L31.1194 46.5693L31.6361 47.1149L31.9299 47.1671L32.6068 46.8332L32.7405 46.097L32.2221 45.5513L31.9299 45.4992ZM34.5002 47.6475L33.8234 47.9814L33.6897 48.7176L34.2064 49.2633L34.5002 49.3154L35.1771 48.9799L35.3108 48.2453L34.7924 47.6997L34.5002 47.6475ZM37.5542 49.0597L36.8774 49.3936L36.7437 50.1298L37.2604 50.6754L37.5542 50.7275L38.2311 50.392L38.3648 49.6574L37.8481 49.1118L37.5542 49.0597Z" fill="#CC7E7C"></path> </svg> 