<?xml version="1.0" encoding="UTF-8"?> <svg xmlns="http://www.w3.org/2000/svg" width="59" height="59" viewBox="0 0 59 59" fill="none"> <path d="M29.5 0L30.7491 16.8174L35.2552 0.566833L33.1994 17.3048L40.7892 2.24555L35.5075 18.2608L45.8893 4.97165L37.5847 19.6488L50.3596 8.64035L39.3512 21.4153L54.0284 13.1107L40.7392 23.4925L56.7544 18.2108L41.6952 25.8006L58.4332 23.7448L42.1826 28.2509L59 29.5L42.1826 30.7491L58.4332 35.2552L41.6952 33.1994L56.7544 40.7892L40.7392 35.5075L54.0284 45.8893L39.3512 37.5847L50.3596 50.3596L37.5847 39.3512L45.8893 54.0284L35.5075 40.7392L40.7892 56.7544L33.1994 41.6952L35.2552 58.4332L30.7491 42.1826L29.5 59L28.2509 42.1826L23.7448 58.4332L25.8006 41.6952L18.2108 56.7544L23.4925 40.7392L13.1107 54.0284L21.4153 39.3512L8.64035 50.3596L19.6488 37.5847L4.97165 45.8893L18.2608 35.5075L2.24555 40.7892L17.3048 33.1994L0.566833 35.2552L16.8174 30.7491L0 29.5L16.8174 28.2509L0.566833 23.7448L17.3048 25.8006L2.24555 18.2108L18.2608 23.4925L4.97165 13.1107L19.6488 21.4153L8.64035 8.64035L21.4153 19.6488L13.1107 4.97165L23.4925 18.2608L18.2108 2.24555L25.8006 17.3048L23.7448 0.566833L28.2509 16.8174L29.5 0Z" fill="#FCEFEE"></path> <path d="M21.5517 4C20.1907 4 19.069 5.1188 19.069 6.47619V9.77778H20.7241V17.7609C20.7241 19.7535 21.7554 21.6074 23.4494 22.6617L27.3448 25.0928V27.9365H21.445C21.1121 26.3405 19.7414 22.9841 14.1034 22.9841H13.2759V27.1111H15.3448C15.5711 27.1111 15.7586 27.2949 15.7586 27.5238C15.7586 27.7527 15.5711 27.9365 15.3448 27.9365H10.7931C9.42565 27.9365 8.31034 29.0489 8.31034 30.4127V32.8889H6.65517V31.2381H5V36.1905H6.65517V34.5397H8.31034V37.0159C8.31034 38.3797 9.42565 39.4921 10.7931 39.4921H11.6207C12.2866 39.4921 12.4483 39.6533 12.4483 40.3175C12.4483 40.6786 12.18 41.1654 11.8082 41.8393C10.8093 43.6481 9.13793 46.6724 9.13793 53.5238C9.13793 54.936 10.2047 56 11.6207 56H18.2414C19.7478 56 20.7241 55.0198 20.7241 53.498V48.3651C20.7241 43.7738 21.8782 41.1429 23.8955 41.1429H24.1347C23.4591 44.0543 22.7414 47.1689 22.5216 48.1845C22.3017 49.1808 22.25 50.2351 22.7284 51.1637C23.2069 52.0923 24.2899 52.6984 25.6897 52.6984C25.9871 52.7016 26.2651 52.5469 26.417 52.2889C26.5657 52.031 26.5657 51.715 26.417 51.4571C26.2651 51.1992 25.9871 51.0444 25.6897 51.0476C24.6907 51.0476 24.3966 50.7897 24.1994 50.406C24.0022 50.0223 23.9666 49.3227 24.1379 48.536C24.3772 47.4462 25.1821 43.9447 25.9224 40.7463C26.2909 39.1471 26.6466 37.622 26.9052 36.5097C26.944 36.3452 26.9634 36.2646 26.9957 36.1195C27.694 35.91 28.1724 35.2684 28.1724 34.5397C28.1724 33.6272 27.4321 32.8889 26.5172 32.8889C25.6024 32.8889 24.8621 33.6272 24.8621 34.5397C24.8621 34.9943 25.0528 35.4296 25.3825 35.7423C25.3502 35.8874 25.3308 35.968 25.292 36.1357C25.0884 37.0191 24.8006 38.2604 24.5129 39.4921H23.8955C22.0916 39.4921 19.069 40.6431 19.069 48.3651V53.498C19.069 54.1009 18.8297 54.3492 18.2414 54.3492H11.6207C11.2101 54.3492 10.7931 54.0945 10.7931 53.5238C10.7931 47.098 12.3351 44.3058 13.2597 42.6357C13.7317 41.7812 14.1034 41.1042 14.1034 40.3175C14.1034 38.744 13.1983 37.8413 11.6207 37.8413H10.7931C10.3373 37.8413 9.96552 37.4705 9.96552 37.0159V30.4127C9.96552 29.9581 10.3373 29.5873 10.7931 29.5873H15.3448C16.486 29.5873 17.4138 28.662 17.4138 27.5238C17.4138 26.3857 16.486 25.4603 15.3448 25.4603H14.931V24.6639C19.7026 25.0122 19.8901 28.3653 19.8966 28.7619V29.5873H38.1034C38.1034 30.0419 38.4752 30.4127 38.931 30.4127C39.3869 30.4127 39.7586 30.0419 39.7586 29.5873V28.7619H43.8966C44.2974 28.7619 44.6401 29.0521 44.708 29.4487L44.7241 29.5486C44.7241 29.5615 44.7241 29.5744 44.7241 29.5873C44.7241 30.0419 45.0959 30.4127 45.5517 30.4127C45.6196 30.4127 45.6907 30.403 45.7586 30.3869C47.1584 31.2897 48.0345 32.8566 48.0345 34.5397C48.0345 36.2227 47.1552 37.7897 45.7554 38.6925C45.6875 38.6763 45.6196 38.6667 45.5517 38.6667C45.0959 38.6667 44.7241 39.0374 44.7241 39.4921C44.7241 39.5017 44.7241 39.5146 44.7241 39.5243L44.708 39.6307C44.6401 40.0273 44.2974 40.3175 43.8966 40.3175H39.7586V39.4921C39.7586 39.0374 39.3869 38.6667 38.931 38.6667C38.4752 38.6667 38.1034 39.0374 38.1034 39.4921H27.8653C27.7425 40.0273 27.6164 40.5818 27.4871 41.1429H38.1034V41.9683H43.8966C44.9569 41.9683 45.875 41.3041 46.2241 40.3368C46.2791 40.3078 46.3276 40.2691 46.3793 40.2401V40.3175H50.5172C51.8782 40.3175 53 39.1987 53 37.8413V36.471L49.6056 35.536C49.6573 35.2103 49.6897 34.8782 49.6897 34.5397C49.6897 34.2011 49.6573 33.869 49.6056 33.5434L53 32.6084V31.2381C53 29.8807 51.8782 28.7619 50.5172 28.7619H46.3793V28.8393C46.3276 28.8103 46.2791 28.7716 46.2241 28.7426C45.875 27.7753 44.9569 27.1111 43.8966 27.1111H38.1034V27.9365H33.9655V25.0928L37.861 22.6617C39.555 21.6074 40.5862 19.7567 40.5862 17.7641V9.77778H42.2414V6.47619C42.2414 5.1188 41.1196 4 39.7586 4H21.5517ZM21.5517 5.65079H39.7586C40.2274 5.65079 40.5862 6.00868 40.5862 6.47619V8.12698H38.931C38.4752 8.12698 38.1034 8.49777 38.1034 8.95238C38.1034 9.40699 38.4752 9.77778 38.931 9.77778V17.7641C38.931 19.1892 38.1972 20.5079 36.9881 21.2624L32.3103 24.1771V27.9365H29V24.1771L24.3222 21.2624C23.1131 20.5079 22.3793 19.186 22.3793 17.7609V9.77778C22.8351 9.77778 23.2069 9.40699 23.2069 8.95238C23.2069 8.49777 22.8351 8.12698 22.3793 8.12698H20.7241V6.47619C20.7241 6.00868 21.083 5.65079 21.5517 5.65079ZM25.6897 8.12698C25.2338 8.12698 24.8621 8.49777 24.8621 8.95238C24.8621 9.40699 25.2338 9.77778 25.6897 9.77778C26.1455 9.77778 26.5172 9.40699 26.5172 8.95238C26.5172 8.49777 26.1455 8.12698 25.6897 8.12698ZM29 8.12698C28.5442 8.12698 28.1724 8.49777 28.1724 8.95238C28.1724 9.40699 28.5442 9.77778 29 9.77778C29.4558 9.77778 29.8276 9.40699 29.8276 8.95238C29.8276 8.49777 29.4558 8.12698 29 8.12698ZM32.3103 8.12698C31.8545 8.12698 31.4828 8.49777 31.4828 8.95238C31.4828 9.40699 31.8545 9.77778 32.3103 9.77778C32.7662 9.77778 33.1379 9.40699 33.1379 8.95238C33.1379 8.49777 32.7662 8.12698 32.3103 8.12698ZM35.6207 8.12698C35.1649 8.12698 34.7931 8.49777 34.7931 8.95238C34.7931 9.40699 35.1649 9.77778 35.6207 9.77778C36.0765 9.77778 36.4483 9.40699 36.4483 8.95238C36.4483 8.49777 36.0765 8.12698 35.6207 8.12698ZM48.2252 30.4127H50.5172C50.986 30.4127 51.3448 30.7706 51.3448 31.2381V31.3542L49.153 31.9506C48.9138 31.3993 48.6002 30.8834 48.2252 30.4127ZM38.931 32.0635C38.4752 32.0635 38.1034 32.4343 38.1034 32.8889C38.1034 33.3435 38.4752 33.7143 38.931 33.7143C39.3869 33.7143 39.7586 33.3435 39.7586 32.8889C39.7586 32.4343 39.3869 32.0635 38.931 32.0635ZM45.5517 32.0635C45.0959 32.0635 44.7241 32.4343 44.7241 32.8889C44.7241 33.3435 45.0959 33.7143 45.5517 33.7143C46.0075 33.7143 46.3793 33.3435 46.3793 32.8889C46.3793 32.4343 46.0075 32.0635 45.5517 32.0635ZM38.931 35.3651C38.4752 35.3651 38.1034 35.7359 38.1034 36.1905C38.1034 36.6451 38.4752 37.0159 38.931 37.0159C39.3869 37.0159 39.7586 36.6451 39.7586 36.1905C39.7586 35.7359 39.3869 35.3651 38.931 35.3651ZM45.5517 35.3651C45.0959 35.3651 44.7241 35.7359 44.7241 36.1905C44.7241 36.6451 45.0959 37.0159 45.5517 37.0159C46.0075 37.0159 46.3793 36.6451 46.3793 36.1905C46.3793 35.7359 46.0075 35.3651 45.5517 35.3651ZM49.153 37.1287L51.3448 37.7252V37.8413C51.3448 38.3088 50.986 38.6667 50.5172 38.6667H48.2252C48.6002 38.1959 48.9138 37.6801 49.153 37.1287Z" fill="#CC7E7C"></path> </svg> 