<?xml version="1.0" encoding="UTF-8"?> <svg xmlns="http://www.w3.org/2000/svg" width="59" height="59" viewBox="0 0 59 59" fill="none"> <path d="M24.2039 13.2679C26.1137 8.48337 32.8863 8.48337 34.7961 13.2679C35.7732 15.7159 38.3008 17.1752 40.9094 16.7974C46.0078 16.0591 49.3941 21.9243 46.2054 25.9705C44.574 28.0407 44.574 30.9593 46.2054 33.0295C49.3941 37.0757 46.0078 42.9409 40.9094 42.2026C38.3008 41.8248 35.7732 43.2841 34.7961 45.7321C32.8863 50.5166 26.1137 50.5166 24.2039 45.7321C23.2268 43.2841 20.6992 41.8248 18.0906 42.2026C12.9922 42.9409 9.60594 37.0757 12.7946 33.0295C14.426 30.9593 14.426 28.0407 12.7946 25.9705C9.60594 21.9243 12.9922 16.0591 18.0906 16.7974C20.6992 17.1752 23.2268 15.7159 24.2039 13.2679Z" fill="#FCEFEE"></path> <path d="M29 6L28.4494 6.68708C28.4494 6.68708 24.3571 11.8092 20.2648 18.0887C18.2173 21.2284 16.1642 24.6554 14.6147 27.9021C13.068 31.1489 12 34.1929 12 36.6991C12 46.245 19.6201 54 29 54C38.3799 54 46 46.245 46 36.6991C46 34.1929 44.932 31.1489 43.3853 27.9021C41.8358 24.6554 39.7827 21.2284 37.7352 18.0887C33.6429 11.8092 29.5506 6.68708 29.5506 6.68708L29 6ZM29 8.31468C29.7415 9.25519 32.9429 13.3467 36.5565 18.8856C38.5819 21.9916 40.6017 25.3791 42.1069 28.5329C43.6149 31.6867 44.5833 34.6265 44.5833 36.6991C44.5833 45.4678 37.6162 52.5583 29 52.5583C20.3838 52.5583 13.4167 45.4678 13.4167 36.6991C13.4167 34.6265 14.3851 31.6867 15.8931 28.5329C17.3983 25.3791 19.4181 21.9916 21.4435 18.8856C25.0571 13.3467 28.2585 9.25519 29 8.31468ZM16.25 35.9782C15.8599 35.9782 15.5417 36.302 15.5417 36.6991C15.5417 37.0961 15.8599 37.4199 16.25 37.4199C16.6401 37.4199 16.9583 37.0961 16.9583 36.6991C16.9583 36.302 16.6401 35.9782 16.25 35.9782ZM41.75 35.9782C41.3599 35.9782 41.0417 36.302 41.0417 36.6991C41.0417 37.0961 41.3599 37.4199 41.75 37.4199C42.1401 37.4199 42.4583 37.0961 42.4583 36.6991C42.4583 36.302 42.1401 35.9782 41.75 35.9782ZM16.7121 39.3376C16.6401 39.3347 16.5682 39.3432 16.5018 39.3601C16.1227 39.4643 15.8986 39.8585 15.9982 40.2443C16.1006 40.6301 16.488 40.8582 16.867 40.754C17.2461 40.6498 17.4702 40.2555 17.3678 39.8726C17.2876 39.5656 17.022 39.3488 16.7121 39.3376ZM41.3073 39.3376C40.9891 39.3404 40.7124 39.56 40.6322 39.8726C40.5824 40.0584 40.6073 40.2555 40.7013 40.4189C40.7954 40.585 40.9504 40.7061 41.133 40.754C41.512 40.8582 41.8994 40.6301 42.0018 40.2471C42.1014 39.8613 41.8773 39.4671 41.4982 39.3629C41.4373 39.346 41.3737 39.3376 41.3073 39.3376ZM17.9434 42.466C17.8244 42.4688 17.7082 42.4998 17.603 42.5618C17.2655 42.7617 17.1493 43.201 17.3457 43.5473C17.437 43.7107 17.592 43.8317 17.7746 43.8824C17.9572 43.9303 18.1509 43.905 18.3114 43.8092C18.6517 43.6093 18.7679 43.17 18.5715 42.8265C18.4414 42.5956 18.2007 42.4576 17.9434 42.466ZM40.0068 42.4688C39.7661 42.4801 39.5475 42.6153 39.4258 42.8265C39.2321 43.1728 39.3483 43.6121 39.6859 43.812C39.8491 43.9078 40.0428 43.9331 40.2227 43.8853C40.4053 43.8346 40.5602 43.7135 40.6543 43.5473C40.8507 43.2038 40.7318 42.7645 40.3942 42.5646C40.278 42.4942 40.1424 42.4632 40.0068 42.4688ZM19.9937 45.1552C19.8027 45.1524 19.6174 45.2284 19.4818 45.3636C19.2078 45.6452 19.2078 46.1042 19.4818 46.3858C19.7585 46.6646 20.2095 46.6646 20.4862 46.3858C20.7601 46.1042 20.7601 45.6452 20.4862 45.3636C20.3534 45.2313 20.179 45.1552 19.9937 45.1552ZM38.0257 45.1552C37.8348 45.1496 37.6494 45.2256 37.5138 45.3636C37.381 45.4988 37.3063 45.6818 37.3063 45.8733C37.3063 46.0648 37.381 46.2478 37.5138 46.3858C37.7905 46.6646 38.2388 46.6646 38.5155 46.3858C38.6483 46.2478 38.723 46.0648 38.723 45.8733C38.723 45.6818 38.6483 45.4988 38.5155 45.3636C38.3854 45.2313 38.2083 45.1552 38.0257 45.1552ZM35.3556 47.2137C35.2394 47.2165 35.1232 47.2503 35.0208 47.3094C34.6805 47.5093 34.5643 47.9514 34.7607 48.295C34.9572 48.6385 35.3888 48.7596 35.7292 48.5597C35.8896 48.4639 36.0086 48.3062 36.0584 48.1204C36.1082 47.9373 36.0833 47.7402 35.9865 47.5741C35.8592 47.346 35.6157 47.208 35.3556 47.2137ZM22.5918 47.2165C22.3483 47.2277 22.1297 47.3629 22.0107 47.5769C21.8143 47.9205 21.9305 48.3625 22.2708 48.5597C22.4313 48.6582 22.625 48.6836 22.8076 48.6329C22.9902 48.585 23.1452 48.4639 23.2365 48.2978C23.3333 48.1316 23.3582 47.9345 23.3084 47.7515C23.2586 47.5656 23.1396 47.408 22.9792 47.3122C22.8602 47.2418 22.7246 47.2108 22.5918 47.2165ZM25.6935 48.5146C25.3753 48.5174 25.0986 48.7342 25.0156 49.0468C24.9132 49.4326 25.1374 49.8268 25.5164 49.931C25.8955 50.0352 26.2829 49.8071 26.3853 49.4213C26.4323 49.2355 26.4074 49.0384 26.3133 48.8722C26.2192 48.7089 26.0643 48.5878 25.8817 48.5371C25.8208 48.5202 25.7572 48.5118 25.6935 48.5146ZM32.3258 48.5146C32.2539 48.5118 32.1847 48.5174 32.1156 48.5371C31.7365 48.6413 31.5124 49.0356 31.6147 49.4185C31.7171 49.8043 32.1045 50.0324 32.4836 49.931C32.8599 49.8268 33.084 49.4326 32.9844 49.0468C32.9014 48.7427 32.6357 48.5259 32.3258 48.5146ZM29 48.9539C28.6099 48.9539 28.2917 49.2777 28.2917 49.6748C28.2917 50.0718 28.6099 50.3956 29 50.3956C29.3901 50.3956 29.7083 50.0718 29.7083 49.6748C29.7083 49.2777 29.3901 48.9539 29 48.9539Z" fill="#CC7E7C"></path> </svg> 