<?xml version="1.0" encoding="UTF-8"?> <svg xmlns="http://www.w3.org/2000/svg" width="65" height="59" viewBox="0 0 65 59" fill="none"> <path d="M29.5 0L39.3458 19.6542L59 29.5L39.3458 39.3458L29.5 59L19.6542 39.3458L0 29.5L19.6542 19.6542L29.5 0Z" fill="#FCEFEE"></path> <path d="M19.9824 6C12.8218 6 7 11.8705 7 19.0909C7 26.0114 12.3688 31.633 19.1169 32.0932V48.3273C19.1169 51.45 21.6458 54 24.7426 54C27.8395 54 30.3684 51.45 30.3684 48.3273V40.9091H32.9649C34.3882 40.9091 35.5613 39.7261 35.5613 38.2909V32.1818H40.7543C42.1776 32.1818 43.3508 30.9989 43.3508 29.5636V29.9045L51.0963 27.3C52.1511 26.942 52.8712 25.9398 52.8712 24.8148V13.367C52.8712 12.2455 52.1545 11.2398 51.0963 10.8818L43.3508 8.27727V8.61818C43.3508 7.18295 42.1776 6 40.7543 6H19.9824ZM19.9824 7.74545H40.7543C41.2445 7.74545 41.6198 8.12386 41.6198 8.61818V9.53864L50.5486 12.5386C50.9036 12.658 51.1402 12.9886 51.1402 13.367V24.8148C51.1402 25.1932 50.9036 25.5239 50.5486 25.6432L41.6198 28.6432V29.5636C41.6198 30.058 41.2445 30.4364 40.7543 30.4364H34.8311C34.7804 30.4295 34.733 30.4227 34.6823 30.4227C34.6215 30.4261 34.564 30.433 34.5065 30.4466C31.2575 30.5489 28.6374 33.2455 28.6374 36.5455V39.8898C28.6205 39.9852 28.6205 40.0807 28.6374 40.1727V48.3273C28.6374 50.5057 26.903 52.2545 24.7426 52.2545C22.5823 52.2545 20.8479 50.5057 20.8479 48.3273V32.1818C21.3246 32.1818 21.7134 31.7898 21.7134 31.3091C21.7134 30.8284 21.3246 30.4364 20.8479 30.4364H19.9824C13.7583 30.4364 8.73099 25.367 8.73099 19.0909C8.73099 12.8148 13.7583 7.74545 19.9824 7.74545ZM42.4853 11.2364C42.0086 11.2364 41.6198 11.6284 41.6198 12.1091C41.6198 12.5898 42.0086 12.9818 42.4853 12.9818C42.962 12.9818 43.3508 12.5898 43.3508 12.1091C43.3508 11.6284 42.962 11.2364 42.4853 11.2364ZM15.655 12.1091C15.1783 12.1091 14.7895 12.5011 14.7895 12.9818C14.7895 13.4625 15.1783 13.8545 15.655 13.8545C16.1316 13.8545 16.5204 13.4625 16.5204 12.9818C16.5204 12.5011 16.1316 12.1091 15.655 12.1091ZM59.7952 12.9818C58.7843 12.9818 58.0067 13.2443 57.3576 13.4625C56.7085 13.6807 56.1878 13.8545 55.4677 13.8545C55.1567 13.8511 54.8659 14.0148 54.707 14.2875C54.5515 14.5602 54.5515 14.8943 54.707 15.167C54.8659 15.4398 55.1567 15.6034 55.4677 15.6C56.4786 15.6 57.2562 15.3375 57.9053 15.1193C58.5544 14.9011 59.0751 14.7273 59.7952 14.7273C60.5153 14.7273 61.036 14.9011 61.6851 15.1193C62.3342 15.3375 63.1118 15.6 64.1227 15.6C64.4337 15.6034 64.7245 15.4398 64.8834 15.167C65.0389 14.8943 65.0389 14.5602 64.8834 14.2875C64.7245 14.0148 64.4337 13.8511 64.1227 13.8545C63.4026 13.8545 62.8819 13.6807 62.2328 13.4625C61.5837 13.2443 60.8061 12.9818 59.7952 12.9818ZM12.193 14.7273C11.7163 14.7273 11.3275 15.1193 11.3275 15.6C11.3275 16.0807 11.7163 16.4727 12.193 16.4727C12.6697 16.4727 13.0585 16.0807 13.0585 15.6C13.0585 15.1193 12.6697 14.7273 12.193 14.7273ZM42.4853 14.7273C42.0086 14.7273 41.6198 15.1193 41.6198 15.6C41.6198 16.0807 42.0086 16.4727 42.4853 16.4727C42.962 16.4727 43.3508 16.0807 43.3508 15.6C43.3508 15.1193 42.962 14.7273 42.4853 14.7273ZM15.655 16.4727C15.1783 16.4727 14.7895 16.8648 14.7895 17.3455C14.7895 17.8261 15.1783 18.2182 15.655 18.2182C16.1316 18.2182 16.5204 17.8261 16.5204 17.3455C16.5204 16.8648 16.1316 16.4727 15.655 16.4727ZM59.7952 17.3455C58.7843 17.3455 58.0067 17.608 57.3576 17.8261C56.7085 18.0443 56.1878 18.2182 55.4677 18.2182C55.1567 18.2148 54.8659 18.3784 54.707 18.6511C54.5515 18.9239 54.5515 19.258 54.707 19.5307C54.8659 19.8034 55.1567 19.967 55.4677 19.9636C56.4786 19.9636 57.2562 19.7011 57.9053 19.483C58.5544 19.2648 59.0751 19.0909 59.7952 19.0909C60.5153 19.0909 61.036 19.2648 61.6851 19.483C62.3342 19.7011 63.1118 19.9636 64.1227 19.9636C64.4337 19.967 64.7245 19.8034 64.8834 19.5307C65.0389 19.258 65.0389 18.9239 64.8834 18.6511C64.7245 18.3784 64.4337 18.2148 64.1227 18.2182C63.4026 18.2182 62.8819 18.0443 62.2328 17.8261C61.5837 17.608 60.8061 17.3455 59.7952 17.3455ZM12.193 18.2182C11.7163 18.2182 11.3275 18.6102 11.3275 19.0909C11.3275 19.5716 11.7163 19.9636 12.193 19.9636C12.6697 19.9636 13.0585 19.5716 13.0585 19.0909C13.0585 18.6102 12.6697 18.2182 12.193 18.2182ZM42.4853 18.2182C42.0086 18.2182 41.6198 18.6102 41.6198 19.0909C41.6198 19.5716 42.0086 19.9636 42.4853 19.9636C42.962 19.9636 43.3508 19.5716 43.3508 19.0909C43.3508 18.6102 42.962 18.2182 42.4853 18.2182ZM15.655 19.9636C15.1783 19.9636 14.7895 20.3557 14.7895 20.8364C14.7895 21.317 15.1783 21.7091 15.655 21.7091C16.1316 21.7091 16.5204 21.317 16.5204 20.8364C16.5204 20.3557 16.1316 19.9636 15.655 19.9636ZM12.193 21.7091C11.7163 21.7091 11.3275 22.1011 11.3275 22.5818C11.3275 23.0625 11.7163 23.4545 12.193 23.4545C12.6697 23.4545 13.0585 23.0625 13.0585 22.5818C13.0585 22.1011 12.6697 21.7091 12.193 21.7091ZM42.4853 21.7091C42.0086 21.7091 41.6198 22.1011 41.6198 22.5818C41.6198 23.0625 42.0086 23.4545 42.4853 23.4545C42.962 23.4545 43.3508 23.0625 43.3508 22.5818C43.3508 22.1011 42.962 21.7091 42.4853 21.7091ZM59.7952 21.7091C58.7843 21.7091 58.0067 21.9716 57.3576 22.1898C56.7085 22.408 56.1878 22.5818 55.4677 22.5818C55.1567 22.5784 54.8659 22.742 54.707 23.0148C54.5515 23.2875 54.5515 23.6216 54.707 23.8943C54.8659 24.167 55.1567 24.3307 55.4677 24.3273C56.4786 24.3273 57.2562 24.0648 57.9053 23.8466C58.5544 23.6284 59.0751 23.4545 59.7952 23.4545C60.5153 23.4545 61.036 23.6284 61.6851 23.8466C62.3342 24.0648 63.1118 24.3273 64.1227 24.3273C64.4337 24.3307 64.7245 24.167 64.8834 23.8943C65.0389 23.6216 65.0389 23.2875 64.8834 23.0148C64.7245 22.742 64.4337 22.5784 64.1227 22.5818C63.4026 22.5818 62.8819 22.408 62.2328 22.1898C61.5837 21.9716 60.8061 21.7091 59.7952 21.7091ZM15.655 24.3273C15.1783 24.3273 14.7895 24.7193 14.7895 25.2C14.7895 25.6807 15.1783 26.0727 15.655 26.0727C16.1316 26.0727 16.5204 25.6807 16.5204 25.2C16.5204 24.7193 16.1316 24.3273 15.655 24.3273ZM42.4853 25.2C42.0086 25.2 41.6198 25.592 41.6198 26.0727C41.6198 26.5534 42.0086 26.9455 42.4853 26.9455C42.962 26.9455 43.3508 26.5534 43.3508 26.0727C43.3508 25.592 42.962 25.2 42.4853 25.2ZM24.3099 30.4364C23.8332 30.4364 23.4444 30.8284 23.4444 31.3091C23.4444 31.7898 23.8332 32.1818 24.3099 32.1818C24.7866 32.1818 25.1754 31.7898 25.1754 31.3091C25.1754 30.8284 24.7866 30.4364 24.3099 30.4364ZM27.7719 30.4364C27.2952 30.4364 26.9064 30.8284 26.9064 31.3091C26.9064 31.7898 27.2952 32.1818 27.7719 32.1818C28.2486 32.1818 28.6374 31.7898 28.6374 31.3091C28.6374 30.8284 28.2486 30.4364 27.7719 30.4364ZM33.8303 32.267V38.2909C33.8303 38.7852 33.4551 39.1636 32.9649 39.1636H30.3684V36.5455C30.3684 34.425 31.8492 32.6693 33.8303 32.267Z" fill="#CC7E7C"></path> </svg> 