<?xml version="1.0" encoding="UTF-8"?> <svg xmlns="http://www.w3.org/2000/svg" width="59" height="71" viewBox="0 0 59 71" fill="none"> <path d="M29.5 0L39.3458 19.6542L59 29.5L39.3458 39.3458L29.5 59L19.6542 39.3458L0 29.5L19.6542 19.6542L29.5 0Z" fill="#FCEFEE"></path> <path d="M10.7838 27C7.38978 27 4.62162 29.8237 4.62162 33.2857V40.4185C2.01594 40.8052 0 43.0949 0 45.8571C0 48.0332 1.27576 49.8655 3.08108 50.7556V67.0714C3.08108 67.5042 3.4271 67.8571 3.85135 67.8571H4.62162V71H9.24324V67.8571H47.7568V71H52.3784V67.8571H53.1486C53.5729 67.8571 53.9189 67.5042 53.9189 67.0714V50.7556C55.7242 49.8655 57 48.0332 57 45.8571C57 43.0949 54.9841 40.8052 52.3784 40.4185V33.2857C52.3784 29.8237 49.6102 27 46.2162 27H10.7838ZM10.7838 28.5714H46.2162C48.7768 28.5714 50.8378 30.6738 50.8378 33.2857V40.4185C48.2322 40.8052 46.2162 43.0949 46.2162 45.8571V49.6599C44.1311 49.3315 36.5186 48.2143 28.5 48.2143C20.4814 48.2143 12.8689 49.3315 10.7838 49.6599V45.8571C10.7838 43.0949 8.76784 40.8052 6.16216 40.4185V33.2857C6.16216 30.6738 8.22324 28.5714 10.7838 28.5714ZM20.027 33.2857C19.6028 33.2857 19.2568 33.6387 19.2568 34.0714C19.2568 34.5042 19.6028 34.8571 20.027 34.8571C20.4513 34.8571 20.7973 34.5042 20.7973 34.0714C20.7973 33.6387 20.4513 33.2857 20.027 33.2857ZM26.1892 33.2857C25.7649 33.2857 25.4189 33.6387 25.4189 34.0714C25.4189 34.5042 25.7649 34.8571 26.1892 34.8571C26.6134 34.8571 26.9595 34.5042 26.9595 34.0714C26.9595 33.6387 26.6134 33.2857 26.1892 33.2857ZM32.3514 33.2857C31.9271 33.2857 31.5811 33.6387 31.5811 34.0714C31.5811 34.5042 31.9271 34.8571 32.3514 34.8571C32.7756 34.8571 33.1216 34.5042 33.1216 34.0714C33.1216 33.6387 32.7756 33.2857 32.3514 33.2857ZM38.5135 33.2857C38.0893 33.2857 37.7432 33.6387 37.7432 34.0714C37.7432 34.5042 38.0893 34.8571 38.5135 34.8571C38.9378 34.8571 39.2838 34.5042 39.2838 34.0714C39.2838 33.6387 38.9378 33.2857 38.5135 33.2857ZM16.9459 38C16.5217 38 16.1757 38.353 16.1757 38.7857C16.1757 39.2185 16.5217 39.5714 16.9459 39.5714C17.3702 39.5714 17.7162 39.2185 17.7162 38.7857C17.7162 38.353 17.3702 38 16.9459 38ZM23.1081 38C22.6839 38 22.3378 38.353 22.3378 38.7857C22.3378 39.2185 22.6839 39.5714 23.1081 39.5714C23.5324 39.5714 23.8784 39.2185 23.8784 38.7857C23.8784 38.353 23.5324 38 23.1081 38ZM29.2703 38C28.846 38 28.5 38.353 28.5 38.7857C28.5 39.2185 28.846 39.5714 29.2703 39.5714C29.6945 39.5714 30.0405 39.2185 30.0405 38.7857C30.0405 38.353 29.6945 38 29.2703 38ZM35.4324 38C35.0082 38 34.6622 38.353 34.6622 38.7857C34.6622 39.2185 35.0082 39.5714 35.4324 39.5714C35.8567 39.5714 36.2027 39.2185 36.2027 38.7857C36.2027 38.353 35.8567 38 35.4324 38ZM41.5946 38C41.1703 38 40.8243 38.353 40.8243 38.7857C40.8243 39.2185 41.1703 39.5714 41.5946 39.5714C42.0188 39.5714 42.3649 39.2185 42.3649 38.7857C42.3649 38.353 42.0188 38 41.5946 38ZM5.30163 41.9316C5.36481 41.9408 5.42499 41.9408 5.48818 41.9316C7.57934 41.9838 9.24324 43.7118 9.24324 45.8571V60.6537C9.2282 60.7397 9.2282 60.8256 9.24324 60.9085V66.2857H4.62162V50.2983C4.62162 49.9637 4.41702 49.6691 4.11012 49.5555C2.61471 49.0184 1.54054 47.5728 1.54054 45.8571C1.54054 43.7087 3.20745 41.9807 5.30163 41.9316ZM51.5178 41.9316C51.581 41.9408 51.6412 41.9408 51.7044 41.9316C53.7956 41.9838 55.4595 43.7118 55.4595 45.8571C55.4595 47.5728 54.3853 49.0184 52.8929 49.5555C52.583 49.6691 52.3784 49.9637 52.3784 50.2983V66.2857H47.7568V60.9177C47.7718 60.8318 47.7718 60.7458 47.7568 60.6629V45.8571C47.7568 43.7087 49.4237 41.9807 51.5178 41.9316ZM20.027 42.7143C19.6028 42.7143 19.2568 43.0672 19.2568 43.5C19.2568 43.9328 19.6028 44.2857 20.027 44.2857C20.4513 44.2857 20.7973 43.9328 20.7973 43.5C20.7973 43.0672 20.4513 42.7143 20.027 42.7143ZM26.1892 42.7143C25.7649 42.7143 25.4189 43.0672 25.4189 43.5C25.4189 43.9328 25.7649 44.2857 26.1892 44.2857C26.6134 44.2857 26.9595 43.9328 26.9595 43.5C26.9595 43.0672 26.6134 42.7143 26.1892 42.7143ZM32.3514 42.7143C31.9271 42.7143 31.5811 43.0672 31.5811 43.5C31.5811 43.9328 31.9271 44.2857 32.3514 44.2857C32.7756 44.2857 33.1216 43.9328 33.1216 43.5C33.1216 43.0672 32.7756 42.7143 32.3514 42.7143ZM38.5135 42.7143C38.0893 42.7143 37.7432 43.0672 37.7432 43.5C37.7432 43.9328 38.0893 44.2857 38.5135 44.2857C38.9378 44.2857 39.2838 43.9328 39.2838 43.5C39.2838 43.0672 38.9378 42.7143 38.5135 42.7143ZM5.39189 45.0714C4.96764 45.0714 4.62162 45.4244 4.62162 45.8571C4.62162 46.2899 4.96764 46.6429 5.39189 46.6429C5.81614 46.6429 6.16216 46.2899 6.16216 45.8571C6.16216 45.4244 5.81614 45.0714 5.39189 45.0714ZM51.6081 45.0714C51.1839 45.0714 50.8378 45.4244 50.8378 45.8571C50.8378 46.2899 51.1839 46.6429 51.6081 46.6429C52.0324 46.6429 52.3784 46.2899 52.3784 45.8571C52.3784 45.4244 52.0324 45.0714 51.6081 45.0714ZM28.5 49.7857C37.1445 49.7857 45.2714 51.1024 46.2162 51.2589V60H10.7838V51.2589C11.7286 51.1024 19.8555 49.7857 28.5 49.7857ZM10.7838 61.5714H46.2162V66.2857H10.7838V61.5714ZM6.16216 67.8571H7.7027V69.4286H6.16216V67.8571ZM49.2973 67.8571H50.8378V69.4286H49.2973V67.8571Z" fill="#CC7E7C"></path> </svg> 