<?xml version="1.0" encoding="UTF-8"?> <svg xmlns="http://www.w3.org/2000/svg" width="47" height="34" viewBox="0 0 47 34" fill="none"> <path opacity="0.2" d="M12.6112 9.9551L12.6183 9.95066L12.6253 9.94599C13.132 9.60819 13.6797 9.44196 14.28 9.44196C14.9125 9.44196 15.4549 9.61032 15.9253 9.93958L15.9368 9.94767L15.9488 9.9551C16.453 10.2672 16.9034 10.7461 17.2909 11.4178L17.2944 11.424L17.2982 11.43C17.7104 12.0998 18.0285 12.9262 18.2433 13.9196L18.2431 13.9197L18.2462 13.9321C18.487 14.9224 18.61 16.0438 18.61 17.3C18.61 18.5561 18.487 19.6775 18.2462 20.6678L18.246 20.6677L18.2433 20.6803C18.0285 21.6737 17.7104 22.5001 17.2982 23.1699L17.2944 23.176L17.2909 23.1821C16.9027 23.8549 16.4491 24.3524 15.9371 24.6943C15.466 24.9998 14.9192 25.158 14.28 25.158C13.6746 25.158 13.1243 25.0027 12.6183 24.6913C12.1082 24.3494 11.6561 23.8529 11.2691 23.1821C10.879 22.506 10.5588 21.6728 10.3154 20.674C10.1011 19.6808 9.99199 18.5571 9.99199 17.3C9.99199 16.0428 10.1011 14.9192 10.3153 13.9259C10.5588 12.9271 10.879 12.0939 11.2691 11.4178C11.6566 10.7461 12.107 10.2672 12.6112 9.9551ZM7.41593 31.2448L7.41589 31.2448L7.42325 31.2494C9.41496 32.4795 11.706 33.088 14.28 33.088C16.988 33.088 19.338 32.4822 21.3076 31.2476L21.3076 31.2476L21.3121 31.2448C23.2788 29.9825 24.7809 28.167 25.8239 25.8214C26.8967 23.4715 27.422 20.6251 27.422 17.3C27.422 13.9749 26.8967 11.1284 25.8239 8.77853C24.7809 6.43306 23.2783 4.63039 21.3098 3.39573C19.3401 2.13224 16.9891 1.51196 14.28 1.51196C11.7041 1.51196 9.41171 2.13535 7.41959 3.39484C5.45228 4.62832 3.92244 6.42877 2.82333 8.7716C1.72011 11.1232 1.17999 13.9722 1.17999 17.3C1.17999 20.6277 1.72011 23.4767 2.82333 25.8283C3.92225 28.1707 5.45111 29.9838 7.41593 31.2448ZM29.9359 11.882V12.5129L30.5501 12.3687L37.4539 10.7489V32V32.5H37.9539H45.7659H46.2659V32V2.01196V1.40696L45.6717 1.52091L30.3417 4.46091L29.9359 4.53874V4.95196V11.882Z" stroke="#767676"></path> </svg> 