<?xml version="1.0" encoding="UTF-8"?> <svg xmlns="http://www.w3.org/2000/svg" width="56" height="34" viewBox="0 0 56 34" fill="none"> <path opacity="0.2" d="M12.6112 9.9551L12.6183 9.95067L12.6253 9.946C13.132 9.60819 13.6797 9.44197 14.28 9.44197C14.9125 9.44197 15.4549 9.61033 15.9253 9.93959L15.9368 9.94768L15.9488 9.9551C16.453 10.2672 16.9034 10.7461 17.2909 11.4178L17.2944 11.424L17.2982 11.43C17.7104 12.0998 18.0285 12.9262 18.2433 13.9196L18.2431 13.9197L18.2462 13.9321C18.487 14.9224 18.61 16.0438 18.61 17.3C18.61 18.5561 18.487 19.6775 18.2462 20.6678L18.246 20.6678L18.2433 20.6803C18.0285 21.6738 17.7104 22.5001 17.2982 23.1699L17.2944 23.176L17.2909 23.1821C16.9027 23.8549 16.4491 24.3524 15.9371 24.6943C15.466 24.9998 14.9192 25.158 14.28 25.158C13.6746 25.158 13.1243 25.0027 12.6183 24.6913C12.1082 24.3494 11.6561 23.8529 11.2691 23.1821C10.879 22.506 10.5588 21.6729 10.3154 20.6741C10.1011 19.6808 9.99199 18.5571 9.99199 17.3C9.99199 16.0428 10.1011 14.9192 10.3153 13.9259C10.5588 12.9271 10.879 12.0939 11.2691 11.4178C11.6566 10.7461 12.107 10.2672 12.6112 9.9551ZM7.41593 31.2448L7.41589 31.2448L7.42325 31.2494C9.41496 32.4795 11.706 33.088 14.28 33.088C16.988 33.088 19.338 32.4822 21.3076 31.2476L21.3076 31.2476L21.3121 31.2448C23.2788 29.9825 24.7809 28.167 25.8239 25.8214C26.8967 23.4715 27.422 20.6251 27.422 17.3C27.422 13.9749 26.8967 11.1284 25.8239 8.77854C24.7809 6.43307 23.2783 4.6304 21.3098 3.39574C19.3401 2.13225 16.9891 1.51197 14.28 1.51197C11.7041 1.51197 9.41171 2.13536 7.41959 3.39485C5.45228 4.62833 3.92244 6.42877 2.82333 8.77161C1.72011 11.1232 1.17999 13.9722 1.17999 17.3C1.17999 20.6277 1.72011 23.4767 2.82333 25.8283C3.92225 28.1708 5.45111 29.9838 7.41593 31.2448ZM28.2304 31.6504L27.3998 32.5H28.5879H54.7539H55.2539V32V24.566V24.066H54.7539H44.8268L49.8641 19.8276C51.2176 18.7327 52.3064 17.5154 53.123 16.1739C53.9575 14.803 54.3719 13.2701 54.3719 11.588C54.3719 10.3125 54.1046 9.08143 53.5728 7.89889C53.0388 6.68353 52.2409 5.59319 51.1882 4.62768C50.1534 3.65268 48.8766 2.89299 47.3694 2.34178C45.8468 1.75681 44.1195 1.46997 42.1959 1.46997C39.4412 1.46997 37.0806 2.02963 35.1385 3.17691C33.241 4.28646 31.8008 5.78284 30.8315 7.66282L30.8301 7.66554C29.8963 9.50399 29.4319 11.5142 29.4319 13.688V14.188H29.9319H37.9119H38.4119V13.688C38.4119 12.823 38.5554 12.0673 38.8312 11.4122C39.1309 10.7661 39.5451 10.286 40.0703 9.9518L40.077 9.94755L40.0836 9.94309C40.6121 9.5827 41.2129 9.39997 41.9019 9.39997C42.4677 9.39997 42.9087 9.49037 43.2444 9.64706L43.2621 9.6553L43.2803 9.66213C43.6681 9.80757 43.9836 10.0088 44.2363 10.2615L44.2447 10.2699L44.2536 10.2779C44.5008 10.5027 44.6786 10.7694 44.791 11.0841C44.9116 11.4217 44.9719 11.7708 44.9719 12.134C44.9719 12.813 44.8216 13.4672 44.5171 14.1016L44.5171 14.1016L44.5134 14.1096C44.2302 14.7275 43.7983 15.3732 43.2065 16.0457L43.2064 16.0456L43.199 16.0544C42.6162 16.7482 41.9217 17.554 41.1151 18.4719L28.2304 31.6504Z" stroke="#767676"></path> </svg> 