<?xml version="1.0" encoding="UTF-8"?> <svg xmlns="http://www.w3.org/2000/svg" width="55" height="33" viewBox="0 0 55 33" fill="none"> <path opacity="0.2" d="M12.6112 8.9551L12.6183 8.95066L12.6253 8.94599C13.132 8.60819 13.6797 8.44196 14.28 8.44196C14.9125 8.44196 15.4549 8.61032 15.9253 8.93958L15.9368 8.94767L15.9488 8.9551C16.453 9.26719 16.9034 9.74612 17.2909 10.4178L17.2944 10.424L17.2982 10.43C17.7104 11.0998 18.0285 11.9262 18.2433 12.9196L18.2431 12.9197L18.2462 12.9321C18.487 13.9224 18.61 15.0438 18.61 16.3C18.61 17.5561 18.487 18.6775 18.2462 19.6678L18.246 19.6677L18.2433 19.6803C18.0285 20.6737 17.7104 21.5001 17.2982 22.1699L17.2944 22.176L17.2909 22.1821C16.9027 22.8549 16.4491 23.3524 15.9371 23.6943C15.466 23.9998 14.9192 24.158 14.28 24.158C13.6746 24.158 13.1243 24.0027 12.6183 23.6913C12.1082 23.3494 11.6561 22.8529 11.2691 22.1821C10.879 21.506 10.5588 20.6728 10.3154 19.674C10.1011 18.6808 9.99199 17.5571 9.99199 16.3C9.99199 15.0428 10.1011 13.9192 10.3153 12.9259C10.5588 11.9271 10.879 11.0939 11.2691 10.4178C11.6566 9.74612 12.107 9.26719 12.6112 8.9551ZM7.41593 30.2448L7.41589 30.2448L7.42325 30.2494C9.41496 31.4795 11.706 32.088 14.28 32.088C16.988 32.088 19.338 31.4822 21.3076 30.2476L21.3076 30.2476L21.3121 30.2448C23.2788 28.9825 24.7809 27.167 25.8239 24.8214C26.8967 22.4715 27.422 19.6251 27.422 16.3C27.422 12.9749 26.8967 10.1284 25.8239 7.77853C24.7809 5.43306 23.2783 3.63039 21.3098 2.39573C19.3401 1.13224 16.9891 0.511963 14.28 0.511963C11.7041 0.511963 9.41171 1.13535 7.41959 2.39484C5.45228 3.62832 3.92244 5.42877 2.82333 7.7716C1.72011 10.1232 1.17999 12.9722 1.17999 16.3C1.17999 19.6277 1.72011 22.4767 2.82333 24.8283C3.92225 27.1707 5.45111 28.9838 7.41593 30.2448ZM39.0499 16.846V17.346V18.358V18.858H39.5499C40.6442 18.858 41.5369 18.9541 42.2384 19.136L42.2426 19.137C42.9822 19.3219 43.5437 19.5783 43.9502 19.8891L43.963 19.899L43.9765 19.908C44.4164 20.2013 44.7138 20.5411 44.8935 20.9229L44.8933 20.9229L44.8987 20.9336C45.0877 21.3117 45.1819 21.7111 45.1819 22.138C45.1819 22.8167 45.0323 23.3422 44.7655 23.7451C44.4954 24.1254 44.1251 24.3978 43.6338 24.5616L43.6338 24.5616L43.6267 24.564C43.1321 24.7372 42.5323 24.83 41.8179 24.83C41.1878 24.83 40.5682 24.7046 39.9558 24.4499C39.4086 24.2112 38.9677 23.8318 38.6277 23.2975C38.3001 22.7828 38.1179 22.0993 38.1179 21.214V20.714H37.6179H29.5959H29.0959V21.214C29.0959 22.626 29.3757 23.994 29.9333 25.3145C30.4914 26.6364 31.2987 27.8239 32.3503 28.8755L32.3503 28.8756L32.3552 28.8803C33.4416 29.9373 34.7437 30.7694 36.2547 31.3796L36.2546 31.3797L36.2654 31.3838C37.815 31.9686 39.5564 32.256 41.4819 32.256C44.1317 32.256 46.4128 31.8717 48.3097 31.0837C50.1993 30.2988 51.6676 29.1957 52.6839 27.761C53.6981 26.3292 54.2039 24.7014 54.2039 22.894C54.2039 21.3046 53.8355 19.9181 53.0741 18.759C52.3513 17.6162 51.3197 16.6808 49.9987 15.9469C49.7343 15.8 49.4604 15.6616 49.1771 15.5318C50.0248 15.0965 50.7672 14.5788 51.4006 13.976C52.7146 12.7526 53.3639 11.1599 53.3639 9.24396C53.3639 7.60543 52.9006 6.12014 51.9743 4.8032C51.0724 3.45281 49.7462 2.40494 48.027 1.64706C46.3218 0.882974 44.2601 0.511963 41.8599 0.511963C39.5831 0.511963 37.5696 0.958739 35.8343 1.86976C34.11 2.74714 32.7528 3.95354 31.7777 5.49005L31.7764 5.49222C30.8272 7.00493 30.3559 8.70814 30.3559 10.588V11.088H30.8559H38.3319H38.8319V10.588C38.8319 9.7641 39.1036 9.13429 39.6311 8.65078C40.197 8.15736 40.9266 7.89596 41.8599 7.89596C42.4892 7.89596 42.9555 7.98863 43.2864 8.14306L43.2864 8.14319L43.2975 8.14804C43.666 8.30929 43.9169 8.52689 44.0801 8.79201C44.2502 9.06847 44.3419 9.39566 44.3419 9.78996C44.3419 10.1712 44.2425 10.5474 44.0315 10.9247C43.8215 11.2726 43.5109 11.5998 43.0835 11.9015C42.6573 12.2024 42.1471 12.4468 41.5463 12.6296C40.9565 12.8091 40.2925 12.902 39.5499 12.902H39.0499V13.402V13.91V14.41V16.846Z" stroke="#767676"></path> </svg> 