<?xml version="1.0" encoding="UTF-8"?> <svg xmlns="http://www.w3.org/2000/svg" width="161" height="47" viewBox="0 0 161 47" fill="none"> <path d="M161 47H15C6.71573 47 0 40.2843 0 32V15C0 6.71573 6.71573 0 15 0H146C154.284 0 161 6.71573 161 15V47Z" fill="#CC7F7D"></path> <path d="M161 47H15C6.71573 47 0 40.2843 0 32V15C0 6.71573 6.71573 0 15 0H146C154.284 0 161 6.71573 161 15V47Z" fill="url(#paint0_linear_203_1417)" fill-opacity="0.65"></path> <circle cx="25" cy="24" r="12" fill="white"></circle> <path d="M25 19L26.1226 22.4549H29.7553L26.8164 24.5902L27.9389 28.0451L25 25.9098L22.0611 28.0451L23.1836 24.5902L20.2447 22.4549H23.8774L25 19Z" fill="#494343"></path> <defs> <linearGradient id="paint0_linear_203_1417" x1="4.47386e-06" y1="23.5" x2="158.748" y2="21.6469" gradientUnits="userSpaceOnUse"> <stop stop-color="#E2B5B1"></stop> <stop offset="1" stop-color="#C56E6C"></stop> </linearGradient> </defs> </svg> 