<?xml version="1.0" encoding="UTF-8"?> <svg xmlns="http://www.w3.org/2000/svg" width="161" height="47" viewBox="0 0 161 47" fill="none"> <path d="M0 47H146C154.284 47 161 40.2843 161 32V15C161 6.71573 154.284 0 146 0H15C6.71573 0 0 6.71573 0 15V47Z" fill="#6D9A74"></path> <path d="M0 47H146C154.284 47 161 40.2843 161 32V15C161 6.71573 154.284 0 146 0H15C6.71573 0 0 6.71573 0 15V47Z" fill="url(#paint0_linear_203_1418)" fill-opacity="0.65"></path> <circle cx="25" cy="24" r="12" fill="white"></circle> <path d="M25 19L26.4566 22.5434L30 24L26.4566 25.4566L25 29L23.5434 25.4566L20 24L23.5434 22.5434L25 19Z" fill="#494343"></path> <defs> <linearGradient id="paint0_linear_203_1418" x1="106.26" y1="23.5" x2="8.20759e-07" y2="23.5" gradientUnits="userSpaceOnUse"> <stop stop-color="#6D9A74"></stop> <stop offset="1" stop-color="#A6CDAC"></stop> </linearGradient> </defs> </svg> 